<?xml version="1.0" standalone="no"?>
<!DOCTYPE svg PUBLIC "-//W3C//DTD SVG 1.1//EN" "http://www.w3.org/Graphics/SVG/1.1/DTD/svg11.dtd" >
<svg xmlns="http://www.w3.org/2000/svg">
<metadata>
Created by FontPrep 20130207 at Sat Nov  9 21:02:32 2013
 By Michael Hurley
Copyright (c) 1985, 1987, 1989, 1990, 1992, 1997, 1998, 1999, 2002 Adobe Systems Incorporated.  All Rights Reserved. (c) 1981, 1999, 2002 Heidelberger Druckmaschinen AG. All rights reserved.
</metadata>
<defs>
<font id="serif-bold" horiz-adv-x='1024' >
  <font-face 
    font-family="PalatinoLTStd-Bold"
    font-weight="700"
    font-stretch="normal"
    units-per-em="2048"
    panose-1="2 4 7 2 5 5 5 3 3 4"
    ascent="1487"
    descent="-561"
    x-height="940"
    cap-height="1395"
    bbox="-311 -545 2048 1892"
    underline-thickness="102"
    underline-position="-102"
    unicode-range="U+0020-FB02"
  />
<missing-glyph 
d="M102 1239v-1044l349 522zM164 102h696l-348 523zM573 717l349 -522v1044zM512 809l348 522h-696zM0 0v1434h1024v-1434h-1024z" />
    <glyph glyph-name="f_i" unicode="fi" horiz-adv-x="1251" 
d="M967 1446q65 0 109 -44t44 -108t-46 -110q-46 -45 -107 -45t-108 45q-46 46 -46 110t44 108t110 44zM190 205v557l-161 -10v49q92 43 161 92v88q0 123 19 170q18 47 94 111l152 127q65 55 105 70q80 30 171 3v-198l-33 -15q-78 49 -122 49q-78 0 -107 -34t-29 -154v-221
h228q139 0 241 31l148 45l16 -2v-758q0 -69 8 -97t66 -34l72 -4v-76q-264 6 -277 6l-264 -6v76l72 4q57 6 65 34t8 97v463q0 72 -18 102t-60 31h-63l-14 -39h-228v-557q0 -70 9 -96q10 -33 73 -35l72 -4v-76l-285 6l-289 -6v76l84 4q68 4 77 33t9 98z" />
    <glyph glyph-name="f_l" unicode="fl" horiz-adv-x="1251" 
d="M819 205v958q0 90 -8 115t-45 29l-55 6v-68l-31 -8q-16 23 -49 42t-64 19q-65 0 -89 -48t-23 -140v-221q84 0 247 8l9 -16l-23 -119h-233v-557q0 -71 8 -97t94 -34l51 -4v-76l-284 6l-289 -6v76l84 4q68 4 77 33t9 98v557l-162 -10v49q92 43 162 92v88q0 123 18 170
t94 111l152 127q104 86 180 86q12 0 62 -7v-75q156 23 217 41l125 41l16 -13v-1257q0 -69 8 -97t66 -34l71 -4v-76q-264 6 -276 6l-264 -6v76l71 4q57 6 65 34t9 97z" />
    <glyph glyph-name=".notdef" 
d="M102 1239v-1044l349 522zM164 102h696l-348 523zM573 717l349 -522v1044zM512 809l348 522h-696zM0 0v1434h1024v-1434h-1024z" />
    <glyph glyph-name=".null" horiz-adv-x="0" 
 />
    <glyph glyph-name="nonmarkingreturn" horiz-adv-x="681" 
 />
    <glyph glyph-name="space" unicode=" " horiz-adv-x="512" 
 />
    <glyph glyph-name="exclam" unicode="!" horiz-adv-x="569" 
d="M449 1409q0 -96 -15 -197l-102 -761l-78 -43l-10 16l-97 733q-4 33 -8 162l205 90h105zM289 295q63 0 111 -49q48 -50 48 -112t-48 -110t-111 -48t-111 46t-49 110q0 64 48 114q49 49 112 49z" />
    <glyph glyph-name="quotedbl" unicode="&#x22;" horiz-adv-x="823" 
d="M500 1280q0 51 43 97t96 46t96 -46t43 -97q0 -14 -2 -20l-90 -490h-94l-90 490q-2 6 -2 20zM45 1280q0 51 43 97t96 46q52 0 96 -46t44 -97q0 -14 -2 -20l-91 -490h-94l-90 490q-2 6 -2 20z" />
    <glyph glyph-name="numbersign" unicode="#" 
d="M649 813h-219l-33 -219h219zM963 594v-154h-215l-66 -440h-154l66 440h-221l-66 -440h-153l65 440h-211v154h236l32 219h-210v154h233l61 411h154l-61 -411h219l59 411h154l-60 -411h191v-154h-213l-33 -219h193z" />
    <glyph glyph-name="dollar" unicode="$" 
d="M453 1257q-66 0 -126 -62q-61 -61 -61 -153t52 -144t135 -62v421zM547 547v-465q88 20 144 88q57 68 57 159t-54 149t-147 69zM453 76v491q-201 23 -298 105t-98 272q0 350 396 424l-4 109h102l-4 -109q190 0 338 -68l4 -14q-29 -102 -29 -287h-80v33q0 94 -12 128
t-85 66t-136 31v-434q187 -30 304 -109q116 -79 116 -272q0 -192 -117 -322t-303 -147l4 -206h-105l7 198q-233 6 -385 82l-7 19q12 115 19 305h82l2 -82q0 -61 22 -99q23 -38 106 -76t161 -38z" />
    <glyph glyph-name="percent" unicode="%" horiz-adv-x="1820" 
d="M580 -18h-101l750 1480h100zM1362 606q-129 0 -129 -264q0 -156 34 -216t95 -60t95 60t34 216q0 264 -129 264zM1362 672q146 0 240 -95t94 -243t-98 -240q-98 -94 -236 -94q-137 0 -236 93q-98 93 -98 241t94 243q95 95 240 95zM459 1368q-129 0 -129 -264
q0 -156 34 -216t95 -60t95 60t34 216q0 264 -129 264zM459 1434q145 0 239 -96t94 -242t-98 -240t-235 -94t-236 93q-98 93 -98 241q1 148 95 243t239 95z" />
    <glyph glyph-name="ampersand" unicode="&#x26;" horiz-adv-x="1705" 
d="M1343 797q93 0 271 12l6 -18q-31 -70 -41 -144q-135 14 -289 15q6 -33 6 -70q0 -156 -133 -320q145 -100 312 -100q40 0 63 14q22 14 38 25q16 12 26 16l34 23l29 -66q-129 -106 -190 -202l-136 -7h-18q-170 0 -332 134q-178 -143 -391 -143t-352 104t-140 292
q0 140 84 234t234 168q-68 162 -68 266t105 215l71 78q72 78 220 78q100 -1 162 -59t62 -141t-27 -142q-56 -119 -296 -271q176 -264 422 -464q66 96 66 183t-41 165h-185q51 98 60 135l242 -8q33 -2 126 -2zM680 1274q-137 0 -137 -164q0 -82 69 -238q186 119 187 267
q0 57 -32 96t-87 39zM717 109q106 0 186 61q-274 233 -448 518q-57 -53 -81 -100t-24 -115q0 -145 111 -255t256 -109z" />
    <glyph glyph-name="quotesingle" unicode="'" horiz-adv-x="464" 
d="M92 1280q0 51 43 97t96 46t97 -46t43 -97q0 -14 -2 -20l-90 -490h-95l-90 490q-2 6 -2 20z" />
    <glyph glyph-name="parenleft" unicode="(" horiz-adv-x="681" 
d="M406 549q0 -199 40 -376t179 -337l-50 -49q-442 309 -442 839t438 855l54 -45q-74 -82 -121 -180q-74 -152 -92 -418q-6 -90 -6 -289z" />
    <glyph glyph-name="parenright" unicode=")" horiz-adv-x="681" 
d="M549 626q0 -529 -443 -839l-49 49q139 160 180 337q59 263 33 665q-18 268 -92 418q-47 98 -121 180l54 45q438 -326 438 -855z" />
    <glyph glyph-name="asterisk" unicode="*" horiz-adv-x="909" 
d="M795 1088q0 -46 22 -119l-18 -23q-131 53 -316 70q27 -41 67 -109q39 -68 97 -133l-4 -24q-74 -12 -174 -70l-31 14q0 162 -22 297q-46 -31 -106 -94t-101 -121l-39 17q-29 88 -80 143l8 14q129 31 281 109q-104 74 -283 121l-6 14q63 100 90 158h33q158 -182 209 -234
q27 133 27 266v25l16 14q88 -33 188 -45l11 -28q-80 -78 -168 -260q27 6 136 26t152 37l13 -6q-2 -13 -2 -59z" />
    <glyph glyph-name="plus" unicode="+" horiz-adv-x="1241" 
d="M532 610v424h177v-424h428v-176h-428v-434h-177v434h-428v176h428z" />
    <glyph glyph-name="comma" unicode="," horiz-adv-x="512" 
d="M164 -279l-146 -61l-30 27q68 133 114 285t54 239q154 39 274 78l35 -33q-90 -197 -301 -535z" />
    <glyph glyph-name="hyphen" unicode="-" horiz-adv-x="681" 
d="M102 625h529l18 -21q-51 -119 -65 -205h-535l-16 17q7 24 35 102t34 107z" />
    <glyph glyph-name="period" unicode="." horiz-adv-x="512" 
d="M256 295q64 0 112 -49q48 -50 48 -112t-48 -110t-112 -48t-112 46t-48 110t48 114q49 49 112 49z" />
    <glyph glyph-name="slash" unicode="/" horiz-adv-x="606" 
d="M440 1475h185l-459 -1510h-184z" />
    <glyph glyph-name="zero" unicode="0" 
d="M500 1249q-186 0 -187 -424v-59q0 -578 123 -671q36 -27 96 -27t104 64q75 110 76 361q0 250 -14 369t-18 149q-14 104 -51 161q-18 30 -52 54t-77 23zM532 1352q114 0 192 -38t123 -96q44 -58 71 -146q28 -88 34 -168q6 -79 6 -177t-5 -174t-19 -169q-25 -164 -127 -291
q-102 -128 -309 -128q-115 0 -198 43q-83 42 -127 104t-69 159q-24 97 -30 177t-6 192q0 110 9 200t39 190t79 167t136 111t201 44z" />
    <glyph glyph-name="one" unicode="1" 
d="M598 0q-52 0 -444 -6v76l147 6q117 8 117 96v922q0 63 -21 63q-6 0 -10 -2l-287 -133q-29 70 -28 131v12q217 51 612 207l25 -20q-20 -328 -21 -521v-659q0 -88 117 -96l127 -6v-76q-282 6 -334 6z" />
    <glyph glyph-name="two" unicode="2" 
d="M633 899q-1 113 -59 175t-168 63q-60 0 -120 -34t-73 -79l-37 -139l-76 6l37 338q151 123 335 123t308 -98t123 -265q0 -195 -211 -405l-356 -351l4 -16l618 23l9 -11q-6 -59 -6 -115t4 -120l-457 6l-457 -6v104l342 340q240 236 240 461z" />
    <glyph glyph-name="three" unicode="3" 
d="M684 356q0 110 -70 181q-70 70 -186 69q-72 0 -127 -16l-14 10l39 152h71q102 0 167 56t65 150q-1 94 -57 144q-56 49 -157 49t-159 -61t-76 -146h-71l63 316q152 92 312 92t266 -81t106 -193t-62 -189q-62 -76 -161 -121v-4q137 -10 221 -88t84 -213q0 -211 -177 -355
t-396 -143q-162 0 -269 49q-6 57 -51 305l70 19q53 -125 129 -192q76 -66 192 -66t182 83t66 193z" />
    <glyph glyph-name="four" unicode="4" 
d="M539 227v111h-500l-14 80q160 406 501 903l250 55l15 -24q-12 -393 -13 -590v-256h180l3 -4v-164h-183v-111q0 -147 117 -151l74 -6v-76l-310 6q-68 0 -368 -6v76l131 6q117 4 117 151zM539 506v674h-4q-17 -33 -71 -116t-79 -130l-127 -238q-41 -80 -90 -190h371z" />
    <glyph glyph-name="five" unicode="5" 
d="M563 856q174 0 289 -95t115 -267q1 -232 -175 -380t-401 -149q-150 0 -241 45q-12 68 -64 275l61 37q37 -98 122 -168t199 -70t186 74t71 200q0 126 -71 207q-70 80 -206 80t-225 -82l-39 23q12 252 13 254v209q0 106 -13 278l15 16q313 -12 348 -12l362 12l9 -16
q-22 -87 -13 -201l-12 -22l-293 6l-295 -6l-8 -318q150 70 266 70z" />
    <glyph glyph-name="six" unicode="6" 
d="M524 662q-186 0 -186 -248q0 -146 50 -246t150 -100t140 85q41 85 41 175q1 90 -15 156t-62 122t-118 56zM817 1266q-113 0 -214 -54t-171 -172t-88 -362l4 -4q125 164 289 164t244 -111t80 -270q0 -209 -118 -351t-323 -141q-444 0 -444 596q0 412 305 647
q186 144 430 144l80 -56l-31 -32q-14 2 -43 2z" />
    <glyph glyph-name="seven" unicode="7" 
d="M326 1090q-74 0 -98 -20t-31 -87l-17 -131h-80l2 162q0 182 -8 313l21 16q408 -12 606 -12l289 6v-92q-87 -135 -191 -352l-225 -459q-111 -229 -176 -440q-117 6 -119 6l-106 -6l-13 22l615 1061l-9 13h-460z" />
    <glyph glyph-name="eight" unicode="8" 
d="M539 1352q154 0 255 -77t101 -229t-193 -276q102 -35 178 -123t76 -229q0 -199 -137 -326t-338 -127q-201 1 -306 107t-105 252q0 110 68 198t171 133q-205 109 -205 316q0 173 115 277t320 104zM723 1010q0 110 -56 172q-57 62 -149 63q-92 0 -147 -48t-55 -132t52 -133
q54 -49 144 -88l90 -39q121 95 121 205zM252 332q0 -104 74 -182t177 -78t166 68q62 69 62 166t-55 155q-56 57 -158 102l-125 55q-73 -61 -107 -122t-34 -164z" />
    <glyph glyph-name="nine" unicode="9" 
d="M512 662q176 0 176 239q0 344 -192 344q-102 0 -146 -79t-45 -173q-1 -93 15 -159t65 -119t127 -53zM213 55q115 0 244 76q77 51 139 164t82 350l-129 -113q-55 -49 -158 -49q-166 0 -247 109t-81 280q0 224 120 352t319 128q248 0 348 -161t99 -374q-2 -432 -258 -667
q-132 -123 -318 -168q-52 -13 -158 -17l-78 60l19 36q25 -6 57 -6z" />
    <glyph glyph-name="colon" unicode=":" horiz-adv-x="512" 
d="M256 930q64 0 112 -49t48 -111t-48 -112q-48 -48 -112 -48t-112 46t-48 111t48 114q49 49 112 49zM256 295q64 0 112 -49q48 -50 48 -112t-48 -110t-112 -48t-112 46t-48 110t48 114q49 49 112 49z" />
    <glyph glyph-name="semicolon" unicode=";" horiz-adv-x="512" 
d="M303 930q63 0 111 -49t49 -111q0 -62 -48 -112q-47 -48 -111 -48t-113 46q-48 46 -48 111t48 114q49 49 112 49zM164 -279l-146 -61l-30 27q68 133 114 285t54 239q154 39 274 78l35 -33q-90 -197 -301 -535z" />
    <glyph glyph-name="less" unicode="&#x3c;" horiz-adv-x="1241" 
d="M328 516l815 -375v-172l-1043 471v152l1043 471v-172z" />
    <glyph glyph-name="equal" unicode="=" horiz-adv-x="1241" 
d="M1137 410v-177h-1033v177h1033zM1137 811v-176h-1033v176h1033z" />
    <glyph glyph-name="greater" unicode="&#x3e;" horiz-adv-x="1241" 
d="M100 141l815 375l-815 375v172l1043 -471v-152l-1043 -471v172z" />
    <glyph glyph-name="question" unicode="?" horiz-adv-x="909" 
d="M397 295q63 0 111 -49q48 -50 49 -112q0 -62 -48 -110q-47 -48 -111 -48t-112 46t-48 110t48 114q48 49 111 49zM410 489q0 -31 22 -75l-70 -29q-53 61 -53 159t156 277q102 121 102 206t-55 134t-133 49q-133 0 -156 -47l-63 -145l-72 18q59 180 66 273q135 98 299 98
q165 0 277 -80t112 -233q0 -98 -33 -156t-113 -127l-157 -131q-129 -106 -129 -191z" />
    <glyph glyph-name="at" unicode="@" horiz-adv-x="1529" 
d="M645 352q57 0 105 58t81 129q66 141 66 284q0 53 -24 97t-72 45q-72 0 -134 -89q-61 -90 -93 -192t-31 -172q0 -160 102 -160zM86 671q0 304 205 514t495 210t474 -170q182 -169 182 -397q0 -332 -288 -496q-89 -51 -161 -51q-71 0 -107 49t-42 119q-60 -80 -110 -118
t-128 -38q-122 0 -190 79t-68 208q0 168 127 307t293 139q68 0 112 -37t54 -102h4l31 123h192l-151 -561q-8 -33 -9 -50q0 -51 43 -51q78 0 186 146t108 328t-143 320q-142 138 -393 138t-426 -168t-175 -432t182 -427t455 -163q140 0 260 72t202 192h132
q-88 -172 -256 -275t-361 -104q-305 0 -517 196t-212 500z" />
    <glyph glyph-name="A" unicode="A" horiz-adv-x="1593" 
d="M700 1057l-204 -520h417zM1065 135q0 23 -12 53l-92 234h-515l-86 -229q-10 -31 -10 -56t18 -42t42 -19l102 -6v-76l-231 6l-232 -6v76l62 6q68 8 114 123l371 897l117 309h145l531 -1239q35 -80 112 -90l49 -6v-76l-317 6l-318 -6v76l109 6q41 4 41 59z" />
    <glyph glyph-name="B" unicode="B" horiz-adv-x="1366" 
d="M827 1395q377 0 377 -277q0 -167 -155 -255q-74 -42 -209 -87v-4q205 -8 308 -88t103 -259q-1 -179 -155 -305t-394 -126h-20q-276 6 -292 6t-243 -6v47l66 37q41 23 41 117v917q0 137 -14 166t-84 35l-76 6v76l319 -6l416 6h12zM543 819h61q147 1 222 57t75 185t-58 180
t-175 51q-68 0 -125 -8v-465zM543 713v-598q41 -8 110 -9q291 0 291 310q0 164 -86 230t-254 67h-61z" />
    <glyph glyph-name="C" unicode="C" horiz-adv-x="1478" 
d="M901 -35q-362 0 -587 198q-224 198 -224 554q0 227 116 390t298 240t428 77t479 -97l12 -22q-18 -66 -47 -314h-80l-10 176q-136 141 -376 141t-376 -156q-136 -158 -136 -428t159 -448q160 -178 444 -178q92 0 203 30t189 75l24 -25l-45 -100q-184 -113 -471 -113z" />
    <glyph glyph-name="D" unicode="D" horiz-adv-x="1705" 
d="M659 1292q-67 0 -124 -8v-1167q59 -10 176 -11q303 0 447 151t144 459t-146 442q-148 134 -497 134zM246 195v917q0 137 -14 166t-85 35l-75 6v76l319 -6l527 6q342 0 517 -153t175 -486q0 -236 -120 -412t-306 -263t-408 -87h-18l-305 6l-314 -6v47l66 37q41 23 41 117z
" />
    <glyph glyph-name="E" unicode="E" horiz-adv-x="1251" 
d="M805 1276q-133 0 -262 -6v-492q47 -4 137 -4h135q61 0 88 8t29 35l12 117h82l-6 -219l6 -221h-82l-12 102q-8 76 -117 76h-135q-66 0 -137 -6v-547q129 -6 233 -6t190 11q87 11 89 23l47 193h80l-23 -324l-10 -16q-109 -8 -281 -8t-223 2l-252 6q-18 0 -246 -6v47l66 37
q41 23 41 117v917q0 137 -14 166t-84 35l-76 6v76q74 0 180 -4l139 -2q98 0 449 6l108 2q106 0 191 -8l12 -15l-29 -291h-73l-17 154q-6 39 -235 39z" />
    <glyph glyph-name="F" unicode="F" horiz-adv-x="1138" 
d="M750 1276q-101 0 -230 -6v-498q47 -4 137 -4h105q61 0 88 8t29 35l12 109h82q-6 -197 -6 -211l6 -222h-82l-12 103q-8 76 -117 76h-105q-68 0 -137 -7v-383q0 -136 14 -162t84 -32l97 -6v-82q-313 6 -359 6t-299 -6v82l76 6q72 6 85 32t13 162v836q0 137 -14 166t-84 35
l-76 6v76q74 0 181 -4l139 -2q66 0 416 6l108 2q106 0 191 -8l12 -15l-29 -291h-74l-16 154q-6 39 -235 39z" />
    <glyph glyph-name="G" unicode="G" horiz-adv-x="1705" 
d="M1505 422v-334q-313 -123 -598 -123q-362 0 -586 198t-225 554q0 227 116 390t298 240t405 76q330 0 564 -96l12 -22q-18 -66 -47 -314h-80l-10 176q-57 68 -177 105t-253 37q-248 0 -384 -157q-136 -156 -136 -424t142 -458q144 -190 408 -190q125 0 260 51v270
q0 43 -29 59q-30 15 -87 17l-109 4v84l301 -6l299 6v-69q-53 -10 -69 -24t-15 -50z" />
    <glyph glyph-name="H" unicode="H" horiz-adv-x="1705" 
d="M537 1112v-324q61 -4 165 -4h299q104 0 166 4v324q0 137 -13 163t-85 32l-76 6v82q252 -6 319 -6t318 6v-82l-76 -6q-72 -6 -85 -32t-13 -163v-836q0 -136 13 -162t85 -32l76 -6v-82q-252 6 -318 6t-319 -6v82l76 6q72 6 85 32t13 162v390q-61 4 -166 4h-299
q-104 0 -165 -4v-390q0 -136 13 -162t85 -32l76 -6v-82q-252 6 -319 6t-318 -6v82l76 6q72 6 84 32t14 162v836q0 137 -14 163t-84 32l-76 6v82q252 -6 318 -6t319 6v-82l-76 -6q-72 -6 -85 -32t-13 -163z" />
    <glyph glyph-name="I" unicode="I" horiz-adv-x="796" 
d="M543 1112v-836q0 -136 13 -162t85 -32l76 -6v-82q-252 6 -319 6t-318 -6v82l76 6q72 6 85 32t13 162v836q0 137 -13 163t-85 32l-76 6v82q252 -6 318 -6t319 6v-82l-76 -6q-72 -6 -85 -32t-13 -163z" />
    <glyph glyph-name="J" unicode="J" horiz-adv-x="796" 
d="M543 1112v-850q0 -115 -4 -174t-31 -141q-65 -199 -256 -317q-109 -67 -211 -66q-29 0 -64 10v182l23 13q8 -5 26 -19t27 -20q10 -6 32 -20t59 -13q75 0 94 84q16 69 16 182v1149q0 137 -13 163t-85 32l-76 6v82q252 -6 318 -6t319 6v-82l-76 -6q-72 -6 -85 -32t-13 -163
z" />
    <glyph glyph-name="K" unicode="K" horiz-adv-x="1593" 
d="M561 666q-18 0 -18 -19v-371q0 -136 13 -162t85 -32l76 -6v-82q-252 6 -319 6t-318 -6v82l76 6q72 6 85 32t13 162v836q0 137 -13 163t-85 32l-76 6v82q252 -6 318 -6t319 6v-82l-76 -6q-72 -6 -85 -32t-13 -163v-379q0 -12 18 -12l385 377q18 18 160 172q33 35 33 73v52
q184 -6 186 -6t186 6v-80q-137 -12 -186 -41q-20 -12 -39 -29l-455 -424l545 -641q86 -102 187 -102v-84l-207 6l-209 -6l-426 510q-119 143 -156 162h-4z" />
    <glyph glyph-name="L" unicode="L" horiz-adv-x="1251" 
d="M543 1112v-993q129 -6 233 -6t190 11q87 11 89 23l47 209h80l-23 -340l-10 -16q-109 -8 -281 -8t-223 2l-252 6q-18 0 -246 -6v47l66 37q41 23 41 117v917q0 137 -13 163t-85 32l-76 6v82q252 -6 318 -6t319 6v-82l-76 -6q-72 -6 -85 -32t-13 -163z" />
    <glyph glyph-name="M" unicode="M" horiz-adv-x="2048" 
d="M1808 1112v-836q0 -136 14 -162t85 -32l75 -6v-82q-252 6 -318 6t-318 -6v82l75 6q72 6 85 32t14 162v844h-4l-418 -870q-82 -166 -123 -270h-70q-16 49 -74 170l-466 972h-5v-846q0 -138 14 -166t85 -34l76 -6v-76l-234 6q-2 0 -235 -6v76l75 6q70 6 84 35t15 165v836
q0 137 -14 166t-85 35l-75 6v76l245 -6l246 6q4 -10 154 -330l323 -676l375 774q10 20 100 232l236 -6l237 6v-76l-75 -6q-71 -6 -85 -35t-14 -166z" />
    <glyph glyph-name="N" unicode="N" horiz-adv-x="1705" 
d="M246 276v836q0 137 -14 166t-85 35l-75 6v76l245 -6l172 6q23 -29 93 -121t118 -152l639 -745v735q0 137 -14 166t-84 35l-76 6v76q233 -6 236 -6l233 6v-76l-75 -6q-70 -6 -84 -35t-15 -166v-930q0 -23 6 -207l-14 -8l-168 27q-174 197 -250 285l-663 798h-4v-801
q0 -138 14 -166t84 -34l76 -6v-76l-234 6q-2 0 -235 -6v76l75 6q71 6 85 34t14 166z" />
    <glyph glyph-name="O" unicode="O" horiz-adv-x="1705" 
d="M874 1309q-471 0 -471 -592q0 -269 112 -453t319 -184q471 0 471 590q0 270 -112 454t-319 185zM839 -35q-353 -1 -548 185t-195 537t210 543t563 193q353 0 548 -185t195 -536t-210 -544t-563 -193z" />
    <glyph glyph-name="P" unicode="P" horiz-adv-x="1251" 
d="M709 748q102 0 157 76t56 182q0 287 -248 286q-94 0 -131 -18v-998q0 -136 13 -162t85 -32l96 -6v-82q-313 6 -359 6t-298 -6v82l76 6q72 6 85 32t13 162v836q0 137 -14 166t-84 35l-76 6v76l319 -6l416 6h19q383 0 383 -303q1 -199 -135 -319t-339 -120q-34 1 -65 7
t-41 8l-35 71l21 21q60 -12 86 -12z" />
    <glyph glyph-name="Q" unicode="Q" horiz-adv-x="1705" 
d="M874 1309q-471 0 -471 -592q0 -269 112 -453t319 -184q471 0 471 590q0 270 -112 454t-319 185zM633 -209h-21q-57 -2 -180 -90l-22 63q193 156 323 205v4q-303 23 -470 205t-167 521t210 532t563 193t548 -186q195 -185 195 -536t-210 -544t-568 -193q-49 0 -68 2l-4 -4
q141 -27 209 -49l246 -86q131 -45 229 -45q33 0 153 47v-76l-210 -131q-70 1 -148 21l-407 110q-131 37 -201 37z" />
    <glyph glyph-name="R" unicode="R" horiz-adv-x="1478" 
d="M950 1029q0 128 -77 196q-77 67 -185 67t-145 -18v-998q0 -136 13 -162t85 -32l76 -6v-82q-252 6 -319 6t-318 -6v82l76 6q72 6 85 32t13 162v836q0 137 -14 166t-84 35l-76 6v76l344 -6l416 6h18q383 0 383 -303q0 -130 -84 -222t-221 -141l371 -561q20 -31 59 -64
q18 -14 84 -28v-82q-197 6 -199 6l-184 -6l-459 711l15 36l34 -2q129 0 211 81t82 209z" />
    <glyph glyph-name="S" unicode="S" horiz-adv-x="1251" 
d="M147 414h82l15 -181q39 -69 137 -113t184 -44q137 0 230 70q92 71 92 205t-170 186l-287 86q-135 41 -217 131t-82 217q0 231 150 342t373 111t399 -70l10 -25q-29 -92 -29 -291h-84l-12 168q-45 51 -122 82t-150 31q-137 0 -209 -70t-72 -178q0 -143 217 -199l234 -61
q309 -83 309 -367q0 -150 -87 -266q-161 -213 -513 -213q-233 0 -428 94q30 152 30 355z" />
    <glyph glyph-name="T" unicode="T" horiz-adv-x="1366" 
d="M827 1268v-992q-1 -136 13 -162t86 -32l75 -6v-82q-253 6 -319 6t-317 -6v82l75 6q72 6 85 32t14 162v992h-240q-113 0 -128 -20t-17 -48l-11 -141h-82q-6 203 -26 325l12 11l635 -6l637 6l12 -11q-20 -123 -26 -325h-82l-11 141q-2 29 -17 48t-128 20h-240z" />
    <glyph glyph-name="U" unicode="U" horiz-adv-x="1593" 
d="M227 362v750q0 137 -14 166t-84 35l-76 6v76q252 -6 319 -6t318 6v-76l-76 -6q-70 -6 -84 -35t-14 -166v-508q0 -102 4 -162t24 -127t59 -101q91 -81 279 -81t281 84q79 71 93 237q6 66 6 164v494q0 137 -14 166t-85 35l-76 6v76q233 -6 236 -6l233 6v-76l-75 -6
q-70 -6 -84 -35t-15 -166v-598q0 -549 -569 -549q-283 1 -435 109t-151 288z" />
    <glyph glyph-name="V" unicode="V" horiz-adv-x="1593" 
d="M541 1259q0 -29 43 -133l321 -792l291 723q64 159 64 205t-76 51l-94 6v76l237 -6l236 6v-76l-66 -6q-59 -6 -96 -96l-426 -1020q-37 -90 -78 -203h-156l-489 1171q-18 45 -28 65t-39 51q-28 30 -60 32l-84 6v76l319 -6l336 6v-76l-102 -6q-53 -5 -53 -54z" />
    <glyph glyph-name="W" unicode="W" horiz-adv-x="2048" 
d="M1747 1273q0 36 -72 40l-94 6v76l221 -6l221 6v-76l-67 -6q-49 -6 -88 -142l-250 -884q-2 -10 -68 -293h-149q-27 84 -78 215l-305 768l-318 -727q-22 -50 -56 -146t-40 -110h-143l-285 1233q-18 80 -76 86l-65 6v76l319 -6l275 6v-76l-86 -6q-21 -3 -41 -17t-20 -34
t5 -54l166 -778h4l306 721q60 154 104 254h92q53 -154 101 -272l278 -697h4l197 768q8 33 8 69z" />
    <glyph glyph-name="X" unicode="X" horiz-adv-x="1366" 
d="M35 0v70l63 6q43 4 68 37l407 534l-192 340q-94 168 -180 254q-35 35 -67 35t-79 -12l-10 84l375 75q74 -53 149 -186l195 -346l338 498h227v-70l-57 -6q-30 -2 -71 -38q-7 -7 -27 -36l-349 -459l326 -563l16 -33q19 -31 25 -39l27 -36t61 -33l51 -6v-76l-194 6l-197 -6
l-305 545l-287 -412q-6 -8 -74 -127h-239z" />
    <glyph glyph-name="Y" unicode="Y" horiz-adv-x="1366" 
d="M1352 1389v-39l-361 -535q-51 -78 -108 -205v-334q0 -136 13 -162t85 -32l76 -6v-82q-252 6 -319 6t-318 -6v82l76 6q72 6 85 32t13 162v285q-43 100 -90 174l-207 334q-41 63 -105 134t-161 71v76l325 73q76 -43 128 -111t106 -167l219 -416l385 660h158z" />
    <glyph glyph-name="Z" unicode="Z" horiz-adv-x="1366" 
d="M1006 117q150 0 165 80l31 159h82q-29 -162 -33 -362q-297 6 -568 6t-634 -6v78q133 168 213 284l627 914h-455q-108 0 -138 -16t-40 -78l-16 -113h-76v332l557 -6l555 6v-72q-84 -98 -170 -225l-666 -981h566z" />
    <glyph glyph-name="bracketleft" unicode="[" horiz-adv-x="681" 
d="M596 1397h-100q-47 0 -87 -23t-40 -59q-7 -682 -7 -684t7 -684q0 -37 40 -60t87 -22h100v-78l-201 6l-245 -6q14 490 14 837t-14 851l245 -7l201 7v-78z" />
    <glyph glyph-name="backslash" unicode="\" horiz-adv-x="1241" 
d="M147 1475h185l762 -1475h-185z" />
    <glyph glyph-name="bracketright" unicode="]" horiz-adv-x="681" 
d="M86 -135h100q47 1 87 23t40 59q6 682 6 684t-6 684q0 37 -40 59t-87 23h-100v78l201 -7l245 7q-14 -504 -14 -840l14 -848l-245 6l-201 -6v78z" />
    <glyph glyph-name="asciicircum" unicode="^" horiz-adv-x="1241" 
d="M301 563h-195l422 826h185l422 -826h-195l-319 602z" />
    <glyph glyph-name="underscore" unicode="_" 
d="M0 -154h1024v-102h-1024v102z" />
    <glyph glyph-name="grave" unicode="`" horiz-adv-x="681" 
d="M37 1329q0 35 23 61q24 26 66 26t70 -19q28 -18 64 -58l264 -303h-114l-269 166q-63 31 -94 78q-10 14 -10 49z" />
    <glyph glyph-name="a" unicode="a" 
d="M332 259q0 -54 30 -85t77 -31q45 0 99 31t74 62v241l-92 -24q-90 -24 -133 -54q-55 -35 -55 -140zM294 -35q-96 0 -154 69t-58 181q0 154 91 215t259 96l180 37q0 242 -213 242q-33 0 -71 -8t-43 -21l-45 -102l-62 14v141l109 66q115 70 249 70t230 -70t96 -217v-12
l-6 -252q0 -2 6 -254q4 -78 56 -84l61 -6v-76l-180 6l-187 -6l-10 16l10 127l-190 -147q-32 -25 -128 -25z" />
    <glyph glyph-name="b" unicode="b" horiz-adv-x="1251" 
d="M641 104q88 0 145 60t76 136q18 74 18 186t-62 203q-64 91 -193 91q-57 0 -111 -28t-82 -74v-461q74 -113 209 -113zM770 965q162 0 265 -109t103 -264t-58 -273t-228 -229q-6 -4 -32 -21t-34 -23q-119 -81 -219 -81q-145 0 -278 76l-80 -66l-45 17q18 141 18 340v831
q0 90 -8 116t-45 28l-109 6v73q162 18 248 44l148 45l16 -13v-678l125 101q100 80 213 80z" />
    <glyph glyph-name="c" unicode="c" horiz-adv-x="909" 
d="M330 530q0 -178 81 -299t251 -120q78 0 167 39l19 -21l-43 -94q-123 -70 -266 -70q-231 0 -348 132q-116 132 -115 354q0 67 6 107q17 114 104 199q53 50 138 101l106 64q72 43 178 43t217 -41l15 -27q-25 -119 -41 -289h-74l-14 123q-3 41 -61 65t-115 23
q-205 0 -205 -289z" />
    <glyph glyph-name="d" unicode="d" horiz-adv-x="1251" 
d="M791 328v377q-91 129 -223 129t-178 -90t-46 -202q0 -114 20 -188t75 -134q57 -60 139 -60t148 46t65 122zM465 -35q-176 0 -278 136q-101 137 -101 305t40 258t132 151l148 96q82 53 160 53t184 -34l41 -17v250q-1 90 -9 116t-45 28l-108 6v73q162 18 248 44l147 45
l16 -13v-1257q0 -69 8 -97t66 -34l68 -4v-76l-228 6l-163 -6l-11 16l11 154l-213 -174q-29 -25 -113 -25z" />
    <glyph glyph-name="e" unicode="e" 
d="M516 850q-176 0 -176 -285l172 -6l172 6q0 285 -168 285zM621 457h-269q0 -154 85 -250t241 -96q100 0 221 71l25 -30l-45 -99q-166 -88 -328 -88q-223 0 -344 126t-121 347q0 150 38 251t157 171l96 58q78 47 168 47q178 1 289 -93t110 -268v-106q-147 -41 -323 -41z
" />
    <glyph glyph-name="f" unicode="f" horiz-adv-x="796" 
d="M240 981q0 123 18 170t94 111l152 127q66 55 106 70t83 15q44 0 87 -12v-198l-32 -15q-78 49 -122 49q-78 0 -108 -34q-29 -34 -29 -154v-221q104 0 269 8l8 -16l-23 -119h-254v-557q-1 -71 9 -99t94 -32l92 -4v-76l-326 6l-288 -6v76l84 4q68 4 76 33t10 98v557
l-162 -10v49q92 43 162 92v88z" />
    <glyph glyph-name="g" unicode="g" horiz-adv-x="1138" 
d="M553 -442q119 0 217 66t98 171q0 106 -54 140t-220 34t-219 -14q-53 -13 -91 -65t-38 -117q0 -115 94 -165t213 -50zM684 610q0 252 -168 252t-168 -219q0 -100 39 -176t131 -76q166 0 166 219zM1096 -78q0 -156 -89 -264q-166 -202 -507 -203q-113 0 -206 24
q-93 25 -167 95t-74 182q0 76 53 117l166 98q-139 31 -139 129q0 74 35 107l145 110q-96 27 -156 103t-61 174q0 168 137 278q115 92 314 92t305 -87q86 -9 242 8l-11 -131l-157 8q10 -43 10 -119q0 -160 -134 -253t-304 -93q-45 0 -90 4q-59 -33 -60 -82q0 -59 94 -59
l365 8q289 0 289 -246z" />
    <glyph glyph-name="h" unicode="h" horiz-adv-x="1251" 
d="M811 551q0 137 -50 187t-157 50q-61 0 -110 -46t-50 -93v-444q0 -69 8 -97t66 -34l72 -4v-76q-264 6 -277 6l-264 -6v76l72 4q57 6 65 34t9 97v958q-1 90 -9 116t-45 28l-92 6v73q156 20 232 44l147 45l16 -13v-663l164 127q51 39 174 39t203 -82q47 -51 61 -120t15 -177
v-381q0 -69 8 -97t66 -34l67 -4v-76l-201 6q-18 0 -190 -6v557z" />
    <glyph glyph-name="i" unicode="i" horiz-adv-x="681" 
d="M332 1446q66 0 110 -44t43 -108q0 -64 -46 -110q-46 -45 -107 -45t-108 45q-46 46 -46 110t44 108t110 44zM215 205v448q0 90 -8 116t-45 28l-92 6v74q166 23 231 43l143 45l21 -13v-747q0 -69 8 -97t66 -34l71 -4v-76q-264 6 -276 6l-264 -6v76l71 4q57 6 65 34t9 97z
" />
    <glyph glyph-name="j" unicode="j" horiz-adv-x="681" 
d="M340 1446q66 0 110 -44t44 -108t-46 -110q-46 -45 -108 -45q-61 0 -108 45q-46 46 -46 110t44 108t110 44zM215 -78v731q0 90 -8 116t-45 28l-92 6v74q166 23 231 43l143 45l21 -13v-751q0 -229 -23 -359t-96 -231q-117 -156 -246 -156q-25 0 -73 4l-21 72l8 12h47
q88 0 119 90q35 105 35 289z" />
    <glyph glyph-name="k" unicode="k" horiz-adv-x="1251" 
d="M205 205v958q0 90 -8 116t-45 28l-109 6v73q162 18 248 44l147 45l17 -13v-952q141 121 217 199l219 231h266v-78h-63q-49 0 -99 -37l-127 -92q-49 -37 -159 -147l401 -451q51 -61 113 -65v-70h-353q-59 80 -178 217l-217 246h-20v-258q0 -69 8 -97t65 -34l72 -4v-76
q-264 6 -276 6l-265 -6v76l72 4q57 6 65 34t9 97z" />
    <glyph glyph-name="l" unicode="l" horiz-adv-x="681" 
d="M461 205q0 -69 8 -97t66 -34l71 -4v-76q-264 6 -276 6l-264 -6v76l71 4q57 6 65 34t9 97v958q0 90 -8 116t-45 28l-109 6v73q162 18 248 44l147 45l17 -13v-1257z" />
    <glyph glyph-name="m" unicode="m" horiz-adv-x="1820" 
d="M1378 551q0 137 -50 187t-122 50t-120 -46q-50 -46 -50 -93v-444q0 -69 8 -97t66 -34l72 -4v-76q-264 6 -278 6t-255 -6v76l64 4q55 2 64 32t9 99v346q0 137 -50 187t-122 50t-120 -46q-49 -46 -50 -93v-444q0 -69 8 -97t66 -34l55 -4v-76q-215 6 -260 6l-264 -6v76l72 4
q57 6 65 34t9 97v448q-1 90 -9 116t-45 28l-92 6v74q127 0 259 48q97 26 124 40l12 -13v-153l164 127q50 39 150 39q209 0 266 -166l164 127q51 39 155 39q161 0 223 -86t62 -293v-381q0 -69 8 -97t66 -34l67 -4v-76l-200 6l-191 -6v557z" />
    <glyph glyph-name="n" unicode="n" horiz-adv-x="1251" 
d="M811 553q0 135 -50 185t-157 50q-61 0 -110 -46t-50 -93v-444q0 -69 8 -97t66 -34l72 -4v-76q-264 6 -277 6l-264 -6v76l72 4q57 6 65 34t9 97v448q-1 90 -9 116t-45 28l-92 6v74q127 0 259 48q97 26 124 40l12 -13v-153l164 127q51 39 174 39t203 -82q47 -51 61 -120
t15 -177v-381q0 -69 8 -97t66 -34l67 -4v-76l-201 6q-18 0 -190 -6v559z" />
    <glyph glyph-name="o" unicode="o" horiz-adv-x="1138" 
d="M586 63q194 0 194 332t-93 423q-49 48 -113 48t-104 -24t-60 -59q-46 -79 -50 -273q1 -447 226 -447zM578 965q238 0 360 -124q121 -124 121 -365t-133 -376q-132 -135 -372 -135t-356 134t-116 368t129 366t367 132z" />
    <glyph glyph-name="p" unicode="p" horiz-adv-x="1251" 
d="M664 104q88 0 145 60t76 136q18 74 18 186t-63 203t-193 91q-57 0 -111 -28t-81 -74v-461q74 -113 209 -113zM205 -317v970q0 90 -8 116t-45 28l-93 6v74q166 23 232 43l143 45l21 -13v-168l125 101q100 80 213 80q162 0 265 -109t103 -272q0 -117 -47 -238t-149 -199
q-150 -113 -160 -118q-100 -63 -167 -63t-183 34v-317q0 -70 9 -100t64 -32l93 -4v-75l-297 6l-265 -6v75l72 4q57 6 65 34t9 98z" />
    <glyph glyph-name="q" unicode="q" horiz-adv-x="1251" 
d="M811 328v377q-90 129 -222 129t-178 -90t-46 -202q0 -114 19 -188q20 -74 76 -134t138 -60t148 46t65 122zM811 -317v471l-197 -158q-37 -31 -122 -31q-186 0 -286 131q-99 131 -100 324q0 125 32 213t112 146q80 57 208 121t213 64t228 -69l45 -23l107 86l43 -28
q-33 -164 -33 -266v-981q0 -70 8 -98t66 -34l71 -4v-75q-264 6 -276 6l-264 -6v75l71 4q57 6 65 34t9 98z" />
    <glyph glyph-name="r" unicode="r" horiz-adv-x="796" 
d="M207 205v448q0 90 -8 116t-45 28l-93 6v74q166 23 232 43l143 45l21 -13v-194l90 98q53 57 88 83t85 26t77 -13l-11 -264l-49 -20q-37 74 -121 73q-57 0 -108 -43t-51 -88v-405q0 -71 9 -99t89 -32l80 -4v-76l-309 6l-265 -6v76l72 4q57 6 65 34t9 97z" />
    <glyph glyph-name="s" unicode="s" horiz-adv-x="909" 
d="M289 733q1 -49 27 -76t85 -39l168 -36q133 -29 197 -89t63 -180q0 -168 -128 -258t-296 -90t-325 58l14 288h80l10 -141q82 -106 242 -107q74 0 125 41q51 42 51 108t-32 94t-97 44l-176 43q-217 53 -217 252q0 166 115 243t292 77t271 -47l-17 -250h-73l-21 118
q-6 31 -61 56t-107 24q-190 0 -190 -133z" />
    <glyph glyph-name="t" unicode="t" horiz-adv-x="681" 
d="M176 225v531l-131 -8v45l135 88v123q0 61 -8 188q137 49 250 102l29 -20q-25 -123 -25 -279v-118l233 12l-16 -133h-217v-488q0 -76 29 -104t84 -29q55 0 108 27l17 -39l-101 -121q-29 -37 -147 -37q-118 1 -178 61q-62 60 -62 199z" />
    <glyph glyph-name="u" unicode="u" horiz-adv-x="1251" 
d="M516 -35q-319 0 -319 322v366q-1 90 -9 116t-45 28l-92 6v74q166 23 232 43l143 45l20 -13v-534q0 -200 74 -247q35 -22 92 -21q106 0 172 104q18 29 19 80v319q0 90 -8 116t-45 28l-93 6v74q166 23 232 43l143 45l21 -13v-747q0 -69 8 -97t65 -34l68 -4v-76l-227 6
q-51 0 -174 -6l10 170l-156 -152q-47 -47 -131 -47z" />
    <glyph glyph-name="v" unicode="v" horiz-adv-x="1138" 
d="M422 822q0 -32 29 -103l180 -453q43 90 71 164l125 309q35 89 3 109q-16 10 -31 10l-78 4v78q197 -6 199 -6l196 6v-78l-61 -10q-49 -8 -74 -70l-262 -589q-29 -63 -78 -199h-176l-293 737q-51 123 -98 127l-51 4v78q264 -6 266 -6l264 6v-78l-84 -4q-47 -4 -47 -36z" />
    <glyph glyph-name="w" unicode="w" horiz-adv-x="1705" 
d="M1411 813q0 41 -59 45l-86 4v78l207 -6l206 6v-78l-69 -4q-39 -2 -74 -96l-188 -533q-60 -191 -72 -235h-166l-270 629l-176 -365q-30 -65 -61 -150t-44 -114h-162l-219 786q-20 74 -84 78l-67 4v78q276 -6 278 -6l277 6v-78l-97 -4q-14 0 -32 -16t-2 -68l118 -459h4
q18 41 58 124q39 83 57 126l178 400h103l282 -650q53 145 80 230l74 231q6 23 6 37z" />
    <glyph glyph-name="x" unicode="x" 
d="M989 940v-76q-57 0 -87 -18t-73 -70l-198 -233l182 -312q47 -79 87 -119t89 -42v-76l-158 6l-159 -6l-205 346l-131 -180q-23 -31 -107 -160h-186v70q86 6 141 73l226 287l-164 279q-41 71 -76 95t-82 23l-31 -2l-16 74q152 27 299 66q59 -45 127 -158l106 -174l222 307
h194z" />
    <glyph glyph-name="y" unicode="y" horiz-adv-x="1138" 
d="M207 -545q-68 0 -144 35l37 195l23 8q63 -76 147 -76q55 0 104 54q48 54 81 132l47 115l-324 827q-43 111 -86 113l-72 4v78q270 -6 273 -6l270 6v-78l-71 -4q-53 -4 -54 -47q0 -21 35 -109l172 -446l207 516q8 23 8 47q0 35 -55 39l-68 4v78l191 -6l190 6v-78l-53 -10
q-47 -10 -84 -96l-408 -949q-23 -49 -31 -69t-47 -86q-38 -66 -72 -100t-91 -65q-57 -32 -125 -32z" />
    <glyph glyph-name="z" unicode="z" 
d="M352 827q-88 1 -116 -23t-39 -97l-7 -52h-77l6 275l14 10q461 -10 525 -10t272 10v-72l-549 -755h334q77 -1 103 27t40 114l10 63h82q-25 -168 -24 -313l-11 -10l-583 6q-41 0 -299 -6v67q170 219 213 279l348 487h-242z" />
    <glyph glyph-name="braceleft" unicode="{" horiz-adv-x="634" 
d="M197 848v364q0 140 73 208q56 51 192 62q48 3 128 3v-4q-111 -29 -153 -78t-42 -162v-362q0 -115 -40 -174t-160 -84v-5q123 -25 161 -87t39 -183v-342q0 -113 42 -162t153 -78v-4q-248 0 -321 66t-72 207v356q0 113 -37 156t-150 71v5q113 29 150 71t37 156z" />
    <glyph glyph-name="bar" unicode="|" horiz-adv-x="1241" 
d="M532 1536h177v-2048h-177v2048z" />
    <glyph glyph-name="braceright" unicode="}" horiz-adv-x="634" 
d="M438 1212v-364q0 -113 37 -156t150 -71v-5q-113 -30 -150 -72t-37 -155v-356q0 -140 -73 -208q-56 -51 -192 -62q-48 -3 -128 -3v4q111 29 153 78t42 162v342q0 121 39 183t161 87v5q-120 25 -160 84t-40 174v362q0 113 -42 162t-153 78v4q248 0 321 -65q72 -66 72 -208z
" />
    <glyph glyph-name="asciitilde" unicode="~" horiz-adv-x="1241" 
d="M392 498q-78 0 -152 -117q-10 -16 -37 -64l-99 113q61 110 130 178t157 68t248 -71t207 -70q102 -1 192 165l99 -112q-59 -104 -128 -168t-154 -64t-182 44q-98 44 -106 48q-8 2 -42 17q-78 33 -133 33z" />
    <glyph glyph-name="uni00A0" unicode="&#xa0;" horiz-adv-x="512" 
 />
    <glyph glyph-name="exclamdown" unicode="&#xa1;" horiz-adv-x="569" 
d="M281 965q63 1 111 -49t48 -112t-48 -110t-111 -49q-63 0 -112 46q-48 46 -48 111q1 65 49 114t111 49zM131 -465q0 96 14 197l103 762l78 43l10 -17l96 -733q4 -33 8 -162l-204 -90h-105z" />
    <glyph glyph-name="cent" unicode="&#xa2;" 
d="M825 1135l-51 -166q92 -20 129 -41l10 -19q-29 -125 -36 -303h-78l-13 123q-2 23 -22 43t-41 25l-186 -619q72 -66 182 -66t184 42l19 -23l-43 -96l-9 -8q-127 -61 -258 -62q-39 0 -141 12l-65 -194h-87l74 217q-244 109 -243 430q0 162 61 277q27 51 129 114l106 68
q137 86 242 86l53 160h84zM604 821q-203 0 -203 -289q0 -149 70 -278l170 565q-12 2 -37 2z" />
    <glyph glyph-name="sterling" unicode="&#xa3;" 
d="M33 743h184v88q0 250 270 431q83 55 175 89t149 33q115 0 172 -55l-20 -278h-64l-6 71q-4 57 -48 92t-115 35q-142 0 -184 -97q-35 -76 -46 -204l-17 -205h344v-88h-354q-49 -281 -227 -458l4 -4q122 37 184 37t201 -21t213 -21t86 62l22 115h70l-20 -367
q-76 -31 -172 -31h-15q-145 4 -311 51t-279 48q-39 0 -96 -48t-96 -57l-41 121l131 106q66 53 74 144q16 174 16 323h-184v88z" />
    <glyph glyph-name="currency" unicode="&#xa4;" 
d="M514 365q113 1 193 83q79 82 79 194t-79 193q-80 81 -193 81t-195 -82q-81 -80 -81 -194t81 -195q82 -80 195 -80zM80 646q0 159 86 245l-100 100l96 96l98 -98q98 84 250 84t250 -82l98 101l100 -101l-94 -98q80 -90 80 -248t-82 -258l94 -98l-92 -92l-96 100
q-94 -88 -255 -88t-257 86l-98 -98l-92 92l100 100q-86 98 -86 257z" />
    <glyph glyph-name="yen" unicode="&#xa5;" 
d="M440 276v146h-305v82h305v82q0 27 -49 114h-256v82h221l-129 287q-33 69 -77 137t-115 68v76l235 73q82 -66 168 -278l164 -416l272 660h115v-39l-276 -568h241v-82h-274q-31 -61 -31 -118v-78h305v-82h-305v-146q0 -136 8 -162t64 -32l53 -6v-82q-172 6 -223 6t-236 -6
v82l54 6q55 6 63 32t8 162z" />
    <glyph glyph-name="brokenbar" unicode="&#xa6;" horiz-adv-x="1241" 
d="M532 358h177v-716h-177v716zM532 1382h177v-716h-177v716z" />
    <glyph glyph-name="section" unicode="&#xa7;" 
d="M213 575q0 -90 125 -145t143 -61l273 -101q59 72 59 128q0 106 -72 155t-163 78l-293 98q-72 -80 -72 -152zM685 -250q83 68 83 155t-87 138q-60 36 -121 56q-62 20 -68 22l-125 41q-143 47 -225 113q-81 67 -81 194q0 86 27 139t94 117l39 37q-96 74 -96 207
q0 84 45 177q44 94 104 152t151 92t171 33q141 0 272 -67q-22 -100 -34 -301h-78v20q0 100 -15 144q-23 31 -89 47t-115 16q-101 0 -185 -49t-84 -142t94 -145q55 -29 164 -61l109 -33q184 -46 234 -96q68 -62 82 -112q13 -50 13 -126t-32 -138q-33 -64 -113 -144
q113 -78 113 -228q0 -92 -49 -180t-127 -152q-145 -120 -335 -120t-321 92q6 47 29 317h80l-2 -35q0 -82 18 -137q41 -55 117 -84t168 -29q92 2 175 70z" />
    <glyph glyph-name="dieresis" unicode="&#xa8;" horiz-adv-x="681" 
d="M561 1413q57 0 97 -40t40 -97t-40 -97t-97 -40t-97 40t-40 97t40 97t97 40zM121 1413q57 0 97 -40t40 -97t-40 -97t-97 -40t-97 40t-40 97t40 97t97 40z" />
    <glyph glyph-name="copyright" unicode="&#xa9;" horiz-adv-x="1529" 
d="M1063 825h-66q-12 87 -62 143t-134 56q-117 0 -179 -91t-62 -222t65 -241q66 -110 196 -110q59 0 113 27t84 76l16 29l53 -23q-37 -90 -129 -139t-196 -49q-170 0 -274 113q-103 114 -103 292t111 294t288 116q52 0 148 -22t131 -36v-213zM1360 695q0 255 -174 435
t-423 179q-249 1 -422 -179t-173 -435t174 -435t421 -180t422 180t175 435zM763 1423q294 0 503 -214t209 -516t-209 -515t-503 -213t-502 213t-208 515t208 516t502 214z" />
    <glyph glyph-name="ordfeminine" unicode="&#xaa;" horiz-adv-x="897" 
d="M391 858q29 0 63 18t48 37v146l-60 -15q-98 -24 -114 -64q-8 -19 -9 -48q0 -74 72 -74zM296 752q-62 0 -100 41t-38 121t57 116q57 35 170 60l117 20q0 145 -140 145q-68 0 -73 -16l-29 -61l-45 8v80l158 75q20 10 63 11q227 0 228 -181v-303q0 -47 36 -49l39 -4v-45
l-116 2l-121 -2l-6 8l6 78l-123 -90q-20 -14 -83 -14z" />
    <glyph glyph-name="guillemotleft" unicode="&#xab;" 
d="M893 897l55 -45l-225 -354l225 -367l-55 -41q-262 266 -406 383v51q275 240 406 373zM479 897l56 -45l-226 -354l226 -367l-56 -41q-262 266 -405 383v51q274 240 405 373z" />
    <glyph glyph-name="logicalnot" unicode="&#xac;" horiz-adv-x="1241" 
d="M961 233v402h-857v176h1033v-578h-176z" />
    <glyph glyph-name="uni00AD" unicode="&#xad;" horiz-adv-x="681" 
d="M102 625h529l18 -21q-51 -119 -65 -205h-535l-16 17q7 24 35 102t34 107z" />
    <glyph glyph-name="registered" unicode="&#xae;" horiz-adv-x="1529" 
d="M725 727q182 0 182 170q0 80 -41 122t-114 42h-11l-43 -2q-35 -2 -34 -55v-275l38 -2h23zM664 678v-250q0 -35 10 -47t43 -14l35 -2v-41h-320v41h29q39 0 50 9t11 46v584q0 39 -9 49t-48 10h-31v43h350q128 0 174 -29t70 -73t23 -89q-1 -86 -57 -141t-142 -67v-5
q39 -6 73 -40t47 -61t49 -103q37 -76 57 -105t63 -28v-41h-140q-39 0 -61 30t-74 150q-52 118 -74 146t-77 28h-51zM1360 695q0 255 -174 435t-423 179q-249 1 -422 -179t-173 -435t174 -435t421 -180t422 180t175 435zM763 1423q294 0 503 -214t209 -516t-209 -515
t-503 -213t-502 213t-208 515t208 516t502 214z" />
    <glyph glyph-name="macron" unicode="&#xaf;" horiz-adv-x="681" 
d="M680 1102h-678v145h678v-145z" />
    <glyph glyph-name="degree" unicode="&#xb0;" horiz-adv-x="819" 
d="M592 1044q0 76 -54 130t-129 53q-75 0 -128 -52t-54 -126v-5q-1 -76 53 -129t130 -53t129 53t53 129zM410 1352q127 0 217 -90t90 -218t-90 -217q-90 -90 -217 -90t-217 90t-91 217v5q0 125 90 214t218 89z" />
    <glyph glyph-name="plusminus" unicode="&#xb1;" horiz-adv-x="1241" 
d="M104 0v176h1033v-176h-1033zM532 733v301h177v-301h428v-176h-428v-301h-177v301h-428v176h428z" />
    <glyph glyph-name="two.superior" unicode="&#xb2;" horiz-adv-x="614" 
d="M284 1352q116 0 198 -60q81 -60 81 -159q0 -131 -137 -256l-197 -185v-16l365 18l10 -10q-2 -27 -2 -77t2 -72q-258 4 -301 4t-293 -4v75l221 207q143 135 144 260q0 63 -38 99t-94 36t-83 -18t-41 -66l-21 -67l-57 8l25 207q102 76 218 76z" />
    <glyph glyph-name="three.superior" unicode="&#xb3;" horiz-adv-x="614" 
d="M432 771q0 65 -45 107t-121 42q-37 0 -82 -11l-10 6l27 91h45q66 0 108 34t43 90q0 112 -127 111q-127 0 -157 -119h-54l41 189q98 55 202 55t174 -48q69 -48 69 -124q0 -117 -146 -178v-4q87 -4 143 -51t56 -127q0 -132 -115 -216t-239 -84t-193 29q-2 19 -33 185l45 10
q68 -147 205 -148q68 0 116 48t48 113z" />
    <glyph glyph-name="acute" unicode="&#xb4;" horiz-adv-x="681" 
d="M558 1415q42 1 66 -25q42 -45 9 -119q-5 -9 -21 -21t-19 -16t-25 -18t-25 -14l-269 -166h-114l264 303q36 39 64 57t70 19z" />
    <glyph glyph-name="mu" unicode="&#xb5;" horiz-adv-x="1251" 
d="M1200 57q-152 -7 -371 -88l-32 27l8 168l-139 -135q-46 -47 -112 -47t-105 24t-78 96q14 -268 14 -338t-9 -95q-20 -53 -113 -85q-50 -16 -79 -16q-57 0 -57 63q0 16 36 216t36 483v344q0 48 -2 70q-4 47 -52 53l-92 6v74q166 23 232 43l143 45l21 -13v-534
q0 -118 19 -171q19 -54 54 -76t92 -21q106 0 172 104q18 29 19 80v319q0 90 -8 116t-45 28l-93 6v74q166 23 232 43l143 45l21 -13v-671q0 -90 8 -116t45 -28l92 -6v-74z" />
    <glyph glyph-name="paragraph" unicode="&#xb6;" horiz-adv-x="1312" 
d="M545 1300q-88 0 -163 -64t-75 -182q1 -118 77 -197t189 -97v538q-8 2 -28 2zM872 1298h-118v-1525h118v1525zM1227 1311h-97q-45 0 -61 -37t-16 -121v-1264q0 -69 9 -99t64 -32l101 -4v-84q-412 6 -414 6t-414 -6v84l101 4q55 2 64 32t9 99v775q-109 0 -227 44t-213 145
q-94 101 -94 232t115 223t303 91h37l184 -8l182 -2l367 6v-84z" />
    <glyph glyph-name="periodcentered" unicode="&#xb7;" horiz-adv-x="512" 
d="M256 686q64 0 112 -49t48 -111t-48 -111q-48 -48 -112 -48t-112 46q-48 47 -48 111t48 113q49 49 112 49z" />
    <glyph glyph-name="cedilla" unicode="&#xb8;" horiz-adv-x="681" 
d="M614 -278q0 -182 -304 -183q-66 0 -160 37l32 76q82 -18 135 -19q104 0 105 76q0 72 -86 72q-33 0 -66 -8l-20 16l88 197h84l-57 -131q51 12 88 12q85 0 123 -43q38 -42 38 -102z" />
    <glyph glyph-name="one.superior" unicode="&#xb9;" horiz-adv-x="614" 
d="M246 692v482q0 47 -13 47q-6 0 -8 -2l-178 -80q-18 61 -18 88v10q102 25 405 125l17 -10l-15 -185v-475q0 -88 76 -92l76 -4v-61l-236 4l-270 -4v61l86 4q78 4 78 92z" />
    <glyph glyph-name="ordmasculine" unicode="&#xba;" horiz-adv-x="999" 
d="M510 811q127 0 127 203q0 279 -141 278q-133 0 -134 -213q1 -268 148 -268zM505 1352q155 0 233 -75t79 -219q0 -144 -87 -224q-86 -82 -242 -82t-231 81t-75 220t84 219t239 80z" />
    <glyph glyph-name="guillemotright" unicode="&#xbb;" 
d="M489 852l56 45q131 -133 405 -373v-51q-143 -117 -405 -383l-56 41l226 367zM76 852l55 45q131 -133 406 -373v-51q-143 -117 -406 -383l-55 41l225 367z" />
    <glyph glyph-name="onequarter" unicode="&#xbc;" horiz-adv-x="1536" 
d="M526 0h-141l825 1352h142zM256 692v482q0 47 -9 47t-11 -2l-179 -80q-18 61 -18 88v10q102 25 405 125l17 -10q-13 -102 -15 -185v-475q0 -88 76 -92l76 -4v-61l-236 4l-270 -4v61l86 4q78 4 78 92zM1219 154v49h-318l-8 47q53 121 63 139l160 264q39 66 103 140l155 32
l17 -14v-500h110v-108h-110v-49q0 -84 75 -93l39 -4v-61q-172 4 -200 4l-240 -4v61l78 4q76 4 76 93zM1219 311v357h-7l-211 -357h218z" />
    <glyph glyph-name="onehalf" unicode="&#xbd;" horiz-adv-x="1536" 
d="M459 0h-142l826 1352h141zM1296 539q0 63 -38 99t-94 36t-83 -18t-41 -66l-20 -68l-57 8l24 207q102 76 219 76t198 -59t81 -160q0 -131 -137 -256l-197 -184v-17l365 19l10 -11q-2 -27 -2 -77t2 -72q-258 4 -301 4t-293 -4v76l221 207q143 135 143 260zM236 692v482
q0 47 -13 47q-6 0 -8 -2l-178 -80q-18 61 -19 88v10q102 25 406 125l16 -10q-14 -112 -14 -185v-475q0 -88 76 -92l76 -4v-61l-236 4l-270 -4v61l86 4q78 4 78 92z" />
    <glyph glyph-name="threequarters" unicode="&#xbe;" horiz-adv-x="1536" 
d="M444 771q0 65 -45 107t-101 42t-101 -11l-11 6l27 91h45q66 0 109 34t43 90q0 112 -128 111q-128 0 -157 -119h-53l41 189q98 55 202 55t173 -48t69 -124q0 -117 -145 -178v-4q88 -4 143 -51t55 -127q0 -132 -115 -216t-239 -84t-193 29q-1 19 -32 185l45 10
q68 -147 205 -148q67 0 115 48t48 113zM469 0h-141l825 1352h141zM1219 154v49h-318l-8 47q53 121 63 139l160 264q39 66 103 140l155 32l17 -14v-500h110v-108h-110v-49q0 -84 75 -93l39 -4v-61q-172 4 -200 4l-240 -4v61l78 4q76 4 76 93zM1219 311v357h-7l-211 -357h218z
" />
    <glyph glyph-name="questiondown" unicode="&#xbf;" horiz-adv-x="909" 
d="M512 965q64 1 112 -49t48 -112t-48 -110t-112 -49q-64 0 -112 46t-48 111t48 114t112 49zM500 444q0 30 -23 76l70 29q53 -61 53 -159t-156 -277q-102 -121 -102 -206t55 -134t133 -49q133 0 156 47l64 145l71 -18q-59 -180 -65 -273q-135 -98 -299 -98t-277 80t-112 233
q0 98 32 156t113 127l158 131q129 106 129 190z" />
    <glyph glyph-name="Agrave" unicode="&#xc0;" horiz-adv-x="1593" 
d="M477 1788q0 34 24 60q23 26 65 26t70 -18t64 -58l265 -303h-115l-268 166q-60 30 -94 78q-10 14 -11 49zM700 1057l-204 -520h417zM1065 135q0 23 -12 53l-92 234h-515l-86 -229q-10 -31 -10 -56t18 -42t42 -19l102 -6v-76l-231 6l-232 -6v76l62 6q68 8 114 123l371 897
l117 309h145l531 -1239q35 -80 112 -90l49 -6v-76l-317 6l-318 -6v76l109 6q41 4 41 59z" />
    <glyph glyph-name="Aacute" unicode="&#xc1;" horiz-adv-x="1593" 
d="M1104 1795q0 -27 -8 -50t-25 -36q-18 -13 -21 -16t-26 -17t-25 -15l-268 -166h-115l265 303q37 39 65 57q28 19 69 19t65 -26t24 -53zM700 1057l-204 -520h417zM1065 135q0 23 -12 53l-92 234h-515l-86 -229q-10 -31 -10 -56t18 -42t42 -19l102 -6v-76l-231 6l-232 -6v76
l62 6q68 8 114 123l371 897l117 309h145l531 -1239q35 -80 112 -90l49 -6v-76l-317 6l-318 -6v76l109 6q41 4 41 59z" />
    <glyph glyph-name="Acircumflex" unicode="&#xc2;" horiz-adv-x="1593" 
d="M676 1853h190l252 -358h-117l-229 201l-231 -201h-113zM700 1057l-204 -520h417zM1065 135q0 23 -12 53l-92 234h-515l-86 -229q-10 -31 -10 -56t18 -42t42 -19l102 -6v-76l-231 6l-232 -6v76l62 6q68 8 114 123l371 897l117 309h145l531 -1239q35 -80 112 -90l49 -6v-76
l-317 6l-318 -6v76l109 6q41 4 41 59z" />
    <glyph glyph-name="Atilde" unicode="&#xc3;" horiz-adv-x="1593" 
d="M924 1554q-60 0 -164 50t-158 51q-70 0 -96 -99h-82q2 78 64 167t178 89q57 0 159 -49q103 -49 143 -49t62 16t28 30q7 13 25 52h88q-61 -258 -247 -258zM700 1057l-204 -520h417zM1065 135q0 23 -12 53l-92 234h-515l-86 -229q-10 -31 -10 -56t18 -42t42 -19l102 -6v-76
l-231 6l-232 -6v76l62 6q68 8 114 123l371 897l117 309h145l531 -1239q35 -80 112 -90l49 -6v-76l-317 6l-318 -6v76l109 6q41 4 41 59z" />
    <glyph glyph-name="Adieresis" unicode="&#xc4;" horiz-adv-x="1593" 
d="M1018 1833q57 0 97 -40t40 -97q0 -58 -40 -98t-97 -40t-97 40t-40 98t40 97q40 40 97 40zM578 1833q57 0 97 -40t40 -97q0 -58 -40 -98t-97 -40t-98 40q-40 40 -40 98t40 97q41 40 98 40zM700 1057l-204 -520h417zM1065 135q0 23 -12 53l-92 234h-515l-86 -229
q-10 -31 -10 -56t18 -42t42 -19l102 -6v-76l-231 6l-232 -6v76l62 6q68 8 114 123l371 897l117 309h145l531 -1239q35 -80 112 -90l49 -6v-76l-317 6l-318 -6v76l109 6q41 4 41 59z" />
    <glyph glyph-name="Aring" unicode="&#xc5;" horiz-adv-x="1593" 
d="M799 1892q84 0 144 -60q61 -60 61 -144t-60 -144t-145 -61q-84 0 -145 60q-60 61 -60 145t60 144q61 60 145 60zM799 1790q-43 0 -73 -30t-30 -72t30 -73q30 -30 73 -30t73 30t29 73q1 42 -29 72t-73 30zM700 1057l-204 -520h417zM1065 135q0 23 -12 53l-92 234h-515
l-86 -229q-10 -31 -10 -56t18 -42t42 -19l102 -6v-76l-231 6l-232 -6v76l62 6q68 8 114 123l371 897l117 309h145l531 -1239q35 -80 112 -90l49 -6v-76l-317 6l-318 -6v76l109 6q41 4 41 59z" />
    <glyph glyph-name="AE" unicode="&#xc6;" horiz-adv-x="2048" 
d="M1026 547v694q0 16 -14 35h-15l-442 -729h471zM1587 672h-135q-68 0 -137 -6v-547q129 -6 233 -6t190 11q87 11 89 23l47 193h80l-23 -324l-10 -16q-109 -8 -281 -8t-223 2l-252 6q-37 0 -245 -6v47l65 37q41 23 41 117v243h-532l-127 -219q-39 -66 -39 -113q0 -8 14 -18
t35 -12l110 -6v-76l-251 6l-211 -6v76l77 6q43 4 111 117l594 1003q35 57 35 83t-88 34l-107 6v76q88 0 260 -4l264 -2q98 0 449 6l109 2q106 0 190 -8l12 -15l-28 -291h-74l-17 154q-6 39 -235 39q-133 0 -262 -6v-492q47 -4 137 -4h135q61 0 88 8t29 35l12 117h82l-6 -219
l6 -221h-82l-12 102q-8 76 -117 76z" />
    <glyph glyph-name="Ccedilla" unicode="&#xc7;" horiz-adv-x="1478" 
d="M1077 -278q1 -182 -303 -183q-66 0 -162 37l33 76q82 -18 135 -19q104 0 105 76q0 72 -86 72q-33 0 -66 -8l-20 16l82 182q-319 29 -512 223t-193 523q0 227 116 390t298 240t428 77t479 -97l12 -22q-18 -66 -47 -314h-80l-10 176q-136 141 -376 141t-376 -156
q-136 -158 -136 -428t159 -448q160 -178 444 -178q92 0 203 30t189 75l24 -25l-45 -100q-186 -113 -495 -113l-50 -110q53 12 88 12q84 0 123 -43q39 -42 39 -102z" />
    <glyph glyph-name="Egrave" unicode="&#xc8;" horiz-adv-x="1251" 
d="M322 1788q0 34 24 60t65 26t69 -18t65 -58l264 -303h-115l-268 166q-63 31 -94 78q-10 14 -10 49zM805 1276q-133 0 -262 -6v-492q47 -4 137 -4h135q61 0 88 8t29 35l12 117h82l-6 -219l6 -221h-82l-12 102q-8 76 -117 76h-135q-66 0 -137 -6v-547q129 -6 233 -6t190 11
q87 11 89 23l47 193h80l-23 -324l-10 -16q-109 -8 -281 -8t-223 2l-252 6q-18 0 -246 -6v47l66 37q41 23 41 117v917q0 137 -14 166t-84 35l-76 6v76q74 0 180 -4l139 -2q98 0 449 6l108 2q106 0 191 -8l12 -15l-29 -291h-73l-17 154q-6 39 -235 39z" />
    <glyph glyph-name="Eacute" unicode="&#xc9;" horiz-adv-x="1251" 
d="M932 1795q0 -27 -8 -50t-25 -36q-18 -13 -21 -16t-26 -17t-25 -15l-268 -166h-115l265 303q37 39 65 57q28 19 69 19t65 -26t24 -53zM805 1276q-133 0 -262 -6v-492q47 -4 137 -4h135q61 0 88 8t29 35l12 117h82l-6 -219l6 -221h-82l-12 102q-8 76 -117 76h-135
q-66 0 -137 -6v-547q129 -6 233 -6t190 11q87 11 89 23l47 193h80l-23 -324l-10 -16q-109 -8 -281 -8t-223 2l-252 6q-18 0 -246 -6v47l66 37q41 23 41 117v917q0 137 -14 166t-84 35l-76 6v76q74 0 180 -4l139 -2q98 0 449 6l108 2q106 0 191 -8l12 -15l-29 -291h-73
l-17 154q-6 39 -235 39z" />
    <glyph glyph-name="Ecircumflex" unicode="&#xca;" horiz-adv-x="1251" 
d="M528 1853h191l252 -358h-117l-229 201l-232 -201h-112zM805 1276q-133 0 -262 -6v-492q47 -4 137 -4h135q61 0 88 8t29 35l12 117h82l-6 -219l6 -221h-82l-12 102q-8 76 -117 76h-135q-66 0 -137 -6v-547q129 -6 233 -6t190 11q87 11 89 23l47 193h80l-23 -324l-10 -16
q-109 -8 -281 -8t-223 2l-252 6q-18 0 -246 -6v47l66 37q41 23 41 117v917q0 137 -14 166t-84 35l-76 6v76q74 0 180 -4l139 -2q98 0 449 6l108 2q106 0 191 -8l12 -15l-29 -291h-73l-17 154q-6 39 -235 39z" />
    <glyph glyph-name="Edieresis" unicode="&#xcb;" horiz-adv-x="1251" 
d="M846 1833q57 0 97 -40t40 -97q0 -58 -40 -98t-97 -40t-97 40t-40 98t40 97q40 40 97 40zM406 1833q57 0 97 -40t40 -97q0 -58 -40 -98t-97 -40t-98 40q-40 40 -40 98t40 97q41 40 98 40zM805 1276q-133 0 -262 -6v-492q47 -4 137 -4h135q61 0 88 8t29 35l12 117h82
l-6 -219l6 -221h-82l-12 102q-8 76 -117 76h-135q-66 0 -137 -6v-547q129 -6 233 -6t190 11q87 11 89 23l47 193h80l-23 -324l-10 -16q-109 -8 -281 -8t-223 2l-252 6q-18 0 -246 -6v47l66 37q41 23 41 117v917q0 137 -14 166t-84 35l-76 6v76q74 0 180 -4l139 -2
q98 0 449 6l108 2q106 0 191 -8l12 -15l-29 -291h-73l-17 154q-6 39 -235 39z" />
    <glyph glyph-name="Igrave" unicode="&#xcc;" horiz-adv-x="796" 
d="M94 1789q0 33 24 59t66 26t69 -18q28 -18 64 -58l265 -303h-115l-268 166q-63 31 -95 79q-10 16 -10 49zM543 1112v-836q0 -136 13 -162t85 -32l76 -6v-82q-252 6 -319 6t-318 -6v82l76 6q72 6 85 32t13 162v836q0 137 -13 163t-85 32l-76 6v82q252 -6 318 -6t319 6v-82
l-76 -6q-72 -6 -85 -32t-13 -163z" />
    <glyph glyph-name="Iacute" unicode="&#xcd;" horiz-adv-x="796" 
d="M705 1795q0 -27 -9 -50t-25 -36q-17 -13 -21 -16t-26 -17t-24 -15l-268 -166h-115l264 303q37 39 65 57q28 19 70 19t65 -26q24 -26 24 -53zM543 1112v-836q0 -136 13 -162t85 -32l76 -6v-82q-252 6 -319 6t-318 -6v82l76 6q72 6 85 32t13 162v836q0 137 -13 163t-85 32
l-76 6v82q252 -6 318 -6t319 6v-82l-76 -6q-72 -6 -85 -32t-13 -163z" />
    <glyph glyph-name="Icircumflex" unicode="&#xce;" horiz-adv-x="796" 
d="M301 1853h191l251 -358h-116l-230 201l-231 -201h-113zM543 1112v-836q0 -136 13 -162t85 -32l76 -6v-82q-252 6 -319 6t-318 -6v82l76 6q72 6 85 32t13 162v836q0 137 -13 163t-85 32l-76 6v82q252 -6 318 -6t319 6v-82l-76 -6q-72 -6 -85 -32t-13 -163z" />
    <glyph glyph-name="Idieresis" unicode="&#xcf;" horiz-adv-x="796" 
d="M618 1833q58 0 98 -40t40 -97q0 -58 -40 -98t-98 -40t-97 40q-40 40 -40 98t40 97q40 40 97 40zM178 1833q57 0 97 -40t40 -97q0 -58 -40 -98t-97 -40t-97 40t-40 98t40 97q40 40 97 40zM543 1112v-836q0 -136 13 -162t85 -32l76 -6v-82q-252 6 -319 6t-318 -6v82l76 6
q72 6 85 32t13 162v836q0 137 -13 163t-85 32l-76 6v82q252 -6 318 -6t319 6v-82l-76 -6q-72 -6 -85 -32t-13 -163z" />
    <glyph glyph-name="Eth" unicode="&#xd0;" horiz-adv-x="1705" 
d="M535 778h309v-86h-309v-575q59 -10 176 -11q303 0 447 151t144 459t-146 442q-148 134 -497 134q-67 0 -124 -8v-506zM246 195v497h-226v86h226v334q0 137 -14 166t-85 35l-75 6v76l319 -6l527 6q342 0 517 -153t175 -486q0 -236 -120 -412t-306 -263t-408 -87h-18
l-305 6l-314 -6v47l66 37q41 23 41 117z" />
    <glyph glyph-name="Ntilde" unicode="&#xd1;" horiz-adv-x="1705" 
d="M979 1554q-59 0 -163 50t-159 51q-70 0 -96 -99h-82q3 78 65 167t177 89q57 0 159 -49t143 -49q39 0 61 16t29 30q8 13 26 52h88q-61 -258 -248 -258zM246 276v836q0 137 -14 166t-85 35l-75 6v76l245 -6l172 6q23 -29 93 -121t118 -152l639 -745v735q0 137 -14 166
t-84 35l-76 6v76q233 -6 236 -6l233 6v-76l-75 -6q-70 -6 -84 -35t-15 -166v-930q0 -23 6 -207l-14 -8l-168 27q-174 197 -250 285l-663 798h-4v-801q0 -138 14 -166t84 -34l76 -6v-76l-234 6q-2 0 -235 -6v76l75 6q71 6 85 34t14 166z" />
    <glyph glyph-name="Ograve" unicode="&#xd2;" horiz-adv-x="1705" 
d="M549 1788q-1 34 23 60t66 26t70 -18t64 -58l264 -303h-114l-269 166q-63 31 -94 78q-10 14 -10 49zM874 1309q-471 0 -471 -592q0 -269 112 -453t319 -184q471 0 471 590q0 270 -112 454t-319 185zM839 -35q-353 -1 -548 185t-195 537t210 543t563 193q353 0 548 -185
t195 -536t-210 -544t-563 -193z" />
    <glyph glyph-name="Oacute" unicode="&#xd3;" horiz-adv-x="1705" 
d="M1055 1661l-269 -166h-114l264 303q36 39 64 57q28 19 70 19t66 -26q41 -45 9 -118q-5 -10 -21 -22t-19 -15t-25 -17t-25 -15zM874 1309q-471 0 -471 -592q0 -269 112 -453t319 -184q471 0 471 590q0 270 -112 454t-319 185zM839 -35q-353 -1 -548 185t-195 537t210 543
t563 193q353 0 548 -185t195 -536t-210 -544t-563 -193z" />
    <glyph glyph-name="Ocircumflex" unicode="&#xd4;" horiz-adv-x="1705" 
d="M756 1853h190l252 -358h-117l-229 201l-231 -201h-113zM874 1309q-471 0 -471 -592q0 -269 112 -453t319 -184q471 0 471 590q0 270 -112 454t-319 185zM839 -35q-353 -1 -548 185t-195 537t210 543t563 193q353 0 548 -185t195 -536t-210 -544t-563 -193z" />
    <glyph glyph-name="Otilde" unicode="&#xd5;" horiz-adv-x="1705" 
d="M979 1554q-59 0 -163 50t-159 51q-70 0 -96 -99h-82q3 78 65 167t177 89q57 0 159 -49t143 -49q39 0 61 16t29 30q8 13 26 52h88q-61 -258 -248 -258zM874 1309q-471 0 -471 -592q0 -269 112 -453t319 -184q471 0 471 590q0 270 -112 454t-319 185zM839 -35
q-353 -1 -548 185t-195 537t210 543t563 193q353 0 548 -185t195 -536t-210 -544t-563 -193z" />
    <glyph glyph-name="Odieresis" unicode="&#xd6;" horiz-adv-x="1705" 
d="M1073 1833q57 0 97 -40t40 -97q0 -58 -40 -98t-97 -40t-97 40t-40 98t40 97q40 40 97 40zM633 1833q57 0 97 -40t40 -97q0 -58 -40 -98t-97 -40t-97 40t-40 98t40 97q40 40 97 40zM874 1309q-471 0 -471 -592q0 -269 112 -453t319 -184q471 0 471 590q0 270 -112 454
t-319 185zM839 -35q-353 -1 -548 185t-195 537t210 543t563 193q353 0 548 -185t195 -536t-210 -544t-563 -193z" />
    <glyph glyph-name="multiply" unicode="&#xd7;" horiz-adv-x="1241" 
d="M494 518l-344 346l124 125l344 -346l347 346l125 -125l-347 -346l351 -350l-125 -125l-351 350l-346 -350l-125 125z" />
    <glyph glyph-name="Oslash" unicode="&#xd8;" horiz-adv-x="1705" 
d="M834 80q471 0 471 590q0 219 -45 315l-764 -702q133 -203 338 -203zM874 1309q-471 0 -471 -592q1 -218 52 -324l757 701q-113 215 -338 215zM96 682q0 356 210 549t559 193t532 -160l182 166l76 -80l-182 -168q79 -104 109 -216t30 -259q0 -356 -210 -549t-568 -193
q-172 0 -304 43t-202 119l-185 -168l-77 82l186 170q-156 166 -156 471z" />
    <glyph glyph-name="Ugrave" unicode="&#xd9;" horiz-adv-x="1593" 
d="M494 1788q0 34 24 60t65 26t69 -18t65 -58l264 -303h-115l-268 166q-63 31 -94 78q-10 14 -10 49zM227 362v750q0 137 -14 166t-84 35l-76 6v76q252 -6 319 -6t318 6v-76l-76 -6q-70 -6 -84 -35t-14 -166v-508q0 -102 4 -162t24 -127t59 -101q91 -81 279 -81t281 84
q79 71 93 237q6 66 6 164v494q0 137 -14 166t-85 35l-76 6v76q233 -6 236 -6l233 6v-76l-75 -6q-70 -6 -84 -35t-15 -166v-598q0 -549 -569 -549q-283 1 -435 109t-151 288z" />
    <glyph glyph-name="Uacute" unicode="&#xda;" horiz-adv-x="1593" 
d="M1147 1661l-268 -166h-115l264 303q37 39 65 57q27 19 69 19t66 -26q41 -45 9 -118q-7 -17 -48 -43q-40 -26 -42 -26zM227 362v750q0 137 -14 166t-84 35l-76 6v76q252 -6 319 -6t318 6v-76l-76 -6q-70 -6 -84 -35t-14 -166v-508q0 -102 4 -162t24 -127t59 -101
q91 -81 279 -81t281 84q79 71 93 237q6 66 6 164v494q0 137 -14 166t-85 35l-76 6v76q233 -6 236 -6l233 6v-76l-75 -6q-70 -6 -84 -35t-15 -166v-598q0 -549 -569 -549q-283 1 -435 109t-151 288z" />
    <glyph glyph-name="Ucircumflex" unicode="&#xdb;" horiz-adv-x="1593" 
d="M725 1853h190l252 -358h-116l-230 201l-231 -201h-113zM227 362v750q0 137 -14 166t-84 35l-76 6v76q252 -6 319 -6t318 6v-76l-76 -6q-70 -6 -84 -35t-14 -166v-508q0 -102 4 -162t24 -127t59 -101q91 -81 279 -81t281 84q79 71 93 237q6 66 6 164v494q0 137 -14 166
t-85 35l-76 6v76q233 -6 236 -6l233 6v-76l-75 -6q-70 -6 -84 -35t-15 -166v-598q0 -549 -569 -549q-283 1 -435 109t-151 288z" />
    <glyph glyph-name="Udieresis" unicode="&#xdc;" horiz-adv-x="1593" 
d="M1042 1833q58 0 98 -40t40 -97q0 -58 -40 -98t-98 -40t-97 40q-40 40 -40 98t40 97q40 40 97 40zM602 1833q57 0 97 -40t40 -97q0 -58 -40 -98t-97 -40t-97 40t-40 98t40 97q40 40 97 40zM227 362v750q0 137 -14 166t-84 35l-76 6v76q252 -6 319 -6t318 6v-76l-76 -6
q-70 -6 -84 -35t-14 -166v-508q0 -102 4 -162t24 -127t59 -101q91 -81 279 -81t281 84q79 71 93 237q6 66 6 164v494q0 137 -14 166t-85 35l-76 6v76q233 -6 236 -6l233 6v-76l-75 -6q-70 -6 -84 -35t-15 -166v-598q0 -549 -569 -549q-283 1 -435 109t-151 288z" />
    <glyph glyph-name="Yacute" unicode="&#xdd;" horiz-adv-x="1366" 
d="M1098 1661l-269 -166h-114l264 303q37 39 65 57q28 19 69 19q42 0 66 -26q41 -45 9 -118q-4 -10 -20 -22l-20 -15t-26 -17t-24 -15zM1352 1389v-39l-361 -535q-51 -78 -108 -205v-334q0 -136 13 -162t85 -32l76 -6v-82q-252 6 -319 6t-318 -6v82l76 6q72 6 85 32t13 162
v285q-43 100 -90 174l-207 334q-41 63 -105 134t-161 71v76l325 73q76 -43 128 -111t106 -167l219 -416l385 660h158z" />
    <glyph glyph-name="Thorn" unicode="&#xde;" horiz-adv-x="1251" 
d="M378 0q-46 0 -298 -6v82l76 6q72 6 85 32t13 162v836q0 137 -14 166t-84 35l-76 6v76q252 -6 318 -6t319 6v-76l-76 -6q-70 -6 -84 -35t-14 -154q55 -6 151 -6t154 -4q155 -11 231 -72q41 -31 69 -89t28 -138q0 -195 -126 -317t-286 -121q-18 0 -127 14l-35 72l21 20
q41 -14 113 -14t109 68q36 68 36 172q0 307 -170 307q-131 -1 -168 -19v-721l-2 -49q0 -87 14 -113t86 -32l96 -6v-82q-313 6 -359 6z" />
    <glyph glyph-name="germandbls" unicode="&#xdf;" horiz-adv-x="1251" 
d="M465 963v-760q0 -41 2 -63t17 -42t46 -22l60 -6l18 159l68 13l8 -111q74 -49 130 -49t97 35t41 83t-15 68l-21 28t-21 18t-21 16t-24 18t-29 20t-60 37q-48 29 -80 53q-31 24 -61 70t-30 116q0 71 40 128q40 58 114 120t147 62h12q14 104 15 136q0 104 -62 176t-166 71
q-72 1 -132 -35t-76 -104t-17 -235zM215 205v549h-145v47l141 92v149q0 127 203 287q98 78 172 112t194 34t203 -79q84 -79 84 -214q0 -88 -49 -299l-12 -54l-27 -18q-45 39 -99 39q-112 0 -112 -78q0 -63 94 -119l185 -106q111 -63 110 -191q-1 -82 -23 -129t-83 -104
l-93 -86q-72 -72 -219 -72q-72 0 -147 43v-14q-209 6 -246 6l-285 -6v76l80 4q55 2 65 32t9 99z" />
    <glyph glyph-name="agrave" unicode="&#xe0;" 
d="M209 1370q0 35 23 61q24 25 66 25t70 -18t64 -58l264 -303h-114l-269 166q-63 31 -94 78q-10 14 -10 49zM332 259q0 -54 30 -85t77 -31q45 0 99 31t74 62v241l-92 -24q-90 -24 -133 -54q-55 -35 -55 -140zM294 -35q-96 0 -154 69t-58 181q0 154 91 215t259 96l180 37
q0 242 -213 242q-33 0 -71 -8t-43 -21l-45 -102l-62 14v141l109 66q115 70 249 70t230 -70t96 -217v-12l-6 -252q0 -2 6 -254q4 -78 56 -84l61 -6v-76l-180 6l-187 -6l-10 16l10 127l-190 -147q-32 -25 -128 -25z" />
    <glyph glyph-name="aacute" unicode="&#xe1;" 
d="M730 1456q42 0 66 -26q42 -45 9 -118q-5 -10 -21 -22t-19 -15t-25 -17t-25 -15l-269 -166h-114l264 303q36 40 64 58t70 18zM332 259q0 -54 30 -85t77 -31q45 0 99 31t74 62v241l-92 -24q-90 -24 -133 -54q-55 -35 -55 -140zM294 -35q-96 0 -154 69t-58 181q0 154 91 215
t259 96l180 37q0 242 -213 242q-33 0 -71 -8t-43 -21l-45 -102l-62 14v141l109 66q115 70 249 70t230 -70t96 -217v-12l-6 -252q0 -2 6 -254q4 -78 56 -84l61 -6v-76l-180 6l-187 -6l-10 16l10 127l-190 -147q-32 -25 -128 -25z" />
    <glyph glyph-name="acircumflex" unicode="&#xe2;" 
d="M416 1436h190l252 -359h-117l-229 201l-231 -201h-113zM332 259q0 -54 30 -85t77 -31q45 0 99 31t74 62v241l-92 -24q-90 -24 -133 -54q-55 -35 -55 -140zM294 -35q-96 0 -154 69t-58 181q0 154 91 215t259 96l180 37q0 242 -213 242q-33 0 -71 -8t-43 -21l-45 -102
l-62 14v141l109 66q115 70 249 70t230 -70t96 -217v-12l-6 -252q0 -2 6 -254q4 -78 56 -84l61 -6v-76l-180 6l-187 -6l-10 16l10 127l-190 -147q-32 -25 -128 -25z" />
    <glyph glyph-name="atilde" unicode="&#xe3;" 
d="M639 1161q-59 0 -163 50t-159 51q-70 0 -96 -99h-82q3 78 65 167t177 89q57 0 159 -49t143 -49q39 0 61 16q22 15 30 29t25 53h88q-61 -258 -248 -258zM332 259q0 -54 30 -85t77 -31q45 0 99 31t74 62v241l-92 -24q-90 -24 -133 -54q-55 -35 -55 -140zM294 -35
q-96 0 -154 69t-58 181q0 154 91 215t259 96l180 37q0 242 -213 242q-33 0 -71 -8t-43 -21l-45 -102l-62 14v141l109 66q115 70 249 70t230 -70t96 -217v-12l-6 -252q0 -2 6 -254q4 -78 56 -84l61 -6v-76l-180 6l-187 -6l-10 16l10 127l-190 -147q-32 -25 -128 -25z" />
    <glyph glyph-name="adieresis" unicode="&#xe4;" 
d="M733 1415q57 0 97 -40t40 -97t-40 -97t-97 -40t-97 40t-40 97t40 97t97 40zM293 1415q57 0 97 -40t40 -97t-40 -97t-97 -40t-97 40t-40 97t40 97t97 40zM332 259q0 -54 30 -85t77 -31q45 0 99 31t74 62v241l-92 -24q-90 -24 -133 -54q-55 -35 -55 -140zM294 -35
q-96 0 -154 69t-58 181q0 154 91 215t259 96l180 37q0 242 -213 242q-33 0 -71 -8t-43 -21l-45 -102l-62 14v141l109 66q115 70 249 70t230 -70t96 -217v-12l-6 -252q0 -2 6 -254q4 -78 56 -84l61 -6v-76l-180 6l-187 -6l-10 16l10 127l-190 -147q-32 -25 -128 -25z" />
    <glyph glyph-name="aring" unicode="&#xe5;" 
d="M514 1475q84 -1 144 -61t60 -144t-60 -144t-144 -61q-84 0 -144 60q-60 61 -60 145t60 144t144 61zM514 1372q-43 0 -73 -30q-29 -30 -29 -72t30 -73q30 -30 72 -30q43 0 73 30t29 73q0 42 -30 72t-72 30zM332 259q0 -54 30 -85t77 -31q45 0 99 31t74 62v241l-92 -24
q-90 -24 -133 -54q-55 -35 -55 -140zM294 -35q-96 0 -154 69t-58 181q0 154 91 215t259 96l180 37q0 242 -213 242q-33 0 -71 -8t-43 -21l-45 -102l-62 14v141l109 66q115 70 249 70t230 -70t96 -217v-12l-6 -252q0 -2 6 -254q4 -78 56 -84l61 -6v-76l-180 6l-187 -6l-10 16
l10 127l-190 -147q-32 -25 -128 -25z" />
    <glyph glyph-name="ae" unicode="&#xe6;" horiz-adv-x="1593" 
d="M483 143q43 0 97 31t73 62v233l-112 -27q-188 -43 -189 -180q0 -119 131 -119zM1174 457h-269q0 -154 85 -250t241 -96q100 0 221 71l25 -30l-45 -99q-166 -88 -328 -88q-276 0 -399 195l-234 -168q-35 -27 -135 -27t-170 70q-72 70 -72 178q0 172 109 226t270 87l180 37
q0 117 -53 187t-170 69q-76 0 -143 -49l-33 -86l-66 8v137l109 66q115 70 229 70t178 -23t125 -84q119 106 285 106t275 -94t108 -266v-106q-147 -41 -323 -41zM1069 850q-176 0 -176 -285l172 -6l172 6q0 285 -168 285z" />
    <glyph glyph-name="ccedilla" unicode="&#xe7;" horiz-adv-x="909" 
d="M778 -278q0 -182 -304 -183q-66 0 -161 37l33 76q82 -18 135 -19q104 0 105 76q0 72 -86 72q-33 0 -66 -8l-20 16l80 180q-210 11 -314 141t-104 341q0 67 6 107q17 114 104 199q53 50 138 101l106 64q72 43 178 43t217 -41l15 -27q-25 -119 -41 -289h-74l-14 123
q-3 41 -61 65t-115 23q-205 0 -205 -289q0 -178 81 -299t251 -120q78 0 167 39l19 -21l-43 -94q-100 -57 -227 -68l-50 -112q51 12 88 12q84 0 123 -43q39 -42 39 -102z" />
    <glyph glyph-name="egrave" unicode="&#xe8;" 
d="M209 1370q0 35 23 61q24 25 66 25t70 -18t64 -58l264 -303h-114l-269 166q-63 31 -94 78q-10 14 -10 49zM516 850q-176 0 -176 -285l172 -6l172 6q0 285 -168 285zM621 457h-269q0 -154 85 -250t241 -96q100 0 221 71l25 -30l-45 -99q-166 -88 -328 -88q-223 0 -344 126
t-121 347q0 150 38 251t157 171l96 58q78 47 168 47q178 1 289 -93t110 -268v-106q-147 -41 -323 -41z" />
    <glyph glyph-name="eacute" unicode="&#xe9;" 
d="M730 1456q42 0 66 -26q42 -45 9 -118q-5 -10 -21 -22t-19 -15t-25 -17t-25 -15l-269 -166h-114l264 303q36 40 64 58t70 18zM516 850q-176 0 -176 -285l172 -6l172 6q0 285 -168 285zM621 457h-269q0 -154 85 -250t241 -96q100 0 221 71l25 -30l-45 -99
q-166 -88 -328 -88q-223 0 -344 126t-121 347q0 150 38 251t157 171l96 58q78 47 168 47q178 1 289 -93t110 -268v-106q-147 -41 -323 -41z" />
    <glyph glyph-name="ecircumflex" unicode="&#xea;" 
d="M440 1477h191l252 -359h-117l-229 201l-232 -201h-112zM516 850q-176 0 -176 -285l172 -6l172 6q0 285 -168 285zM621 457h-269q0 -154 85 -250t241 -96q100 0 221 71l25 -30l-45 -99q-166 -88 -328 -88q-223 0 -344 126t-121 347q0 150 38 251t157 171l96 58
q78 47 168 47q178 1 289 -93t110 -268v-106q-147 -41 -323 -41z" />
    <glyph glyph-name="edieresis" unicode="&#xeb;" 
d="M750 1415q57 0 97 -40t40 -97t-40 -97t-97 -40t-98 40q-40 40 -40 97t40 97q41 40 98 40zM309 1415q57 0 97 -40t40 -97t-40 -97t-96 -40q-58 0 -98 40t-40 97t40 97t97 40zM516 850q-176 0 -176 -285l172 -6l172 6q0 285 -168 285zM621 457h-269q0 -154 85 -250t241 -96
q100 0 221 71l25 -30l-45 -99q-166 -88 -328 -88q-223 0 -344 126t-121 347q0 150 38 251t157 171l96 58q78 47 168 47q178 1 289 -93t110 -268v-106q-147 -41 -323 -41z" />
    <glyph glyph-name="igrave" unicode="&#xec;" horiz-adv-x="681" 
d="M37 1370q0 35 23 61q24 25 66 25t70 -18t64 -58l264 -303h-114l-269 166q-63 31 -94 78q-10 14 -10 49zM215 205v448q0 90 -8 116t-45 28l-92 6v74q166 23 231 43l143 45l21 -13v-747q0 -69 8 -97t66 -34l71 -4v-76q-264 6 -276 6l-264 -6v76l71 4q57 6 65 34t9 97z" />
    <glyph glyph-name="iacute" unicode="&#xed;" horiz-adv-x="681" 
d="M558 1456q42 0 66 -26q42 -45 9 -118q-5 -10 -21 -22t-19 -15t-25 -17t-25 -15l-269 -166h-114l264 303q36 40 64 58t70 18zM215 205v448q0 90 -8 116t-45 28l-92 6v74q166 23 231 43l143 45l21 -13v-747q0 -69 8 -97t66 -34l71 -4v-76q-264 6 -276 6l-264 -6v76l71 4
q57 6 65 34t9 97z" />
    <glyph glyph-name="icircumflex" unicode="&#xee;" horiz-adv-x="681" 
d="M244 1436h190l252 -359h-117l-229 201l-231 -201h-113zM215 205v448q0 90 -8 116t-45 28l-92 6v74q166 23 231 43l143 45l21 -13v-747q0 -69 8 -97t66 -34l71 -4v-76q-264 6 -276 6l-264 -6v76l71 4q57 6 65 34t9 97z" />
    <glyph glyph-name="idieresis" unicode="&#xef;" horiz-adv-x="681" 
d="M561 1454q57 0 97 -40t40 -97t-40 -97t-97 -40t-97 40t-40 97t40 97t97 40zM121 1454q57 0 97 -40t40 -97t-40 -97t-97 -40t-97 40t-40 97t40 97t97 40zM215 205v448q0 90 -8 116t-45 28l-92 6v74q166 23 231 43l143 45l21 -13v-747q0 -69 8 -97t66 -34l71 -4v-76
q-264 6 -276 6l-264 -6v76l71 4q57 6 65 34t9 97z" />
    <glyph glyph-name="eth" unicode="&#xf0;" horiz-adv-x="1138" 
d="M1059 553v-18q-4 -254 -138 -412q-135 -158 -371 -158t-352 134t-116 367q0 234 129 366t352 133q57 0 113 -19q-25 102 -125 217l-272 -127l-37 78l247 115q-90 90 -194 139l82 107q182 -88 282 -166l275 127l37 -78l-238 -111q326 -301 326 -694zM584 63q197 0 196 379
q0 227 -48 319q-56 106 -180 105t-163 -127q-27 -92 -29 -229q1 -447 224 -447z" />
    <glyph glyph-name="ntilde" unicode="&#xf1;" horiz-adv-x="1251" 
d="M752 1161q-60 0 -164 50t-158 51q-70 0 -96 -99h-82q2 78 64 167t178 89q57 0 159 -49q103 -49 143 -49t62 16q22 15 28 29q7 14 25 53h88q-61 -258 -247 -258zM811 553q0 135 -50 185t-157 50q-61 0 -110 -46t-50 -93v-444q0 -69 8 -97t66 -34l72 -4v-76q-264 6 -277 6
l-264 -6v76l72 4q57 6 65 34t9 97v448q-1 90 -9 116t-45 28l-92 6v74q127 0 259 48q97 26 124 40l12 -13v-153l164 127q51 39 174 39t203 -82q47 -51 61 -120t15 -177v-381q0 -69 8 -97t66 -34l67 -4v-76l-201 6q-18 0 -190 -6v559z" />
    <glyph glyph-name="ograve" unicode="&#xf2;" horiz-adv-x="1138" 
d="M266 1371q0 34 24 60q24 25 66 25t69 -18q28 -18 64 -58l265 -303h-115l-268 166q-63 31 -95 79q-10 16 -10 49zM586 63q194 0 194 332t-93 423q-49 48 -113 48t-104 -24t-60 -59q-46 -79 -50 -273q1 -447 226 -447zM578 965q238 0 360 -124q121 -124 121 -365t-133 -376
q-132 -135 -372 -135t-356 134t-116 368t129 366t367 132z" />
    <glyph glyph-name="oacute" unicode="&#xf3;" horiz-adv-x="1138" 
d="M788 1456q42 0 65 -26q24 -26 24 -52q0 -28 -9 -51t-25 -36q-17 -13 -21 -16t-26 -17t-24 -15l-268 -166h-115l264 303q37 40 65 58t70 18zM586 63q194 0 194 332t-93 423q-49 48 -113 48t-104 -24t-60 -59q-46 -79 -50 -273q1 -447 226 -447zM578 965q238 0 360 -124
q121 -124 121 -365t-133 -376q-132 -135 -372 -135t-356 134t-116 368t129 366t367 132z" />
    <glyph glyph-name="ocircumflex" unicode="&#xf4;" horiz-adv-x="1138" 
d="M473 1436h191l251 -359h-116l-230 201l-231 -201h-113zM586 63q194 0 194 332t-93 423q-49 48 -113 48t-104 -24t-60 -59q-46 -79 -50 -273q1 -447 226 -447zM578 965q238 0 360 -124q121 -124 121 -365t-133 -376q-132 -135 -372 -135t-356 134t-116 368t129 366
t367 132z" />
    <glyph glyph-name="otilde" unicode="&#xf5;" horiz-adv-x="1138" 
d="M696 1161q-60 0 -164 50t-157 51q-70 0 -96 -99h-82q2 78 64 167t177 89q58 0 160 -49t142 -49t62 16q22 15 29 29t25 53h88q-61 -258 -248 -258zM586 63q194 0 194 332t-93 423q-49 48 -113 48t-104 -24t-60 -59q-46 -79 -50 -273q1 -447 226 -447zM578 965
q238 0 360 -124q121 -124 121 -365t-133 -376q-132 -135 -372 -135t-356 134t-116 368t129 366t367 132z" />
    <glyph glyph-name="odieresis" unicode="&#xf6;" horiz-adv-x="1138" 
d="M791 1454q57 0 97 -40t40 -97t-40 -97t-97 -40t-98 40q-40 40 -40 97t40 97q41 40 98 40zM350 1454q57 0 97 -40t40 -97t-40 -97t-97 -40t-97 40t-40 97t40 97t97 40zM586 63q194 0 194 332t-93 423q-49 48 -113 48t-104 -24t-60 -59q-46 -79 -50 -273q1 -447 226 -447z
M578 965q238 0 360 -124q121 -124 121 -365t-133 -376q-132 -135 -372 -135t-356 134t-116 368t129 366t367 132z" />
    <glyph glyph-name="divide" unicode="&#xf7;" horiz-adv-x="1241" 
d="M621 0q-57 0 -98 40q-40 40 -40 97t40 97q39 40 97 40t98 -40t40 -97t-40 -97t-97 -40zM621 770q-57 0 -98 40q-40 40 -40 97t40 97q39 40 97 40t98 -40t40 -96q0 -58 -40 -98t-97 -40zM104 434v176h1033v-176h-1033z" />
    <glyph glyph-name="oslash" unicode="&#xf8;" horiz-adv-x="1138" 
d="M766 602l-377 -358q61 -180 197 -181q195 0 194 338q0 140 -14 201zM565 866q-55 0 -95 -24t-60 -59q-20 -34 -34 -98q-31 -143 1 -361l377 358q-51 184 -189 184zM1059 485q0 -250 -133 -385t-385 -135q-188 0 -322 117l-125 -119l-47 47l129 121q-94 104 -94 337
t129 365t369 132t350 -117l114 110l50 -45l-123 -114q88 -117 88 -314z" />
    <glyph glyph-name="ugrave" unicode="&#xf9;" horiz-adv-x="1251" 
d="M305 1370q0 35 24 61q23 25 65 25t70 -18t64 -58l265 -303h-115l-268 166q-60 30 -94 78q-10 14 -11 49zM516 -35q-319 0 -319 322v366q-1 90 -9 116t-45 28l-92 6v74q166 23 232 43l143 45l20 -13v-534q0 -200 74 -247q35 -22 92 -21q106 0 172 104q18 29 19 80v319
q0 90 -8 116t-45 28l-93 6v74q166 23 232 43l143 45l21 -13v-747q0 -69 8 -97t65 -34l68 -4v-76l-227 6q-51 0 -174 -6l10 170l-156 -152q-47 -47 -131 -47z" />
    <glyph glyph-name="uacute" unicode="&#xfa;" horiz-adv-x="1251" 
d="M868 1456q42 0 65 -26q42 -45 9 -118q-7 -15 -47 -42q-41 -27 -43 -27l-268 -166h-115l264 303q37 40 65 58t70 18zM516 -35q-319 0 -319 322v366q-1 90 -9 116t-45 28l-92 6v74q166 23 232 43l143 45l20 -13v-534q0 -200 74 -247q35 -22 92 -21q106 0 172 104
q18 29 19 80v319q0 90 -8 116t-45 28l-93 6v74q166 23 232 43l143 45l21 -13v-747q0 -69 8 -97t65 -34l68 -4v-76l-227 6q-51 0 -174 -6l10 170l-156 -152q-47 -47 -131 -47z" />
    <glyph glyph-name="ucircumflex" unicode="&#xfb;" horiz-adv-x="1251" 
d="M528 1436h191l252 -359h-117l-229 201l-232 -201h-112zM516 -35q-319 0 -319 322v366q-1 90 -9 116t-45 28l-92 6v74q166 23 232 43l143 45l20 -13v-534q0 -200 74 -247q35 -22 92 -21q106 0 172 104q18 29 19 80v319q0 90 -8 116t-45 28l-93 6v74q166 23 232 43l143 45
l21 -13v-747q0 -69 8 -97t65 -34l68 -4v-76l-227 6q-51 0 -174 -6l10 170l-156 -152q-47 -47 -131 -47z" />
    <glyph glyph-name="udieresis" unicode="&#xfc;" horiz-adv-x="1251" 
d="M846 1454q57 0 97 -40t40 -97t-40 -97t-97 -40t-97 40t-40 97t40 97t97 40zM406 1454q57 0 97 -40t40 -97t-40 -97t-97 -40t-98 40q-40 40 -40 97t40 97q41 40 98 40zM516 -35q-319 0 -319 322v366q-1 90 -9 116t-45 28l-92 6v74q166 23 232 43l143 45l20 -13v-534
q0 -200 74 -247q35 -22 92 -21q106 0 172 104q18 29 19 80v319q0 90 -8 116t-45 28l-93 6v74q166 23 232 43l143 45l21 -13v-747q0 -69 8 -97t65 -34l68 -4v-76l-227 6q-51 0 -174 -6l10 170l-156 -152q-47 -47 -131 -47z" />
    <glyph glyph-name="yacute" unicode="&#xfd;" horiz-adv-x="1138" 
d="M853 1456q42 0 66 -26q42 -45 9 -118q-4 -10 -20 -22l-20 -15t-26 -17t-24 -15l-269 -166h-114l264 303q37 40 65 58t69 18zM207 -545q-68 0 -144 35l37 195l23 8q63 -76 147 -76q55 0 104 54q48 54 81 132l47 115l-324 827q-43 111 -86 113l-72 4v78q270 -6 273 -6
l270 6v-78l-71 -4q-53 -4 -54 -47q0 -21 35 -109l172 -446l207 516q8 23 8 47q0 35 -55 39l-68 4v78l191 -6l190 6v-78l-53 -10q-47 -10 -84 -96l-408 -949q-23 -49 -31 -69t-47 -86q-38 -66 -72 -100t-91 -65q-57 -32 -125 -32z" />
    <glyph glyph-name="thorn" unicode="&#xfe;" horiz-adv-x="1251" 
d="M197 -317v1480q-1 90 -9 116t-45 28l-108 6v73q162 18 248 44l147 45l16 -13v-678l125 101q100 80 213 80q162 0 266 -109t103 -272q0 -117 -47 -238t-150 -199q-150 -113 -159 -118q-100 -63 -167 -63t-184 34v-317q0 -70 10 -100t64 -32l92 -4v-75l-297 6l-264 -6v75
l72 4q57 6 65 34t9 98zM655 104q87 0 145 60t77 136q18 74 18 186q1 112 -63 203t-193 91q-57 0 -111 -28t-82 -74v-461q74 -113 209 -113z" />
    <glyph glyph-name="ydieresis" unicode="&#xff;" horiz-adv-x="1138" 
d="M815 1454q57 0 97 -40t40 -97t-40 -97t-97 -40t-97 40t-40 97t40 97t97 40zM375 1454q57 0 97 -40t40 -97t-40 -97t-97 -40t-97 40t-40 97t40 97t97 40zM207 -545q-68 0 -144 35l37 195l23 8q63 -76 147 -76q55 0 104 54q48 54 81 132l47 115l-324 827q-43 111 -86 113
l-72 4v78q270 -6 273 -6l270 6v-78l-71 -4q-53 -4 -54 -47q0 -21 35 -109l172 -446l207 516q8 23 8 47q0 35 -55 39l-68 4v78l191 -6l190 6v-78l-53 -10q-47 -10 -84 -96l-408 -949q-23 -49 -31 -69t-47 -86q-38 -66 -72 -100t-91 -65q-57 -32 -125 -32z" />
    <glyph glyph-name="dotlessi" unicode="&#x131;" horiz-adv-x="681" 
d="M215 205v448q0 90 -8 116t-45 28l-92 6v74q166 23 231 43l143 45l21 -13v-747q0 -69 8 -97t66 -34l71 -4v-76q-264 6 -276 6l-264 -6v76l71 4q57 6 65 34t9 97z" />
    <glyph glyph-name="Lslash" unicode="&#x141;" horiz-adv-x="1251" 
d="M543 1112v-276l235 131l29 -82l-264 -148v-618q129 -6 233 -6t190 11q87 11 89 23l47 209h80l-23 -340l-10 -16q-109 -8 -281 -8t-223 2l-252 6q-18 0 -246 -6v47l66 37q41 23 41 117v383l-193 -107l-28 82l221 123v436q0 137 -13 163t-85 32l-76 6v82q252 -6 318 -6
t319 6v-82l-76 -6q-72 -6 -85 -32t-13 -163z" />
    <glyph glyph-name="lslash" unicode="&#x142;" horiz-adv-x="681" 
d="M461 205q0 -69 8 -97t66 -34l71 -4v-76q-264 6 -276 6l-264 -6v76l71 4q57 6 65 34t9 97v459l-191 -123l-28 69l219 142v411q0 90 -8 116t-45 28l-109 6v73q162 18 248 44l147 45l17 -13v-549l194 127l29 -69l-223 -146v-620z" />
    <glyph glyph-name="OE" unicode="&#x152;" horiz-adv-x="2048" 
d="M837 1309q-252 0 -353 -171q-87 -150 -88 -402q-1 -251 90 -441q48 -99 140 -157t228 -58t236 74v1063q-129 92 -253 92zM1651 672h-135q-66 0 -138 -6v-547q128 -6 232 -6t191 11t89 23l47 193h80l-22 -324l-10 -16q-109 -8 -281 -8t-223 2l-252 6q-121 0 -237 -18
t-169 -17q-351 0 -543 195t-192 551t198 534t564 178l385 -34q98 0 448 6l109 2q106 0 190 -8l13 -15l-29 -291h-74l-16 154q-6 39 -236 39q-133 0 -262 -6v-492q47 -4 138 -4h135q61 0 88 8t28 35l13 117h82l-7 -219l7 -221h-82l-13 102q-8 76 -116 76z" />
    <glyph glyph-name="oe" unicode="&#x153;" horiz-adv-x="1705" 
d="M602 63q195 0 195 331t-94 424q-48 48 -112 48q-65 0 -105 -24t-60 -59q-49 -83 -49 -273q0 -447 225 -447zM1313 457h-269q0 -154 85 -250t241 -96q100 0 221 71l25 -30l-45 -99q-166 -88 -328 -88q-219 0 -325 131q-128 -131 -358 -131t-346 134t-116 368t129 366
t361 132t358 -117q150 117 312 117q162 -1 270 -95t108 -266v-106q-147 -41 -323 -41zM1208 850q-176 0 -176 -285l172 -6l172 6q0 285 -168 285z" />
    <glyph glyph-name="Scaron" unicode="&#x160;" horiz-adv-x="1251" 
d="M719 1503h-191l-247 359h112l232 -201l229 201h117zM147 414h82l15 -181q39 -69 137 -113t184 -44q137 0 230 70q92 71 92 205t-170 186l-287 86q-135 41 -217 131t-82 217q0 231 150 342t373 111t399 -70l10 -25q-29 -92 -29 -291h-84l-12 168q-45 51 -122 82t-150 31
q-137 0 -209 -70t-72 -178q0 -143 217 -199l234 -61q309 -83 309 -367q0 -150 -87 -266q-161 -213 -513 -213q-233 0 -428 94q30 152 30 355z" />
    <glyph glyph-name="scaron" unicode="&#x161;" horiz-adv-x="909" 
d="M549 1085h-191l-247 359h112l232 -201l229 201h117zM289 733q1 -49 27 -76t85 -39l168 -36q133 -29 197 -89t63 -180q0 -168 -128 -258t-296 -90t-325 58l14 288h80l10 -141q82 -106 242 -107q74 0 125 41q51 42 51 108t-32 94t-97 44l-176 43q-217 53 -217 252
q0 166 115 243t292 77t271 -47l-17 -250h-73l-21 118q-6 31 -61 56t-107 24q-190 0 -190 -133z" />
    <glyph glyph-name="Ydieresis" unicode="&#x178;" horiz-adv-x="1366" 
d="M969 1833q57 0 97 -40t40 -97q0 -58 -40 -98t-97 -40t-98 40q-40 40 -40 98t40 97q41 40 98 40zM528 1833q58 0 98 -40t40 -97q0 -58 -40 -98t-98 -40t-97 40q-40 40 -40 98t40 97q40 40 97 40zM1352 1389v-39l-361 -535q-51 -78 -108 -205v-334q0 -136 13 -162t85 -32
l76 -6v-82q-252 6 -319 6t-318 -6v82l76 6q72 6 85 32t13 162v285q-43 100 -90 174l-207 334q-41 63 -105 134t-161 71v76l325 73q76 -43 128 -111t106 -167l219 -416l385 660h158z" />
    <glyph glyph-name="Zcaron" unicode="&#x17d;" horiz-adv-x="1366" 
d="M776 1503h-190l-248 359h113l231 -201l229 201h117zM1006 117q150 0 165 80l31 159h82q-29 -162 -33 -362q-297 6 -568 6t-634 -6v78q133 168 213 284l627 914h-455q-108 0 -138 -16t-40 -78l-16 -113h-76v332l557 -6l555 6v-72q-84 -98 -170 -225l-666 -981h566z" />
    <glyph glyph-name="zcaron" unicode="&#x17e;" 
d="M606 1085h-190l-248 359h113l231 -201l229 201h117zM352 827q-88 1 -116 -23t-39 -97l-7 -52h-77l6 275l14 10q461 -10 525 -10t272 10v-72l-549 -755h334q77 -1 103 27t40 114l10 63h82q-25 -168 -24 -313l-11 -10l-583 6q-41 0 -299 -6v67q170 219 213 279l348 487
h-242z" />
    <glyph glyph-name="florin" unicode="&#x192;" 
d="M999 1440h5l-15 -170h-20q-55 41 -97 41q-106 0 -129 -144l-51 -323h234l-27 -90h-225l-107 -635q-37 -225 -147 -373q-111 -146 -213 -192t-184 -50q12 74 16 181l29 16q29 -51 102 -51q32 0 64 32t40 85l150 987h-229l26 90h215q49 215 150 360q68 96 184 166t229 70z
" />
    <glyph glyph-name="circumflex" unicode="&#x2c6;" horiz-adv-x="681" 
d="M244 1395h190l252 -359h-117l-229 201l-231 -201h-113z" />
    <glyph glyph-name="caron" unicode="&#x2c7;" horiz-adv-x="681" 
d="M434 1044h-190l-248 359h113l231 -201l229 201h117z" />
    <glyph glyph-name="uni02C9" unicode="&#x2c9;" horiz-adv-x="681" 
d="M680 1102h-678v145h678v-145z" />
    <glyph glyph-name="breve" unicode="&#x2d8;" horiz-adv-x="681" 
d="M31 1370h90q27 -178 223 -178q98 0 156 59q57 59 61 115v4h90q-4 -152 -83 -243t-226 -91t-229 90t-82 238v6z" />
    <glyph glyph-name="dotaccent" unicode="&#x2d9;" horiz-adv-x="681" 
d="M342 1446q66 0 110 -44t44 -108t-46 -110q-46 -45 -108 -45t-108 45q-46 46 -46 110t44 108t110 44z" />
    <glyph glyph-name="ring" unicode="&#x2da;" horiz-adv-x="681" 
d="M342 1434q84 0 144 -60t60 -145t-60 -145t-144 -60t-144 60t-60 144t60 146q60 60 144 60zM342 1331q-43 1 -73 -29q-29 -30 -29 -73t30 -73t72 -30q43 0 73 30t29 73q0 43 -29 73q-30 29 -73 29z" />
    <glyph glyph-name="ogonek" unicode="&#x2db;" horiz-adv-x="681" 
d="M322 -461q-116 0 -168 51q-52 52 -54 128q0 76 56 144t127 97h88q-117 -111 -117 -175t24 -95t104 -31t167 104l39 -61q-150 -162 -266 -162z" />
    <glyph glyph-name="tilde" unicode="&#x2dc;" horiz-adv-x="681" 
d="M467 1096q-59 0 -163 50t-159 50q-70 0 -96 -98h-82q3 78 65 167t177 89q57 0 159 -49t143 -49q39 0 61 16t30 30t25 52h88q-61 -258 -248 -258z" />
    <glyph glyph-name="hungarumlaut" unicode="&#x2dd;" horiz-adv-x="681" 
d="M706 1415q42 -1 68 -27t25 -73q0 -47 -39 -72l-338 -207h-111l262 303q35 41 63 59t70 17zM280 1415q42 -1 68 -27t25 -73q0 -47 -39 -72l-338 -207h-111l262 303q35 41 63 59t70 17z" />
    <glyph glyph-name="uni03A9" unicode="&#x3a9;" horiz-adv-x="1339" 
d="M666 1288q-297 0 -297 -551q0 -113 38 -254q37 -141 69 -218t97 -226l-16 -39h-453l-45 305l60 2q29 -85 57 -111t86 -26h178q-63 53 -105 96t-98 118q-116 155 -116 368q0 272 157 438q156 166 396 166t390 -160t150 -432q0 -195 -113 -352q-57 -78 -101 -126t-115 -116
h196q57 0 83 25t55 112l59 -2l-47 -305h-455l-16 39q6 13 50 115t60 148t57 162t44 281q-2 283 -86 413t-219 130z" />
    <glyph glyph-name="uni03BC" unicode="&#x3bc;" horiz-adv-x="1251" 
d="M1200 57q-152 -7 -371 -88l-32 27l8 168l-139 -135q-46 -47 -112 -47t-105 24t-78 96q14 -268 14 -338t-9 -95q-20 -53 -113 -85q-50 -16 -79 -16q-57 0 -57 63q0 16 36 216t36 483v344q0 48 -2 70q-4 47 -52 53l-92 6v74q166 23 232 43l143 45l21 -13v-534
q0 -118 19 -171q19 -54 54 -76t92 -21q106 0 172 104q18 29 19 80v319q0 90 -8 116t-45 28l-93 6v74q166 23 232 43l143 45l21 -13v-671q0 -90 8 -116t45 -28l92 -6v-74z" />
    <glyph glyph-name="pi" unicode="&#x3c0;" horiz-adv-x="1073" 
d="M387 668q0 -203 -27 -359q-26 -156 -50 -211t-46 -88q-63 -27 -129 -35l-14 39q94 128 136 318t42 366q-80 0 -126 -17t-112 -60l-30 53q25 37 60 74q70 73 136 92q66 20 138 20q430 -6 486 -6t78 12q21 12 44 49l51 -14q-16 -129 -68 -205q-31 -10 -120 -10
q-8 -100 -9 -401q0 -172 76 -172q39 0 86 47l25 -47q-35 -61 -93 -99t-118 -39q-184 0 -185 258q0 188 19 457l-250 4v-26z" />
    <glyph glyph-name="endash" unicode="&#x2013;" 
d="M1024 426h-1024v170h1024v-170z" />
    <glyph glyph-name="emdash" unicode="&#x2014;" horiz-adv-x="2048" 
d="M2048 426h-2048v170h2048v-170z" />
    <glyph glyph-name="quoteleft" unicode="&#x2018;" horiz-adv-x="569" 
d="M346 1368l135 55l29 -32q-117 -256 -152 -494q-152 -16 -270 -68l-29 27q97 219 287 512z" />
    <glyph glyph-name="quoteright" unicode="&#x2019;" horiz-adv-x="569" 
d="M223 885l-135 -56l-29 33q117 256 152 494q152 16 270 67l29 -26q-97 -219 -287 -512z" />
    <glyph glyph-name="quotesinglbase" unicode="&#x201a;" horiz-adv-x="681" 
d="M279 -272l-136 -56l-28 33q117 256 151 494q152 16 271 67l28 -26q-96 -219 -286 -512z" />
    <glyph glyph-name="quotedblleft" unicode="&#x201c;" 
d="M791 1368l135 55l28 -32q-117 -256 -151 -494q-152 -16 -271 -68l-28 27q97 219 287 512zM356 1368l136 55l28 -32q-117 -256 -151 -494q-152 -16 -271 -68l-28 27q96 219 286 512z" />
    <glyph glyph-name="quotedblright" unicode="&#x201d;" 
d="M668 885l-136 -56l-28 33q117 256 151 494q152 16 271 67l28 -26q-96 -219 -286 -512zM233 885l-135 -56l-28 33q117 256 151 494q152 16 271 67l28 -26q-97 -219 -287 -512z" />
    <glyph glyph-name="quotedblbase" unicode="&#x201e;" 
d="M668 -272l-136 -56l-28 33q117 256 151 494q152 16 271 67l28 -26q-96 -219 -286 -512zM233 -272l-135 -56l-28 33q117 256 151 494q152 16 271 67l28 -26q-97 -219 -287 -512z" />
    <glyph glyph-name="dagger" unicode="&#x2020;" 
d="M514 -6q-2 0 -137 -6l-12 10l36 766l-335 -16l-7 12l7 96q0 2 -7 94l7 13l335 -17l-32 436l12 15l133 -6l133 6l10 -15l-32 -436l336 17l6 -13q-6 -92 -6 -94l6 -96l-6 -12l-336 16l37 -766l-11 -10q-135 6 -137 6z" />
    <glyph glyph-name="daggerdbl" unicode="&#x2021;" 
d="M512 -496q-2 0 -113 -6l-16 10l33 390l-336 -19l-14 10l6 93l-6 92l14 10l336 -21l-29 388l29 374l-336 -18l-14 10l6 92l-6 92l14 11l336 -21l-33 395l16 11l117 -6l109 6l16 -11l-33 -395l336 21l14 -11l-6 -92l6 -92l-14 -10l-336 18l29 -374l-29 -388l336 21l14 -10
l-6 -92l6 -93l-14 -10l-336 19l33 -390l-16 -10q-111 6 -113 6z" />
    <glyph glyph-name="bullet" unicode="&#x2022;" horiz-adv-x="1241" 
d="M268 705q0 143 104 247t248 104q146 0 249 -104t103 -247t-102 -247q-104 -104 -249 -106q-145 0 -249 105t-104 248z" />
    <glyph glyph-name="ellipsis" unicode="&#x2026;" horiz-adv-x="2048" 
d="M1706 295q64 0 112 -49q48 -50 48 -112t-48 -110t-112 -48t-112 46t-48 110t48 114q49 49 112 49zM1024 295q64 0 112 -49q48 -50 48 -112t-48 -110t-112 -48t-112 46t-48 110t48 114q49 49 112 49zM342 295q64 0 112 -49q48 -50 48 -112t-48 -110t-112 -48t-112 46
t-48 110t48 114q49 49 112 49z" />
    <glyph glyph-name="perthousand" unicode="&#x2030;" horiz-adv-x="2048" 
d="M348 -18h-104l825 1501h105zM1710 602q-59 0 -85 -61t-26 -219q0 -262 111 -263q111 0 111 263q0 158 -26 219t-85 61zM1710 662q135 0 218 -90t83 -248q0 -156 -88 -240t-213 -84t-213 84t-88 240t83 248q83 90 218 90zM1036 602q-59 0 -85 -61t-25 -219
q0 -262 110 -263q111 0 111 263q0 158 -26 219t-85 61zM1036 662q135 0 218 -90t83 -248q0 -156 -88 -240t-213 -84t-213 84t-88 240t83 248q83 90 218 90zM369 1374q-59 0 -85 -61t-26 -219q0 -262 111 -263q111 0 110 263q0 158 -25 219q-26 61 -85 61zM369 1434
q135 0 218 -90t83 -248q0 -156 -88 -240t-213 -84t-213 84t-88 241t83 247t218 90z" />
    <glyph glyph-name="guilsinglleft" unicode="&#x2039;" horiz-adv-x="796" 
d="M573 897l56 -45l-226 -354l226 -367l-56 -41q-262 266 -405 383v51q274 240 405 373z" />
    <glyph glyph-name="guilsinglright" unicode="&#x203a;" horiz-adv-x="796" 
d="M168 852l55 45q131 -133 406 -373v-51q-143 -117 -406 -383l-55 41l225 367z" />
    <glyph glyph-name="fraction" unicode="&#x2044;" horiz-adv-x="342" 
d="M-170 0h-141l825 1352h141z" />
    <glyph glyph-name="Euro" unicode="&#x20ac;" 
d="M669 -35q-196 0 -336 132t-183 368h-119l18 82h88q-4 69 -4 113t2 69h-104l18 82h94q35 227 154 365q150 176 385 176q180 0 313 -82l13 -21q-12 -45 -43 -278h-76l-12 143q-7 61 -63 98t-136 37q-125 0 -200 -121t-93 -317h469l-18 -82h-457v-43q0 -82 8 -139h410
l-19 -82h-379q37 -179 128 -279t218 -100q61 0 127 26t107 68l22 -24l-38 -95q-98 -96 -294 -96z" />
    <glyph glyph-name="afii61289" unicode="&#x2113;" horiz-adv-x="808" 
d="M379 922v-217q154 182 153 444q0 203 -75 203q-47 0 -63 -88t-15 -342zM170 328v145l-104 -76l-27 56l131 100v264q0 215 20 315t80 173q82 113 182 113t150 -75q49 -74 49 -211q1 -137 -67 -265t-205 -267v-166q0 -186 36 -259t130 -73t190 140l43 -39
q-121 -233 -334 -234q-141 0 -206 76q-36 47 -52 105t-16 178z" />
    <glyph glyph-name="trademark" unicode="&#x2122;" horiz-adv-x="2043" 
d="M651 561h-403v53q131 0 131 93v616h-90q-84 0 -116 -31t-34 -112h-61v209h751v-209h-61q-2 82 -34 112t-116 31h-90v-635q0 -74 123 -74v-53zM1868 1276v-561q0 -63 15 -79t85 -22v-53h-354v53q70 2 87 18t17 81v569h-4l-293 -721h-20l-305 721h-4v-602q0 -54 43 -62
q16 -2 59 -4v-53h-268v53q45 2 62 6q40 8 40 64v610q0 27 -9 36t-46 9h-31v50h270l242 -572l242 572h272v-50h-39q-41 0 -51 -13t-10 -50z" />
    <glyph glyph-name="Omega" unicode="&#x2126;" horiz-adv-x="1339" 
d="M666 1288q-297 0 -297 -551q0 -113 38 -254q37 -141 69 -218t97 -226l-16 -39h-453l-45 305l60 2q29 -85 57 -111t86 -26h178q-63 53 -105 96t-98 118q-116 155 -116 368q0 272 157 438q156 166 396 166t390 -160t150 -432q0 -195 -113 -352q-57 -78 -101 -126t-115 -116
h196q57 0 83 25t55 112l59 -2l-47 -305h-455l-16 39q6 13 50 115t60 148t57 162t44 281q-2 283 -86 413t-219 130z" />
    <glyph glyph-name="estimated" unicode="&#x212e;" horiz-adv-x="1669" 
d="M1321 688v379q0 27 -18 45q-201 197 -469 197t-467 -203q-18 -18 -19 -47v-371q0 -12 10 -12h955q8 0 8 12zM1604 639h-1246q-10 0 -10 -8v-377q0 -23 17 -43q199 -205 483 -205t483 230h111q-104 -123 -265 -196t-343 -73q-317 0 -543 202q-225 203 -225 489t225 489
t543 203t544 -203q225 -203 226 -490v-18z" />
    <glyph glyph-name="partialdiff" unicode="&#x2202;" horiz-adv-x="1013" 
d="M549 735h-2q-109 0 -176 -110q-84 -150 -84 -394q0 -90 38 -144t105 -54q100 0 191 207q59 147 90 376q-15 43 -61 81t-101 38zM500 821h2q145 0 227 -116q18 145 23 215q8 172 -45 294q-31 64 -89 106t-137 42q-127 0 -264 -117q-25 -1 -53 57t-12 93q121 78 266 78
q262 0 405 -279q99 -195 99 -465t-93 -467q-135 -293 -403 -293q-158 -1 -253 101t-95 285t115 321q53 66 135 106t172 39z" />
    <glyph glyph-name="Delta" unicode="&#x2206;" horiz-adv-x="1204" 
d="M872 109l-350 925l-340 -925h690zM1139 0h-1076v61l482 1270l92 25l502 -1295v-61z" />
    <glyph glyph-name="product" unicode="&#x220f;" horiz-adv-x="1318" 
d="M1266 1343v-59q-119 -10 -146 -37t-26 -131v-1040q0 -115 26 -144t144 -38v-60h-531v60q102 10 123 35q20 26 21 145v1126q-1 45 -13 56t-57 12h-303q-41 0 -52 -10t-12 -52v-1132q0 -115 18 -143t111 -37v-60h-518v60q117 8 144 38t26 142v1042q0 104 -26 131
q-27 27 -150 37v59h1221z" />
    <glyph glyph-name="summation" unicode="&#x2211;" horiz-adv-x="1046" 
d="M51 -178v57l412 629l-404 776v59h861q8 -139 22 -325l-61 -12q-29 127 -59 181t-67 68q-38 14 -141 15h-292l325 -608l-418 -654h445q127 0 169 34t99 189l62 -14l-86 -395h-867z" />
    <glyph glyph-name="minus" unicode="&#x2212;" horiz-adv-x="1241" 
d="M104 434v176h1033v-176h-1033z" />
    <glyph glyph-name="uni2215" unicode="&#x2215;" horiz-adv-x="342" 
d="M-170 0h-141l825 1352h141z" />
    <glyph glyph-name="uni2219" unicode="&#x2219;" horiz-adv-x="512" 
d="M256 686q64 0 112 -49t48 -111t-48 -111q-48 -48 -112 -48t-112 46q-48 47 -48 111t48 113q49 49 112 49z" />
    <glyph glyph-name="radical" unicode="&#x221a;" horiz-adv-x="1050" 
d="M1026 1690l-328 -2005l-49 -21l-397 1051l-164 -76l-25 74l332 145l281 -780h4l258 1630z" />
    <glyph glyph-name="infinity" unicode="&#x221e;" horiz-adv-x="1429" 
d="M1042 733h-2q-89 0 -186 -105q-12 -13 -37 -43t-31 -36q86 -109 140 -150t125 -41q69 0 113 58t44 134q0 77 -46 130t-120 53zM393 358h2q47 0 97 30t78 62q30 32 75 87q-70 95 -108 132q-66 64 -147 64t-127 -54t-46 -134q0 -79 51 -133t125 -54zM1339 553v-2
q0 -145 -88 -233t-207 -87q-170 0 -327 209q-84 -102 -162 -155q-77 -53 -187 -53t-196 87t-86 225t87 226t218 88q172 0 332 -205q35 39 69 78t87 74q80 53 189 53q110 0 190 -84t81 -221z" />
    <glyph glyph-name="integral" unicode="&#x222b;" horiz-adv-x="747" 
d="M578 1612q58 0 101 -28q42 -28 43 -78t-31 -76t-73 -27q-40 0 -64 55t-42 55q-72 0 -57 -296l34 -715q25 -469 -71 -683t-260 -214q-55 0 -95 31q-39 32 -39 78t36 78q38 32 78 32t65 -60t41 -61q75 0 61 291l-41 776q-24 501 90 686q96 156 224 156z" />
    <glyph glyph-name="approxequal" unicode="&#x2248;" horiz-adv-x="993" 
d="M670 244q-80 0 -188 67t-162 67q-56 0 -91 -34q-35 -35 -75 -100l-88 75q41 84 112 138q72 53 146 53t133 -31l22 -11q38 -19 43 -26q10 -6 30 -19t52 -29t76 -17t77 31q34 32 79 104l86 -76q-43 -86 -108 -139q-64 -53 -144 -53zM674 586q-88 0 -190 66t-152 66
q-82 1 -132 -66q-17 -24 -46 -66l-88 76q41 84 112 137q72 53 151 53t193 -68q102 -66 154 -65q82 0 160 133l86 -76q-96 -190 -248 -190z" />
    <glyph glyph-name="notequal" unicode="&#x2260;" horiz-adv-x="993" 
d="M903 801v-135h-293l-106 -248h399v-135h-450l-88 -207l-107 43l72 164h-244v135h295l104 248h-399v135h451l88 205l106 -43l-72 -162h244z" />
    <glyph glyph-name="lessequal" unicode="&#x2264;" horiz-adv-x="993" 
d="M907 -12h-817v137h817v-137zM899 195l-803 415v146l803 411v-157l-670 -324v-4l670 -328v-159z" />
    <glyph glyph-name="greaterequal" unicode="&#x2265;" horiz-adv-x="993" 
d="M903 -12h-813v137h813v-137zM100 1167l803 -413v-146l-803 -413v159l670 326v4l-670 326v157z" />
    <glyph glyph-name="lozenge" unicode="&#x25ca;" horiz-adv-x="1058" 
d="M817 645l-282 641h-9l-284 -639l286 -643h7zM969 645l-359 -778h-166l-354 778l361 785h161z" />
    <glyph glyph-name="zero.taboldstyle" unicode="&#xf643;" 
d="M540 985q192 -1 314 -141t121 -349q0 -209 -121 -363t-331 -152q-209 0 -323 140t-114 366t131 362q131 137 323 137zM729 461q0 203 -48 311q-49 108 -157 107t-150 -101t-42 -296t55 -296t156 -100q186 0 186 375z" />
    <glyph glyph-name="one.taboldstyle" unicode="&#xf644;" 
d="M659 207q-1 -55 13 -80q29 -53 258 -53v-90q-344 16 -386 16t-409 -16v90q176 0 221 24t45 109v543q0 45 -30 45q-12 0 -134 -43t-145 -43t-26 36v11l-3 10l-6 65l721 152v-82q-43 -6 -62 -12q-20 -6 -38 -32t-19 -75v-575z" />
    <glyph glyph-name="two.taboldstyle" unicode="&#xf645;" 
d="M562 201q101 0 384 12v-229q-377 16 -427 16t-470 -16l-12 41l69 135l158 94q188 113 261 196q73 84 73 158t-50 119t-150 45q-126 0 -251 -125l-49 49q25 31 152 209q138 63 272 63t230 -71q96 -73 96 -189t-79 -208t-255 -195l-164 -96v-4q110 -4 212 -4z" />
    <glyph glyph-name="three.taboldstyle" unicode="&#xf646;" 
d="M651 1q0 142 -69 206q-70 63 -172 63q-20 0 -131 -24l-29 6l37 137q167 10 235 76q68 65 68 143t-52 129t-130 51q-152 0 -281 -124l-41 49l147 209q105 63 263 63q158 1 242 -67t85 -170q-1 -102 -65 -179q-64 -78 -144 -127q287 -53 287 -301q0 -133 -79 -255
q-135 -209 -411 -323q-111 -46 -177 -46q-66 1 -103 31t-115 128l21 54q125 -57 248 -58q176 0 271 94t95 235z" />
    <glyph glyph-name="four.taboldstyle" unicode="&#xf647;" 
d="M524 176v586h-4q-8 -12 -42 -66t-67 -104q-33 -51 -52 -84t-46 -78t-45 -80t-43 -81t-49 -93h348zM770 -406q-65 -13 -250 -77l-24 12q29 254 28 491h-491l-21 86q217 389 529 840q113 23 217 53l20 -14q-16 -264 -20 -809l184 8v-172l-184 8z" />
    <glyph glyph-name="five.taboldstyle" unicode="&#xf648;" 
d="M556 739q-97 0 -286 -4v-284q121 49 247 49t232 -71q56 -38 92 -115t36 -183q1 -213 -217 -413t-525 -201l-131 151l33 41q115 -49 227 -49q154 0 262 96t109 246q0 150 -80 218q-79 67 -185 67t-177 -41l-37 24q8 238 8 346t-14 215q-14 106 -6 126q9 20 26 20l285 -12
h434l-31 -230q-205 4 -302 4z" />
    <glyph glyph-name="six.taboldstyle" unicode="&#xf649;" 
d="M543 86q178 0 178 292q0 144 -59 220q-60 76 -144 76q-182 0 -182 -238q0 -172 55 -261t152 -89zM803 1278q-176 0 -310 -143t-149 -453h4q76 82 140 123t153 41q156 0 239 -108t83 -291t-113 -325t-329 -142t-330 148t-113 415q0 176 50 321q50 144 128 236t177 154
q182 114 370 114l88 -68l-29 -28q-31 6 -59 6z" />
    <glyph glyph-name="seven.taboldstyle" unicode="&#xf64a;" 
d="M552 965q226 0 447 6v-115q-495 -882 -657 -1339h-236l687 1206h-512q-41 0 -57 -12t-25 -52l-35 -176h-70q8 176 8 262l-4 226q228 -6 454 -6z" />
    <glyph glyph-name="eight.taboldstyle" unicode="&#xf64b;" 
d="M725 1040q0 98 -58 160q-59 62 -147 62t-146 -48t-59 -137q1 -133 181 -209l106 -45q123 92 123 217zM254 360q0 -130 77 -202t176 -72t163 65q63 65 63 164t-39 150t-127 90l-174 80q-57 -57 -77 -82t-42 -77q-20 -52 -20 -116zM106 985q0 175 122 279t308 104t274 -90
q87 -90 87 -205q0 -70 -34 -130q-35 -60 -71 -91t-96 -70q62 -27 98 -47t80 -60q84 -78 84 -240t-110 -302q-56 -69 -158 -111t-246 -42t-260 97q-115 97 -114 263q0 127 64 205q65 78 177 131q-205 96 -205 309z" />
    <glyph glyph-name="nine.taboldstyle" unicode="&#xf64c;" 
d="M389 82q-166 0 -253 126t-87 286q0 207 120 349t334 142q215 0 325 -140q110 -141 110 -365t-56 -392t-140 -270t-188 -173q-186 -128 -353 -128l-111 49l8 37q154 4 269 66q115 61 176 159q121 193 121 418q-90 -98 -148 -131t-127 -33zM291 592q0 -144 56 -241t151 -97
q174 0 174 262q0 362 -197 363q-184 -1 -184 -287z" />
    <glyph glyph-name="dollar.taboldstyle" unicode="&#xf653;" 
d="M453 1257q-66 0 -126 -62q-61 -61 -61 -153t52 -144t135 -62v421zM547 547v-465q88 20 144 88q57 68 57 159t-54 149t-147 69zM453 76v491q-201 23 -298 105t-98 272q0 350 396 424l-4 109h102l-4 -109q190 0 338 -68l4 -14q-29 -102 -29 -287h-80q4 117 -10 156t-87 71
t-136 31v-434q187 -30 304 -109q116 -79 116 -272q0 -192 -117 -322t-303 -147l4 -206h-105l7 198q-233 6 -385 82l-7 19q12 115 19 305h82l2 -82q0 -61 22 -99q23 -38 106 -76t161 -38z" />
    <glyph glyph-name="cent.taboldstyle" unicode="&#xf654;" 
d="M825 1135l-51 -166q92 -20 129 -41l10 -19q-29 -125 -36 -303h-78l-13 123q-2 23 -22 43t-41 25l-186 -619q72 -66 182 -66t184 42l19 -23l-43 -96l-9 -8q-127 -61 -258 -62q-39 0 -141 12l-65 -194h-87l74 217q-244 109 -243 430q0 162 61 277q27 51 129 114l106 68
q137 86 242 86l53 160h84zM471 254l170 565q-137 13 -188 -65t-51 -224t69 -276z" />
    </font>
</defs>
</svg>
