<?xml version="1.0" standalone="no"?>
<!DOCTYPE svg PUBLIC "-//W3C//DTD SVG 1.1//EN" "http://www.w3.org/Graphics/SVG/1.1/DTD/svg11.dtd" >
<svg xmlns="http://www.w3.org/2000/svg">
<metadata>
Created by FontPrep 20130207 at Sat Nov  9 21:02:35 2013
 By Michael Hurley
Copyright (c) 1985, 1987, 1989, 1990, 1992, 1997, 1998, 1999, 2002 Adobe Systems Incorporated.  All Rights Reserved. (c) 1981, 1999, 2002 Heidelberger Druckmaschinen AG. All rights reserved.
</metadata>
<defs>
<font id="serif-italic" horiz-adv-x='1024' >
  <font-face 
    font-family="PalatinoLTStd-Italic"
    font-weight="400"
    font-style="italic"
    font-stretch="normal"
    units-per-em="2048"
    panose-1="2 4 5 2 5 5 5 10 3 4"
    ascent="1487"
    descent="-561"
    x-height="987"
    cap-height="1417"
    bbox="-348 -565.009 2068 1880"
    underline-thickness="102"
    underline-position="-102"
    slope="-10"
    unicode-range="U+0020-FB02"
  />
<missing-glyph horiz-adv-x="1165" 
d="M244 1239v-1044l348 522zM305 102h696l-348 523zM715 717l348 -522v1044zM653 809l348 522h-696zM141 0v1434h1024v-1434h-1024z" />
    <glyph glyph-name="f_i" unicode="fi" horiz-adv-x="1081" 
d="M776 142q0 -30 35 -31q35 0 88 43l70 53l18 -41q-227 -186 -307 -184q-72 0 -72 94q0 51 25 141l108 510q16 59 17 78q0 45 -39 45q-14 0 -55 -19l-107 -47h-184q-4 -14 -81 -374t-120 -508q-74 -238 -201 -353t-231 -114q-47 0 -72 16q8 16 27 82q18 66 20 82l29 8
q43 -59 98 -59h2q31 0 53 6q21 6 59 50t73 144t107 503q73 402 87 517h-166l11 45q68 23 176 76l30 162q20 106 40 146t48 72q30 32 122 111t125 92q32 13 70 13t89 -18q-20 -59 -43 -183l-25 -6q-12 39 -42 62t-60 22q-111 0 -162 -254l-43 -229l182 -10h11q56 0 172 51
t133 51q31 1 31 -59t-11 -97l-123 -598q-12 -61 -12 -91zM943 1458q36 0 61 -24q24 -24 24 -69q0 -46 -31 -87t-79 -41q-82 0 -82 88q0 47 35 90q36 43 72 43z" />
    <glyph glyph-name="f_l" unicode="fl" horiz-adv-x="1116" 
d="M793 162q1 -47 31 -47t83 37l99 69l18 -43q-196 -145 -238 -171t-98 -25q-59 0 -59 81q0 39 26 156l172 817q45 196 45 254t-12 70t-67 16l-33 2l-12 -84h-21q-23 76 -115 76t-131 -88q-29 -68 -45 -158l-43 -229q115 0 141 3t78 15l9 -14q-20 -47 -35 -115h-213
q-4 -14 -81 -374t-120 -508q-74 -238 -201 -353t-231 -114q-47 0 -72 16q8 16 27 82q18 66 20 82l29 8q43 -59 98 -59h2q31 0 53 6q21 6 59 50t73 144t107 503q73 402 87 517h-166l11 45q68 23 176 76l30 162q20 106 40 146t48 71t126 107t138 93t78 17t80 -16l-14 -58
q141 0 262 74l33 -16l-252 -1178q-20 -98 -20 -145z" />
    <glyph glyph-name=".notdef" horiz-adv-x="1165" 
d="M244 1239v-1044l348 522zM305 102h696l-348 523zM715 717l348 -522v1044zM653 809l348 522h-696zM141 0v1434h1024v-1434h-1024z" />
    <glyph glyph-name=".null" horiz-adv-x="0" 
 />
    <glyph glyph-name="nonmarkingreturn" horiz-adv-x="681" 
 />
    <glyph glyph-name="space" unicode=" " horiz-adv-x="512" 
 />
    <glyph glyph-name="exclam" unicode="!" horiz-adv-x="681" 
d="M401 1448l174 53l23 -18q-57 -213 -76 -297l-176 -760l-61 -35l-13 6l43 316q45 344 86 735zM273 223q47 -1 73 -29t25 -75q0 -47 -34 -91t-89 -44q-92 0 -92 98q0 53 34 97q36 44 83 44z" />
    <glyph glyph-name="quotedbl" unicode="&#x22;" 
d="M846 1501q38 -1 62 -23t24 -61t-19 -63l-223 -314h-61l127 383q27 78 90 78zM504 1501q38 -1 62 -23t24 -61t-19 -63l-223 -314h-61l127 383q27 78 90 78z" />
    <glyph glyph-name="numbersign" unicode="#" 
d="M680 866h-272l-43 -286h274zM963 580v-115h-224l-63 -465h-119l64 465h-275l-67 -465h-119l67 465h-219v115h238l43 286h-226v115h242l64 436h118l-63 -436h272l62 436h119l-62 -436h199v-115h-215l-41 -286h205z" />
    <glyph glyph-name="dollar" unicode="$" 
d="M555 1286q-119 0 -195 -92t-75 -213q-1 -162 194 -209l82 514h-6zM737 378q0 114 -51 164q-51 49 -164 74l-88 -550q127 0 215 99t88 213zM825 1053v147q-29 34 -87 58t-107 28l-84 -526q164 -24 253 -90t89 -215q-1 -179 -149 -321t-320 -157l-29 -208h-84l41 206
q-248 29 -317 86q25 100 45 297h53v-184q66 -78 236 -108l90 559q-145 29 -227 93q-81 65 -81 200q0 178 122 296t304 160l19 127h76l-21 -123q170 0 275 -69l4 -21q-33 -117 -52 -235h-49z" />
    <glyph glyph-name="percent" unicode="%" horiz-adv-x="1820" 
d="M506 -14h-84l868 1468h90zM1386 608q-78 0 -132 -66q-91 -110 -93 -296q0 -104 42 -152t110 -47q68 0 120 73q86 121 87 305q1 183 -134 183zM1386 655q94 0 183 -68q88 -69 88 -217t-99 -260q-98 -110 -238 -110t-221 85t-81 220t112 243q113 107 256 107zM520 1384
q-78 0 -132 -66q-93 -113 -93 -296q0 -104 42 -152q41 -48 109 -47q68 0 120 73q89 125 89 306q0 182 -135 182zM520 1432q94 0 182 -69t88 -217t-98 -260q-100 -110 -240 -110t-220 85t-80 220t112 243q113 108 256 108z" />
    <glyph glyph-name="ampersand" unicode="&#x26;" horiz-adv-x="1593" 
d="M756 756h-74q-172 0 -294 -94t-122 -264t126 -254q126 -85 298 -85q172 -1 318 101t147 248q0 80 -50 131t-132 51q-45 0 -81 -13t-63 -91q-4 -13 -16 -66l-47 4l16 203q10 12 24 22t34 26q21 16 53 24q33 9 39 11t28 7q22 4 41 9q20 5 37 5l228 37q231 39 231 160
q0 44 -15 66t-63 46l43 33q106 -43 106 -159t-72 -178q-73 -62 -185 -79l-158 -22v-4q12 0 18 -2q127 -39 127 -176t-130 -257q-252 -233 -566 -233q-135 0 -244 35q-110 35 -186 127q-76 93 -76 209q0 211 126 309t302 156q-162 70 -162 202q0 131 121 245q182 170 371 171
q117 0 199 -51q-4 -8 -4 -16l-50 -228h-47v127q-94 66 -190 66t-174 -69t-78 -175q0 -107 75 -161t183 -54q4 0 13 1t16 1q-36 -71 -41 -98v-4z" />
    <glyph glyph-name="quotesingle" unicode="'" horiz-adv-x="681" 
d="M504 1501q38 -1 62 -23t24 -61t-19 -63l-223 -314h-61l127 383q27 78 90 78z" />
    <glyph glyph-name="parenleft" unicode="(" horiz-adv-x="681" 
d="M258 433q0 -300 98 -511l54 -112l-45 -27q-135 215 -195 380q-59 165 -59 407t138 474q138 230 382 457l47 -43q-224 -244 -322 -484t-98 -541z" />
    <glyph glyph-name="parenright" unicode=")" horiz-adv-x="681" 
d="M424 851q0 300 -98 511l-54 113l45 26q135 -215 195 -380t59 -407q0 -242 -138 -474q-138 -230 -382 -457l-47 43q224 244 322 484t98 541z" />
    <glyph glyph-name="asterisk" unicode="*" horiz-adv-x="796" 
d="M156 1245l67 117l21 -2l213 -213l45 289l20 10l127 -37l2 -16l-145 -269l287 52l14 -11l12 -118l-12 -13l-297 39l133 -246l-8 -16l-119 -57l-14 8l-45 291l-219 -201l-25 2l-53 117l8 14l260 115l-262 127z" />
    <glyph glyph-name="plus" unicode="+" horiz-adv-x="1241" 
d="M563 573v459h115v-459h459v-114h-459v-459h-115v459h-459v114h459z" />
    <glyph glyph-name="comma" unicode="," horiz-adv-x="512" 
d="M195 127l16 66l186 59l19 -27q-96 -229 -314 -491l-71 -27l-15 21q116 141 179 399z" />
    <glyph glyph-name="hyphen" unicode="-" horiz-adv-x="681" 
d="M39 457l39 118h545l-37 -118h-547z" />
    <glyph glyph-name="period" unicode="." horiz-adv-x="512" 
d="M225 229q47 -1 73 -29t26 -75t-34 -91t-89 -44q-92 0 -92 98q0 53 34 97q35 44 82 44z" />
    <glyph glyph-name="slash" unicode="/" horiz-adv-x="606" 
d="M803 1501l-762 -1745h-123l762 1745h123z" />
    <glyph glyph-name="zero" unicode="0" 
d="M444 37q195 0 304 405q80 303 80 535t-53 312q-55 83 -165 83q-60 0 -114 -41q-130 -100 -190 -379q-13 -59 -21 -101t-11 -50q-45 -229 -45 -436q0 -328 215 -328zM627 1432q182 0 269 -138t87 -331q0 -338 -117 -617q-156 -369 -438 -369q-102 0 -175 43t-110 119
q-69 142 -69 340q0 322 119 596q153 357 434 357z" />
    <glyph glyph-name="one" unicode="1" 
d="M549 144q0 -41 23 -62q24 -20 98 -25l145 -8l-10 -55q-174 6 -346 6t-348 -6l10 55l174 21q49 6 67 36t31 103l176 1079q-8 -4 -89 -35t-122 -51l-172 -84l-14 10l23 121q250 61 335 99l205 84l31 -23q-47 -227 -49 -235l-152 -895q-16 -94 -16 -135z" />
    <glyph glyph-name="two" unicode="2" 
d="M637 129q109 0 235 23l13 -17l-35 -141q-209 6 -413 6t-412 -6v37q328 348 489 555q84 106 145 236t61 240t-60 173t-171 63q-160 0 -288 -221l-45 19l123 245q115 91 271 91t251 -88q94 -88 94 -246q0 -217 -182 -418l-494 -537l2 -14h416z" />
    <glyph glyph-name="three" unicode="3" 
d="M403 47q150 0 243 131t93 285q0 279 -286 278q-55 0 -150 -32l-12 24l37 88q61 -4 94 -4q129 0 222 87t93 216q0 82 -56 134t-138 52t-127 -25q-45 -26 -105 -93l-43 -49l-39 26l119 203q275 130 458 -5q93 -69 93 -196t-81 -211t-212 -149v-4q150 -31 230 -105t79 -217
q0 -215 -170 -359q-169 -144 -373 -144t-327 90l57 297l50 -11q-8 -57 -9 -90q0 -111 74 -164t186 -53z" />
    <glyph glyph-name="four" unicode="4" 
d="M694 1255l-532 -737l4 -10h403l133 743zM554 0q-167 0 -339 -6l10 55l176 21q49 4 72 26t35 88l41 209h-518v64l690 944l141 31l17 -11l-170 -913h262l8 -10l-33 -113l-108 6h-150l-18 -108q-18 -104 -19 -177q0 -29 74 -36l178 -21l-10 -55q-172 6 -339 6z" />
    <glyph glyph-name="five" unicode="5" 
d="M678 1405q98 0 315 8l13 -18l-72 -119q-170 -10 -293 -10t-256 10l-102 -485l4 -5q47 49 124 76t150 27q160 0 255 -92q95 -91 95 -237q1 -146 -71 -286t-204 -218q-132 -79 -278 -79q-207 0 -329 107q29 90 59 285l47 -11q-6 -37 -6 -67q0 -113 68 -176t192 -64
q164 -1 255 141t91 296q0 310 -260 309q-124 0 -239 -123l-43 18l131 717l16 10q240 -14 338 -14z" />
    <glyph glyph-name="six" unicode="6" 
d="M786 1337q-363 0 -512 -688l5 -4q162 209 354 209q141 0 213 -84t72 -232t-66 -271q-66 -124 -187 -207q-123 -83 -227 -83q-197 0 -270 138q-66 119 -67 308q-1 191 71 387t192 341t232 213t264 68q62 -1 101 -11l-33 -121l-17 -2q-68 39 -125 39zM541 741
q-139 -1 -212 -121t-73 -252t58 -214t160 -82t168 70q120 124 120 341q0 115 -54 187t-167 71z" />
    <glyph glyph-name="seven" unicode="7" 
d="M389 1255q-33 0 -203 -10l-12 8l33 164q186 -12 274 -12h328q72 0 219 4v-72l-258 -415q-252 -403 -483 -928l-80 6l-88 -6l-10 16q126 197 206 326l570 919h-496z" />
    <glyph glyph-name="eight" unicode="8" 
d="M526 846l70 -39q90 51 158 141t68 186t-53 153q-51 59 -155 59t-170 -84t-66 -202t148 -214zM229 315q0 -252 230 -252q123 -1 195 101t73 218q0 116 -37 168t-131 107l-59 35q-117 -51 -194 -156t-77 -221zM682 1432q123 0 201 -64t78 -196q0 -174 -191 -318
q-41 -31 -115 -80q121 -66 174 -129t54 -184q0 -187 -152 -335t-340 -149q-141 0 -229 76q-88 77 -88 221t107 262q108 118 263 185q-205 106 -204 285q0 158 142 292t300 134z" />
    <glyph glyph-name="nine" unicode="9" 
d="M569 1339q-124 1 -196 -115t-72 -253q0 -295 236 -295q113 0 189 103t77 243q0 140 -55 229q-55 88 -179 88zM342 76q201 0 322 256q68 145 124 428l-4 4q-152 -199 -314 -199t-244 93q-81 93 -81 251q-1 201 145 362t332 161t262 -123q75 -123 74 -310q0 -451 -231 -757
q-86 -115 -201 -190t-219 -75t-178 39q-51 182 -63 211l43 17q80 -168 233 -168z" />
    <glyph glyph-name="colon" unicode=":" horiz-adv-x="512" 
d="M326 938q46 0 72 -29t26 -75t-34 -92q-34 -44 -89 -44q-92 0 -92 99q0 53 35 97t82 44zM207 229q47 -1 73 -29t26 -75t-35 -91q-34 -44 -89 -44q-92 0 -92 98q0 53 35 97t82 44z" />
    <glyph glyph-name="semicolon" unicode=";" horiz-adv-x="512" 
d="M350 934q47 0 73 -29t26 -75t-34 -92q-34 -44 -89 -44q-92 0 -93 99q0 53 35 97t82 44zM160 121l16 65l186 60l19 -27q-96 -229 -313 -491l-72 -27l-14 20q115 142 178 400z" />
    <glyph glyph-name="less" unicode="&#x3c;" horiz-adv-x="1241" 
d="M1135 111v-123l-1026 479v111l1026 479v-123l-885 -416z" />
    <glyph glyph-name="equal" unicode="=" horiz-adv-x="1241" 
d="M1137 373v-115h-1033v115h1033zM1137 774v-115h-1033v115h1033z" />
    <glyph glyph-name="greater" unicode="&#x3e;" horiz-adv-x="1241" 
d="M109 -12v123l884 407l-884 416v123l1026 -479v-111z" />
    <glyph glyph-name="question" unicode="?" 
d="M350 223q47 -1 73 -29t26 -75t-34 -91t-89 -44q-92 0 -93 98q0 53 35 97t82 44zM560 1446q126 0 220 -71t94 -215t-151 -286l-213 -204q-102 -96 -102 -152t55 -110l-51 -13q-78 45 -78 138t112 219l144 161q117 133 117 236q1 76 -55 126t-133 50q-77 1 -117 -21
t-80 -85l-41 -62l-45 12q2 8 30 76l51 125q117 76 243 76z" />
    <glyph glyph-name="at" unicode="@" horiz-adv-x="1529" 
d="M483 546q0 -82 34 -142t114 -60q81 0 151 98t101 211q58 212 1 310q-30 49 -87 49q-88 0 -163 -86t-113 -192t-38 -188zM815 -37q-315 0 -537 206t-222 522q0 315 212 535q213 220 533 220q266 0 468 -167q201 -167 201 -419q-1 -353 -305 -526q-90 -51 -164 -51
q-75 0 -113 52t-40 124h-4q-62 -84 -114 -124t-130 -40q-121 0 -197 90t-75 211q0 168 121 305q59 70 145 115t172 45q152 0 180 -166h4l39 147h154l-158 -577q-8 -37 -8 -61t18 -45q63 -76 246 104q59 59 102 163t43 226q0 213 -177 357t-396 145q-285 0 -475 -184
t-190 -468t194 -465q195 -181 483 -182q163 0 305 82t234 223h96q-90 -180 -267 -288t-378 -109z" />
    <glyph glyph-name="A" unicode="A" horiz-adv-x="1478" 
d="M915 1225l-362 -584h442l-75 584h-5zM240 98q0 -34 63 -41l107 -6v-57l-222 6l-227 -6v61l41 11q29 8 46 15t55 45t79 103l764 1215h94l179 -1280q6 -52 19 -74t95 -33l53 -6v-57l-249 6l-250 -6v57l90 6q88 6 88 56l-59 454h-504l-209 -358q-53 -95 -53 -111z" />
    <glyph glyph-name="B" unicode="B" horiz-adv-x="1251" 
d="M563 770q176 0 291 85t115 263q0 223 -250 223h-33q-18 0 -62 -4t-67 -6l-100 -561h106zM571 70q164 0 263 103q98 103 98 257q0 266 -314 266h-174l-104 -612q201 -14 231 -14zM827 1417q232 0 297 -157q20 -49 21 -115q0 -139 -111 -247t-254 -148v-5q160 -18 246 -77
t86 -220t-141 -291t-324 -163q-37 -6 -78 -6l-329 12q-35 0 -102 -3t-85 -3l10 53q3 0 17 3t19 4t27 7t30 12q8 7 15 12t11 28l178 1032q12 74 19 151v7q0 51 -72 53l-108 4l6 57l307 -6l307 6h8z" />
    <glyph glyph-name="C" unicode="C" horiz-adv-x="1366" 
d="M1223 1063v172q-143 102 -357 102t-348 -104q-244 -191 -246 -612q0 -250 123 -400t369 -149q133 0 233 36t232 117l20 -14l-20 -74q-238 -174 -529 -174q-292 0 -450 160t-158 452q0 477 363 723q217 147 477 148q193 0 401 -84q-41 -131 -55 -299h-55z" />
    <glyph glyph-name="D" unicode="D" horiz-adv-x="1593" 
d="M682 84q309 0 478 225t169 547q0 262 -139 374t-412 111l-229 -10l-197 -1141q-8 -49 -8 -75q195 -31 338 -31zM373 1303q0 51 -72 53l-108 4l6 57q246 -6 252 -6l417 6h27q303 0 463 -123t160 -417q0 -240 -123 -444t-334 -331q-103 -61 -195 -85t-217 -23h-20l-381 6
l-191 -6l11 53q8 4 36 9t36 11q9 7 20 15t16 31l178 1032q12 74 19 151v7z" />
    <glyph glyph-name="E" unicode="E" horiz-adv-x="1251" 
d="M545 770q229 0 448 12l8 -14l-38 -92q-180 8 -271 8h-239l-88 -518q-4 -25 -5 -72q158 -14 278 -14t217 8t120 32t41 87l33 123h55q-37 -193 -43 -254t-8 -76q-203 -6 -205 -6l-496 6q-14 0 -291 -6l11 53q6 0 37 7q30 7 34 9q5 1 15 5t14 8t10 9t8 12t5 16l178 1032
q12 74 18 151v7q0 51 -72 53l-110 4l6 57q45 0 143 -4l154 -2q38 0 316 3t339 -3q-33 -117 -43 -311h-49l-16 182q-4 49 -260 49l-226 -8q-10 -20 -18 -66l-86 -487h76z" />
    <glyph glyph-name="F" unicode="F" horiz-adv-x="1138" 
d="M754 1331q-47 0 -203 -8q-11 -21 -19 -66l-94 -555h76q231 0 449 13l8 -15l-39 -92q-180 8 -270 8h-240l-70 -426q-8 -46 -8 -74t15 -42t59 -17l131 -6l-6 -57l-283 6q-27 0 -260 -6l8 57l74 6q51 2 72 23t47 176l153 889q12 74 19 151v7q0 51 -72 53l-115 4l7 57
q49 0 139 -4l133 -2q39 0 506 6q86 0 151 -6q-33 -117 -43 -311h-49l-16 182q-4 49 -260 49z" />
    <glyph glyph-name="G" unicode="G" horiz-adv-x="1478" 
d="M1166 551q150 0 255 10l-4 -57l-65 -12q-47 -10 -56 -43l-47 -277q-2 -8 -2 -18t6 -64l-8 -14q-37 -4 -115 -31q-246 -82 -393 -82q-301 0 -468 151t-167 447q0 467 367 733q211 152 492 152q201 0 421 -84q-41 -131 -55 -299h-55v172q-142 102 -408 102
q-266 1 -424 -201t-157 -544q0 -256 131 -396t385 -141q167 0 282 68l37 190q14 72 14 118t-33 54q-34 8 -138 15l-70 4l10 57q115 -10 265 -10z" />
    <glyph glyph-name="H" unicode="H" horiz-adv-x="1593" 
d="M1290 1303q0 51 -71 53l-99 4l6 57l287 -6q59 0 225 6l-6 -57l-73 -6q-57 -4 -75 -22t-30 -77l-188 -1065q-17 -95 2 -112q18 -18 63 -21l119 -6l-6 -57q-264 6 -294 6t-134 -3t-131 -3l8 57l102 6q51 3 69 21t50 178l82 440q-375 6 -377 6t-377 -6l-86 -506
q-8 -46 -8 -74t14 -42t60 -17l100 -6l-6 -57q-210 6 -234 6t-288 -6l8 57l84 6q51 2 72 23t47 176l151 889q12 74 19 151v7q0 51 -72 53l-96 4l6 57l289 -6q43 0 233 6l-6 -57l-86 -6q-57 -4 -75 -22t-29 -77l-86 -467h757l62 357q12 74 18 151v7z" />
    <glyph glyph-name="I" unicode="I" horiz-adv-x="681" 
d="M272 0q-31 0 -258 -6l6 57l74 6q50 1 72 23t47 176l147 889q14 96 19 151v7q0 51 -72 53l-96 4l6 57l289 -6q72 0 219 6l-6 -57l-72 -6q-57 -4 -77 -22t-27 -77l-178 -1065q-17 -95 2 -112q18 -18 63 -21l107 -6l-7 -57q-227 6 -258 6z" />
    <glyph glyph-name="J" unicode="J" horiz-adv-x="681" 
d="M4 -422q-39 0 -70 21l-6 53q18 -8 74 -8t104 78q47 78 70 235l178 1188q14 96 19 151v7q0 51 -72 53l-96 4l6 57l289 -6q43 0 233 6l-6 -57l-86 -6q-57 -4 -77 -23t-27 -76l-175 -1144q-40 -283 -165 -432q-86 -101 -193 -101z" />
    <glyph glyph-name="K" unicode="K" horiz-adv-x="1366" 
d="M1122 1358v59q129 -6 138 -6l139 6v-55h-43q-55 0 -111 -51l-598 -559l504 -619q63 -78 131 -78h41v-61l-139 6l-142 -6q-158 215 -200 268l-369 434l-84 -506q-8 -46 -8 -74t14 -42t60 -17l100 -6l-6 -57q-209 6 -233 6t-289 -6l8 57l84 6q51 2 71 23t48 176l149 889
q12 74 19 151v7q0 51 -72 53l-96 4l6 57l288 -6q43 0 234 6l-6 -57l-86 -6q-57 -4 -76 -22t-29 -77l-92 -532q184 145 305 268l262 266q78 78 78 101z" />
    <glyph glyph-name="L" unicode="L" horiz-adv-x="1138" 
d="M662 80q172 0 247 18q37 8 64 113l35 127h63q-47 -221 -47 -338q-203 -6 -205 -6l-495 6q-14 0 -291 -6l10 53q5 0 35 7t36 9q5 1 15 5t14 8t11 9t12 28l176 1032q12 74 18 151v7q0 51 -71 53l-96 4l6 57l288 -6q43 0 234 6l-6 -57l-86 -6q-57 -4 -76 -22t-29 -77
l-188 -1089q-4 -25 -4 -72q158 -14 330 -14z" />
    <glyph glyph-name="M" unicode="M" horiz-adv-x="1933" 
d="M1661 121q0 -53 111 -64l75 -6l-6 -57l-270 6q-77 0 -161 -3t-116 -3l6 57l64 6q46 3 66 7t45 22t26 51l76 1053l-4 4l-103 -170q-268 -444 -606 -1061h-47l-303 1176h-4l-252 -942q-14 -49 -14 -90t100 -50l78 -6l-6 -57q-221 6 -240 6q-20 0 -58 -1t-84 -3t-73 -2l6 53
q82 8 118 37t58 106l297 1043q6 20 6 43t-12 40q-24 33 -131 40l-53 4l6 57l172 -6l170 6l307 -1184l504 865q70 119 174 319l172 -6q47 0 99 3q53 3 71 3l-6 -57l-78 -4q-88 -5 -94 -64l-84 -1087q-2 -37 -2 -84z" />
    <glyph glyph-name="N" unicode="N" horiz-adv-x="1593" 
d="M1366 1307q0 47 -74 49l-96 4l10 57q172 -6 217 -6t224 6l-11 -57l-75 -4q-55 -4 -66 -23q-29 -51 -57 -223l-193 -1133h-102l-688 1178h-4l-164 -946q-6 -33 -6 -65t8 -50q12 -31 92 -37l86 -6l-10 -57l-226 6l-227 -6l10 57l64 6q55 6 75 32t35 120l181 971
q10 61 10 69t-27 38q-28 29 -56 47t-81 22l-72 4l11 57l165 -6l166 6l703 -1200h4l164 995q10 72 10 95z" />
    <glyph glyph-name="O" unicode="O" horiz-adv-x="1593" 
d="M877 1360q-156 0 -274 -73q-209 -129 -282 -447q-32 -135 -32 -283q-1 -240 109 -374t345 -134q156 0 276 69q121 68 191 184q142 233 142 540q0 518 -475 518zM676 -37q-299 0 -433 157t-134 460q0 362 239 614q240 252 598 252q274 0 430 -148t156 -407
q0 -258 -106 -466t-304 -335t-446 -127z" />
    <glyph glyph-name="P" unicode="P" horiz-adv-x="1251" 
d="M399 1303q0 51 -71 53l-113 4l6 57q332 -6 340 -6l283 6h16q356 0 357 -311q1 -205 -145 -361t-347 -155q-76 0 -174 47l-4 63q100 -39 160 -38q143 0 236 122t93 274q0 154 -78 220t-235 65q-47 0 -141 -16l-16 -64t-17 -75l-168 -998q-8 -46 -8 -74t14 -42t59 -17
l134 -6l-7 -57l-284 6q-6 0 -271 -6l9 57l84 6q51 3 71 23t47 176l152 889q12 74 18 151v7z" />
    <glyph glyph-name="Q" unicode="Q" horiz-adv-x="1593" 
d="M877 1360q-156 0 -274 -73q-209 -129 -282 -447q-32 -135 -32 -283q-1 -240 109 -374t345 -134q156 0 276 69q121 68 191 184q142 233 142 540q0 518 -475 518zM676 -37q-295 0 -431 155t-136 462q0 362 239 614q240 252 598 252q274 0 430 -148t156 -407
q0 -258 -106 -466t-304 -335t-446 -127zM258 -291q0 106 68 183t162 77t161 -28l484 -197q76 -31 127 -31q127 0 139 162h51q-6 -121 -64 -204t-172 -83q-78 0 -124 16t-129 60l-297 156q-111 59 -197 59q-158 0 -158 -213v-18l-49 26q-2 12 -2 35z" />
    <glyph glyph-name="R" unicode="R" horiz-adv-x="1366" 
d="M643 774q157 0 265 95t108 227q0 248 -260 247q-96 0 -168 -16l-16 -64t-17 -75l-174 -998q-8 -46 -8 -74t14 -42t59 -17l101 -6l-6 -57q-209 6 -233 6t-290 -6l9 57l84 6q51 3 71 23t47 176l154 889q12 74 18 151v7q0 51 -71 53l-115 4l6 57q307 -6 309 -6l308 6h16
q150 -1 246 -65t96 -216t-131 -272q-131 -119 -297 -139l377 -563q41 -61 72 -84t92 -29v-55l-135 6l-136 -6q-10 16 -51 87t-65 107l-375 564l6 22h90z" />
    <glyph glyph-name="S" unicode="S" horiz-adv-x="1138" 
d="M924 1100v155q-76 93 -222 93t-239 -85q-94 -85 -94 -204t47 -178t149 -80l133 -29q139 -32 217 -96t78 -195q0 -223 -183 -370t-413 -148q-74 0 -163 22t-148 56q33 150 49 311h62v-202q115 -88 277 -88t259 92q98 92 98 241q0 170 -165 211l-195 47q-135 33 -192 109
t-58 215q0 197 171 333t372 136q152 0 272 -70q-39 -123 -51 -276h-61z" />
    <glyph glyph-name="T" unicode="T" horiz-adv-x="1251" 
d="M1196 1229q0 51 -10 67q-14 27 -238 27h-149l-193 -1133q-8 -46 -8 -74t14 -42t60 -17l121 -6l-7 -57q-270 6 -298 6t-132 -3t-133 -3l8 57l105 6q50 2 72 24t47 175l176 1067h-230q-145 0 -167 -29t-35 -90l-31 -123h-59l36 336l582 -6q8 0 573 6l-55 -336h-57l8 131v17
z" />
    <glyph glyph-name="U" unicode="U" horiz-adv-x="1593" 
d="M1264 100q0 -35 65 -41l123 -8l-10 -57l-182 6q-20 0 -175 -6l-10 10q35 145 53 250l-4 4q-92 -119 -248 -207t-314 -88q-156 0 -260 83q-103 83 -103 251q0 43 12 125l131 768q14 82 14 114t-15 41t-54 11l-107 4l6 57l187 -6q49 0 105 3q55 3 75 3l-180 -977
q-14 -72 -15 -125q0 -119 83 -177t213 -58t264 82t221 200l129 783q14 96 18 151v7q0 51 -72 53l-98 4l6 57l287 -6q59 0 225 6l-6 -57l-74 -6q-56 -4 -76 -23t-28 -76l-170 -1022q-16 -98 -16 -133z" />
    <glyph glyph-name="V" unicode="V" horiz-adv-x="1478" 
d="M1264 1288q0 55 -117 68l-53 4v57l270 -6l180 6v-57l-37 -4q-43 -4 -69 -27t-58 -78l-774 -1267h-100l-180 1273q-8 59 -33 75t-88 24l-51 4v57q252 -6 254 -6t254 6v-57l-87 -4q-47 -4 -67 -18t-21 -44l146 -1089h6l592 999q33 51 33 84z" />
    <glyph glyph-name="W" unicode="W" horiz-adv-x="1933" 
d="M453 1270v-8l63 -983h4l455 925q66 135 106 230h37l322 -1166h4l299 940q18 60 18 102t-84 46l-80 4l11 57l200 -6q2 0 199 6v-57l-41 -4q-70 -6 -88 -64l-350 -1038q-37 -104 -78 -270h-104q-37 176 -80 331l-230 803l-458 -909q-59 -117 -103 -225h-102q-2 154 -17 340
l-65 880q-5 86 -25 115t-84 37l-37 4v57l238 -6l238 6v-57l-76 -4q-92 -4 -92 -86z" />
    <glyph glyph-name="X" unicode="X" horiz-adv-x="1478" 
d="M1126 0q-136 0 -274 -6v57l78 6q80 1 89 9t9 24t-29 74l-243 463l-373 -473q-21 -25 -21 -55t113 -42l66 -6v-57q-123 6 -241 6t-259 -6v57l57 6q78 10 127 68l488 577l-299 553q-29 53 -61 73t-105 28l-53 4v57l274 -6l270 6v-57l-75 -4q-88 -4 -89 -41q0 -20 29 -78
l213 -408l330 402q47 55 47 88t-92 37l-68 4v57q233 -6 236 -6l233 6v-57l-57 -4q-41 -2 -66 -20t-67 -66l-453 -516l350 -629q20 -37 50 -51t90 -19l51 -4v-57q-139 6 -275 6z" />
    <glyph glyph-name="Y" unicode="Y" horiz-adv-x="1366" 
d="M274 1444q107 0 178 -96q52 -72 94 -171q42 -100 95 -287t66 -249h4q80 209 260 457q96 131 193 216t218 113l-12 -145q-123 -16 -227 -122q-179 -183 -320 -448q-70 -132 -82 -208l-49 -314q-8 -46 -8 -74t14 -42t60 -17l100 -6l-6 -57q-209 6 -257 6q-47 0 -153 -3
t-127 -3l9 57l98 6q52 2 72 23t47 176l43 258v10q0 68 -75 300t-122 321q-84 156 -188 155q-27 0 -86 -24l-7 49q47 33 162 119h6z" />
    <glyph glyph-name="Z" unicode="Z" horiz-adv-x="1366" 
d="M700 1335q-238 0 -368 -26q-45 -152 -56 -217h-53q23 203 23 325q725 -6 727 -6l332 6v-41l-1033 -1296h576q137 0 260 26q45 123 80 230h53q-41 -217 -47 -342q-338 6 -626 6t-527 -6v45l1028 1296h-369z" />
    <glyph glyph-name="bracketleft" unicode="[" horiz-adv-x="681" 
d="M494 1497q60 0 174 4v-57l-181 -14q-29 0 -43 -64q-44 -229 -88 -519t-92 -596t-47 -342q0 -36 57 -42l162 -14l-10 -58l-184 6l-201 -6l-4 10q41 175 86 478q53 287 107 673t69 537l16 8q119 -4 179 -4z" />
    <glyph glyph-name="backslash" unicode="\" horiz-adv-x="1241" 
d="M928 0l-762 1501h123l762 -1501h-123z" />
    <glyph glyph-name="bracketright" unicode="]" horiz-adv-x="681" 
d="M188 -201q-60 0 -174 -4v58l181 14q29 0 43 63q51 258 125 763q75 505 89 590t13 106q0 35 -57 41l-162 14l10 57l184 -6l201 6l4 -10q-42 -177 -86 -477q-53 -287 -107 -673t-69 -538l-16 -8q-119 4 -179 4z" />
    <glyph glyph-name="asciicircum" unicode="^" horiz-adv-x="1241" 
d="M229 580h-125l449 831h135l447 -831h-125l-389 704z" />
    <glyph glyph-name="underscore" unicode="_" 
d="M0 -154h1024v-102h-1024v102z" />
    <glyph glyph-name="grave" unicode="`" horiz-adv-x="681" 
d="M176 1348q0 23 25 41t53 18t68 -37l313 -309h-70l-332 207q-57 35 -57 80z" />
    <glyph glyph-name="a" unicode="a" horiz-adv-x="909" 
d="M633 168q0 -47 31 -47q41 0 87 41q9 8 33 28t33 27l14 -43q-227 -193 -294 -192q-53 0 -53 60t12 116l55 245l-6 3q-78 -115 -164 -210t-143 -139q-111 -80 -155 -80q-72 -1 -73 165q-2 166 80 408t168 304q115 82 174 108q125 55 303 -14l68 37l20 -18l-188 -777
q-2 -6 -2 -22zM466 887q-76 0 -117 -44q-42 -44 -83 -151q-111 -293 -110 -475q0 -53 8 -75t31 -21q49 0 125 74t143 165q133 176 190 488q-111 39 -187 39z" />
    <glyph glyph-name="b" unicode="b" horiz-adv-x="948" 
d="M887 736q0 -166 -93 -361t-241 -296t-264 -102q-78 0 -147 41t-68 107q0 12 2 20l207 1129q4 20 4 51q0 47 -70 47h-98l8 43q187 14 328 86l24 -22l-174 -803l4 -4q131 178 252 247t211 68q49 0 72 -29q43 -56 43 -222zM659 868q-45 0 -115 -38t-120 -91
q-115 -123 -170 -348q-27 -106 -27 -186q0 -131 150 -131q178 0 278 256q84 214 84 376t-80 162z" />
    <glyph glyph-name="c" unicode="c" horiz-adv-x="833" 
d="M700 676v123q0 35 -47 61t-115 27q-68 0 -116 -23q-76 -35 -127 -136q-88 -174 -88 -410t182 -236q86 0 289 133l31 21l16 -41l-102 -84q-160 -133 -320 -134q-252 0 -252 302q-1 169 61 331t163 228t143 90q105 59 184 59q129 0 195 -49q-25 -68 -49 -262h-48z" />
    <glyph glyph-name="d" unicode="d" 
d="M715 166q-1 -45 27 -45t81 35l90 63l21 -39l-166 -123q-100 -76 -147 -75q-59 0 -59 70t32 206l41 164l-8 2q-125 -199 -262 -323t-240 -124q-90 0 -90 218q0 132 34 270q66 268 224 389q131 96 176 114t117 19q72 0 149 -29l58 316q4 20 4 51q0 47 -70 47h-98l8 43
q187 14 328 86l24 -22l-256 -1203q-18 -92 -18 -110zM526 887q-106 0 -149 -31q-78 -55 -136 -266t-59 -377q0 -29 2 -45t16 -32t38 -15q26 0 80 34q54 35 130 105t147 200t95 259l25 121q-83 47 -189 47z" />
    <glyph glyph-name="e" unicode="e" horiz-adv-x="796" 
d="M614 795q0 106 -104 106q-41 0 -94 -24q-122 -56 -185 -316l-18 -76q123 27 209 66t139 105t53 139zM361 74q93 0 262 119l49 34l16 -39q-254 -211 -407 -211q-250 0 -250 263q0 125 57 314t160 267q217 166 340 166q76 0 127 -40t51 -116q0 -190 -254 -301
q-82 -35 -141 -51l-168 -41q-16 -84 -17 -172q0 -192 175 -192z" />
    <glyph glyph-name="f" unicode="f" horiz-adv-x="569" 
d="M-158 -436h2q31 0 53 6q21 6 59 50t73 144t107 503q73 402 87 517h-166l11 45q68 23 176 76l30 162q20 106 40 146t48 71t126 107t138 93t105 17t115 -26q-39 -104 -58 -168l-20 -9q-18 33 -60 57t-85 23q-90 0 -140 -96q-25 -49 -47 -158l-43 -229q115 0 141 3t78 15
l9 -14q-21 -47 -35 -115h-213q-4 -14 -81 -374t-120 -508q-74 -238 -201 -353t-231 -114q-47 0 -72 16q8 16 27 82q18 66 20 82l29 8q43 -59 98 -59z" />
    <glyph glyph-name="g" unicode="g" 
d="M690 684q0 120 -42 178q-42 56 -144 56t-174 -90t-72 -230q0 -254 195 -254q117 0 177 110t60 230zM55 -292q0 -112 89 -164q88 -52 196 -52t210 50q101 50 101 144t-133 195l-158 121q-129 -34 -217 -108t-88 -186zM-76 -328q0 248 404 367q-43 33 -43 71t55 93l80 73
l-4 5q-14 -2 -45 -2q-117 0 -188 61t-70 184q0 231 174 357q150 106 274 106q67 -1 141 -27t103 -92h37q104 0 172 19l6 -13l-19 -92q-67 -8 -97 -8t-75 4q8 -53 9 -71q0 -92 -41 -172t-99 -127q-119 -96 -206 -109q-27 -27 -42 -55q-14 -27 -14 -37q0 -59 96 -135l123 -101
q131 -106 131 -219q0 -78 -56 -146t-134 -102q-154 -69 -291 -69t-250 47q-59 25 -95 74t-36 116z" />
    <glyph glyph-name="h" unicode="h" 
d="M683 848q-54 0 -182 -120t-204 -256t-121 -458l-141 -32l-15 22q82 244 181 791l86 479q4 20 4 51q0 47 -70 47h-98l8 43q187 14 328 86l24 -22l-196 -916l8 -4q127 159 203 231t182 134t162 63q66 0 65 -72q0 -55 -22 -153l-131 -524q-32 -123 12 -123q31 0 125 61
l53 35l21 -37q-258 -194 -326 -192q-63 0 -64 81q0 57 27 156l105 402q31 121 30 184q0 43 -54 43z" />
    <glyph glyph-name="i" unicode="i" horiz-adv-x="569" 
d="M459 1458q82 0 82 -92q0 -47 -31 -88t-80 -41q-82 0 -82 88q0 47 36 90t75 43zM246 848q-12 0 -105 -57l-57 -37l-14 41l57 41q213 152 269 152t57 -54q-1 -29 -13 -74l-157 -622q-32 -123 12 -123q31 0 125 61l53 35l21 -37q-258 -194 -326 -192q-63 0 -64 81
q0 57 27 156l135 492q16 66 17 90q0 47 -37 47z" />
    <glyph glyph-name="j" unicode="j" horiz-adv-x="569" 
d="M461 1458q82 0 82 -92q0 -47 -31 -88t-80 -41q-82 0 -82 88q0 47 36 90t75 43zM-16 -473q55 0 94 178l203 1006q16 88 16 90q0 47 -37 47q-12 0 -104 -57l-58 -37l-14 41l57 41q213 152 269 152t57 -54q0 -29 -12 -74l-156 -717q-45 -211 -82 -338t-116 -249t-148 -121
q-69 0 -96 14l16 117q61 -39 111 -39z" />
    <glyph glyph-name="k" unicode="k" horiz-adv-x="909" 
d="M807 852q-141 0 -318 -176l-28 -29q104 -328 196 -493q27 -48 53 -48t60 21l88 49l16 -39l-94 -65q-127 -90 -163 -90t-76 73q-66 121 -185 475q-109 -104 -137 -260l-47 -254l-137 -34l-19 20q16 66 77 308t91 415l99 549q4 20 4 51q0 47 -70 47h-98l8 43q187 14 328 86
l24 -22l-217 -994l4 -4q143 207 293 357t256 149q51 0 105 -18l-35 -129q-41 12 -78 12z" />
    <glyph glyph-name="l" unicode="l" horiz-adv-x="569" 
d="M252 1372h-98l8 43q187 14 327 86l25 -22l-262 -1241q-14 -72 -14 -82q0 -41 26 -41q31 0 125 61l53 35l21 -37q-145 -109 -217 -151t-109 -41q-63 0 -63 74t52 264q52 192 116 526q63 334 68 382t12 97q0 47 -70 47z" />
    <glyph glyph-name="m" unicode="m" horiz-adv-x="1593" 
d="M760 799q0 49 -21 49q-88 0 -237 -156q-88 -92 -135 -204t-82 -267l-45 -209l-140 -30l-6 22q60 203 114 464t54 333q0 47 -37 47q-12 0 -104 -57l-58 -37l-14 41l57 41q213 152 271 151q49 0 49 -67q0 -35 -12 -84l-64 -258l4 -5q68 90 98 127q95 117 223 202t202 85
q55 0 55 -65q0 -12 -14 -84l-60 -267l4 -4q127 186 340 326q141 94 215 94q55 0 56 -61q0 -8 -15 -80l-153 -608q-32 -123 12 -123q31 0 125 61l53 35l21 -37q-258 -194 -326 -192q-64 0 -64 78t48 226q48 146 106 414q12 60 12 104t-22 44q-54 0 -108 -38t-138 -118
q-170 -160 -231 -461l-43 -219l-142 -30l-10 22q162 681 162 795z" />
    <glyph glyph-name="n" unicode="n" horiz-adv-x="1138" 
d="M664 63q0 39 26 156l107 434q52 195 -13 195q-51 0 -133 -56q-81 -56 -159 -155q-78 -98 -125 -193q-76 -156 -115 -428q-59 -10 -143 -34l-15 22q60 203 114 464t54 333q0 47 -37 47q-12 0 -104 -57l-58 -37l-14 41l57 41q213 152 271 151q49 0 49 -67q0 -35 -12 -84
l-74 -314h8q145 209 273 314q184 152 303 151q66 0 65 -72q0 -55 -22 -153l-125 -524q-32 -123 12 -123q31 0 125 61l53 35l21 -37q-258 -194 -326 -192q-63 0 -63 81z" />
    <glyph glyph-name="o" unicode="o" horiz-adv-x="909" 
d="M383 55q183 0 263 304q40 153 40 288q0 262 -190 262q-82 0 -125 -35q-84 -68 -132 -244t-49 -313q0 -262 193 -262zM303 -23q-268 0 -268 328q0 211 83 376t244 249q111 57 207 57q137 0 205 -87t68 -222q0 -136 -47 -276q-89 -266 -292 -371q-102 -54 -200 -54z" />
    <glyph glyph-name="p" unicode="p" 
d="M193 844q-18 0 -105 -53l-57 -37l-15 41l58 41q213 152 270 151q47 0 47 -67q0 -29 -10 -84l-45 -230l4 -4q68 133 216 259t278 126q119 0 118 -252q0 -101 -47 -245t-106 -234q-92 -135 -297 -236q-86 -43 -127 -43t-139 29l-86 -536q-90 -14 -150 -35l-14 12
q78 350 116 569l95 553q33 179 33 227t-37 48zM440 74q114 0 174 90q80 120 136 278t55 292q0 134 -70 134q-63 0 -112 -28q-123 -72 -214 -214t-116 -288l-37 -217q70 -47 184 -47z" />
    <glyph glyph-name="q" unicode="q" horiz-adv-x="948" 
d="M197 245q0 -124 45 -124q62 -1 174 105q210 197 260 411l43 194q-125 55 -195 56q-115 0 -153 -49q-72 -92 -123 -280t-51 -313zM49 144q0 168 45 341t88 241t169 165q126 96 222 96t215 -49l68 45l29 -12q-27 -82 -56 -242l-151 -807q-49 -246 -64 -452
q-74 -10 -176 -35l-18 28q39 41 55 117l154 834l-4 4q-47 -86 -149 -198t-210 -185q-20 -15 -26 -19q-48 -36 -121 -39q-70 -1 -70 167z" />
    <glyph glyph-name="r" unicode="r" horiz-adv-x="796" 
d="M266 803q0 41 -37 41q-18 0 -104 -53l-57 -37l-15 41l58 41q213 152 270 151q49 0 49 -67q0 -35 -20 -118t-54 -257l4 -4q29 68 150 241l22 33q25 35 31 42t29 36t36 39t42 32q29 23 58 23t58 -12q-24 -118 -32 -227h-29q-31 39 -76 38q-59 0 -175 -142t-167 -386
l-53 -246q-90 -16 -137 -30l-21 14q86 266 152 653q18 113 18 154z" />
    <glyph glyph-name="s" unicode="s" horiz-adv-x="796" 
d="M115 303v-172q77 -72 187 -72q110 1 178 59t67 165q0 63 -29 92t-94 41l-129 24q-199 39 -199 207q0 104 76 180q160 160 326 160q104 0 209 -55q-29 -139 -39 -232h-47v113q-19 43 -79 68t-130 25t-132 -54q-62 -53 -62 -135t43 -106q44 -24 118 -40l88 -16
q217 -39 217 -195q0 -150 -152 -266t-279 -117q-128 0 -235 56q33 127 45 270h52z" />
    <glyph glyph-name="t" unicode="t" horiz-adv-x="681" 
d="M279 156q0 -41 28 -41q35 0 123 61l92 64l21 -37q-207 -166 -265 -194t-100 -27q-63 0 -63 81q0 10 26 156l115 580h-172l4 26q49 12 180 76l51 348q96 37 160 74l23 -31q-47 -141 -92 -403q111 0 225 12l-23 -102h-219q-114 -561 -114 -643z" />
    <glyph glyph-name="u" unicode="u" horiz-adv-x="1138" 
d="M137 68q0 47 8 90l117 553q16 66 17 90q0 43 -37 43q-18 0 -105 -53l-57 -37l-14 41l57 41q213 152 270 151q47 0 47 -67q0 -29 -10 -84l-117 -555q-14 -63 -14 -111t27 -49q43 0 88 33q96 68 200 196t146 243q42 114 74 255l20 104l139 35l15 -18q-100 -383 -142 -587
t-42 -233q0 -28 33 -28q34 0 118 55l53 35l21 -37q-258 -194 -326 -192q-63 0 -64 81q0 39 27 156l66 244l-9 2q-63 -106 -213 -272q-199 -215 -323 -216q-23 0 -47 22t-23 69z" />
    <glyph glyph-name="v" unicode="v" 
d="M977 786q0 -74 -35 -199t-115 -257q-81 -132 -203 -243q-122 -110 -235 -110t-173 79t-60 194q0 289 309 614l-2 4q-57 -8 -109 -8t-108 4h-17q-84 0 -106 -57l-35 -86h-45q39 164 78 242q27 14 54 14t86 -7t157 -7t145 24l21 -37q-281 -334 -281 -647q0 -95 40 -159
t131 -64q92 0 182 106t140 253t50 277t-88 130q-31 0 -56 -19l-22 39l102 97q25 25 68 24q66 0 96 -63q30 -64 31 -138z" />
    <glyph glyph-name="w" unicode="w" horiz-adv-x="1478" 
d="M1432 786q0 -74 -35 -199t-115 -257t-203 -243q-123 -110 -237 -110q-70 -1 -110 61t-40 142t21 185l-4 4q-142 -276 -258 -353q-59 -39 -121 -39q-96 -1 -140 87t-43 191q0 103 41 207t80 162t112 145t83 99q-57 -8 -109 -8t-108 4h-17q-84 0 -106 -57l-35 -86h-45
q39 164 78 242q27 14 54 14t86 -7t157 -7t145 24l21 -37q-182 -201 -258 -442q-29 -92 -29 -244q0 -68 30 -126t91 -58q113 0 262 326q43 96 70 231l59 305l152 45l14 -16l-107 -377q-43 -150 -43 -328q0 -78 29 -132t74 -54q92 0 182 106t140 253t50 277t-88 130
q-31 0 -55 -19l-22 39l102 97q25 25 68 24q67 0 97 -63q30 -64 30 -138z" />
    <glyph glyph-name="x" unicode="x" 
d="M170 111q78 0 209 202l82 127l-23 127q-39 223 -104 271q-20 14 -45 14q-55 0 -139 -98l-35 20l118 170q29 43 101 43q72 1 112 -23q78 -47 105 -253l12 -99l76 113q74 108 118 159q89 105 173 103q29 0 61 -20l-30 -174l-29 -9q-10 47 -72 47h-8q-56 -8 -105 -57
l-24 -24q-17 -17 -44 -56q-27 -40 -30 -43l-71 -100l36 -207q12 -70 43 -152t85 -83q54 0 159 92l19 -39l-101 -90q-104 -94 -174 -95q-109 0 -149 254l-23 142l-156 -240q-100 -156 -213 -156q-41 0 -86 25q25 147 25 178l41 6l22 -57q8 -18 64 -18z" />
    <glyph glyph-name="y" unicode="y" 
d="M100 -346q0 -59 36 -96t91 -37q137 0 238 203q57 119 113 309l96 332l-4 4q-76 -117 -174 -224q-145 -168 -215 -168q-43 0 -68 39q-25 38 -25 96t2 93l35 497v31q0 106 -43 107q-10 0 -55 -27l-98 -59l-23 37l168 114q119 82 149 82t42 -30q12 -29 12 -111t-8 -187
l-31 -397v-24q0 -100 41 -101q31 -1 94 55t121 140q113 162 164 346l71 270q66 6 152 39l23 -18l-289 -901q-82 -252 -207 -410q-176 -223 -354 -223q-70 0 -120 46t-50 120q0 20 2 30l98 70l20 -8q-4 -29 -4 -39z" />
    <glyph glyph-name="z" unicode="z" horiz-adv-x="909" 
d="M549 815q-87 -1 -161 15t-118 16t-77 -10l-62 -119h-43l66 250q68 20 117 20t188 -38t258 -38q39 0 69 29l48 47l18 -18l-12 -66l-686 -774l4 -4q84 39 169 39t185 -24t139 -23q63 0 82 51l45 123h45q-31 -123 -61 -293q-72 -20 -122 -20q-65 -1 -302 58q-67 17 -156 17
q-90 0 -166 -65l-18 55l713 809l-4 4q-72 -41 -158 -41z" />
    <glyph glyph-name="braceleft" unicode="{" horiz-adv-x="681" 
d="M299 500q0 -46 -12 -127l-58 -332q-8 -57 -8 -78q0 -139 137 -168q-152 0 -215 38t-63 147q0 49 12 114l55 320q11 57 11 102q1 92 -127 129q96 27 138 79t58 150l60 353q27 166 111 220q85 54 255 54q-100 -25 -147 -81t-66 -165l-61 -352q-19 -115 -63 -173t-148 -83
v-4q131 -33 131 -143z" />
    <glyph glyph-name="bar" unicode="|" horiz-adv-x="1241" 
d="M563 1536h115v-2048h-115v2048z" />
    <glyph glyph-name="braceright" unicode="}" horiz-adv-x="681" 
d="M383 796q0 46 12 128l58 331q8 57 8 78q0 139 -137 168q152 0 215 -38t63 -146q0 -51 -12 -115l-55 -319q-11 -57 -11 -102q-1 -93 127 -130q-96 -27 -138 -79t-58 -150l-60 -352q-27 -166 -111 -221q-85 -54 -255 -54q100 25 147 81t66 165l61 352q19 115 63 173t148 83
v4q-131 33 -131 143z" />
    <glyph glyph-name="asciitilde" unicode="~" horiz-adv-x="1241" 
d="M848 389q-56 -1 -232 71t-219 72q-83 0 -133 -60t-88 -128l-72 82q61 110 127 174t155 64t251 -73q163 -73 221 -73t115 53t92 123l72 -82q-119 -223 -289 -223z" />
    <glyph glyph-name="uni00A0" unicode="&#xa0;" horiz-adv-x="512" 
 />
    <glyph glyph-name="exclamdown" unicode="&#xa1;" horiz-adv-x="681" 
d="M227 -512l-174 -53l-22 18q57 213 75 297l177 760l61 35l12 -6l-43 -316q-45 -344 -86 -735zM379 956q47 0 73 -28t26 -76q0 -47 -35 -91q-34 -44 -89 -44q-92 0 -92 98q0 53 35 97t82 44z" />
    <glyph glyph-name="cent" unicode="&#xa2;" 
d="M584 887q-99 0 -164 -65q-20 -18 -29 -32q-8 -14 -12 -20t-10 -21t-13 -31t-25 -64q-17 -48 -41 -162t-24 -210t56 -151l286 754q-8 2 -24 2zM766 676v131q0 35 -90 67l-299 -782q27 -10 53 -10q152 0 346 154l15 -41l-123 -101q-141 -117 -334 -117l-70 -174h-65l71 193
q-59 12 -96 63q-59 81 -59 224q0 199 98 401q43 88 109 140t160 102t165 57l55 145h68l-55 -145q76 0 141 -45q-39 -166 -43 -262h-47z" />
    <glyph glyph-name="sterling" unicode="&#xa3;" 
d="M778 -29q-18 -1 -254 41t-292 42q-58 0 -82 -19q-49 -39 -103 -72q-43 20 -43 92q47 25 78 51q100 82 139 263q12 57 43 290h-194l14 72h192q59 403 252 596q122 123 242 123t211 -57q-35 -111 -39 -250h-47v110q0 41 -53 73q-54 32 -126 32t-124 -47t-73 -161
q-22 -114 -91 -419h291l-14 -72h-293q-66 -260 -115 -362q-20 -45 -55 -97t-47 -61l4 -4q91 27 165 27t182 -18t204 -17h36q68 0 97 76l45 123h49l-74 -324q-45 -31 -125 -31z" />
    <glyph glyph-name="currency" unicode="&#xa4;" 
d="M512 1071q-156 0 -264 -105t-107 -259q0 -153 109 -259q108 -106 262 -106t262 105t109 259t-107 260q-108 105 -264 105zM513 1178q183 0 302 -111l117 115l63 -66l-114 -115q109 -111 109 -285t-105 -300l110 -111l-63 -63l-113 108q-131 -114 -307 -114t-307 114
l-113 -108l-63 63l110 111q-104 127 -104 301t108 284l-114 115l63 66l117 -115q121 111 304 111z" />
    <glyph glyph-name="yen" unicode="&#xa5;" 
d="M514 122q0 -34 12 -48t52 -17l84 -6l-5 -57q-178 6 -219 6t-129 -3t-108 -3l6 57l84 6q45 1 59 19t43 180l27 160h-236l13 69h233q4 29 4 57t-14 93h-203l12 70h172l-18 86q-49 233 -94 344q-63 156 -146 155q-23 0 -71 -24v49q59 47 125 117q110 0 181 -180
q93 -236 154 -593h5q260 681 512 756l-9 -143q-96 -16 -184 -132q-88 -115 -199 -347l-39 -88h197l-12 -70h-209q-18 -45 -31 -150h228l-13 -69h-225l-33 -226q-6 -34 -6 -68z" />
    <glyph glyph-name="brokenbar" unicode="&#xa6;" horiz-adv-x="1241" 
d="M563 358h115v-716h-115v716zM563 1382h115v-716h-115v716z" />
    <glyph glyph-name="section" unicode="&#xa7;" 
d="M786 442q0 133 -180 232l-121 67l-123 76q-132 -103 -132 -227t184 -228l237 -135q135 106 135 215zM100 518q0 104 56 176t168 152q-84 88 -84 174q0 117 75 217q25 33 78 85t84 69q94 55 207 55q166 0 264 -82l-63 -264h-51l10 164q-78 90 -223 90q-109 0 -187 -69
t-78 -174t95 -167l86 -57l165 -99q57 -35 83 -52t63 -52q65 -61 65 -165q0 -103 -62 -187t-157 -137q104 -88 105 -203q1 -158 -149 -300t-324 -143q-80 0 -162 28t-135 79l67 289l49 -4l-12 -177q94 -121 270 -120q109 0 191 78t82 186q0 61 -31 109t-64 72q-35 23 -98 58
l-104 58q-209 116 -255 208q-24 48 -24 105z" />
    <glyph glyph-name="dieresis" unicode="&#xa8;" horiz-adv-x="681" 
d="M701 1458q81 0 81 -92q0 -47 -30 -88t-80 -41q-82 0 -82 88q0 47 36 90t75 43zM291 1458q82 0 82 -92q0 -47 -31 -88t-80 -41q-82 0 -82 88q0 47 36 90t75 43z" />
    <glyph glyph-name="copyright" unicode="&#xa9;" horiz-adv-x="1529" 
d="M1079 850h-53q-2 104 -58 162t-163 57q-145 0 -223 -102q-78 -101 -78 -249t81 -263t220 -115q178 0 252 158l43 -19q-37 -94 -131 -148t-203 -55q-180 0 -291 119t-111 305t117 305q117 118 310 117q132 0 288 -53v-219zM762 1356q-268 0 -458 -193t-191 -461
q0 -268 191 -458q192 -190 460 -190t461 190t193 460t-194 462q-194 190 -462 190zM23 702q0 304 217 524t523 220t525 -217t219 -524t-219 -525t-524 -217q-305 0 -523 217t-218 522z" />
    <glyph glyph-name="ordfeminine" unicode="&#xaa;" horiz-adv-x="681" 
d="M530 946q0 -33 25 -33q17 1 51 25q33 24 43 31l8 -25q-153 -117 -189 -117t-36 43q0 20 8 66l31 145l-2 -2l-4 4q-128 -175 -256 -243q-25 -12 -41 -13q-45 -1 -45 91t38 219t85 184q111 111 241 111q45 0 109 -23l43 23l14 -11l-123 -467v-8zM416 1372q-54 0 -78 -24
t-49 -93q-70 -168 -70 -284q0 -55 25 -56q27 -1 87 53t83 85q76 104 129 297q-73 22 -127 22z" />
    <glyph glyph-name="guillemotleft" unicode="&#xab;" 
d="M606 348l-147 166v33q25 23 103 89t120 105l174 160l39 -33l-281 -344l195 -350l-41 -31q-158 201 -162 205zM264 348l-147 166v33q25 23 103 89t120 105l174 160l39 -33l-281 -344l195 -350l-41 -31q-158 201 -162 205z" />
    <glyph glyph-name="logicalnot" unicode="&#xac;" horiz-adv-x="1241" 
d="M1022 242v417h-918v115h1033v-532h-115z" />
    <glyph glyph-name="uni00AD" unicode="&#xad;" horiz-adv-x="681" 
d="M39 457l39 118h545l-37 -118h-547z" />
    <glyph glyph-name="registered" unicode="&#xae;" horiz-adv-x="1529" 
d="M633 1024v-287h55q254 0 254 185q0 86 -51 130t-141 44h-60q-37 0 -47 -18t-10 -54zM420 1135h319q230 0 290 -95q28 -44 28 -122t-66 -132t-162 -67v-4q96 -10 179 -211q40 -98 66 -124t79 -26v-32h-84q-69 0 -101 26t-86 159q-54 134 -82 162t-95 27h-72v-264
q0 -43 10 -58t47 -18l43 -2v-32h-311v32h33q39 0 52 12t13 52v620q0 37 -15 47t-50 13l-35 2v35zM762 1356q-268 0 -458 -193t-191 -461q0 -268 191 -458q192 -190 460 -190t461 190t193 460t-194 462q-194 190 -462 190zM23 702q0 304 217 524t523 220t525 -217t219 -524
t-219 -525t-524 -217q-305 0 -523 217t-218 522z" />
    <glyph glyph-name="macron" unicode="&#xaf;" horiz-adv-x="681" 
d="M791 1206l-23 -104h-616l22 104h617z" />
    <glyph glyph-name="degree" unicode="&#xb0;" horiz-adv-x="819" 
d="M717 1103q0 93 -67 160t-159 67q-93 0 -159 -66t-66 -156v-4q0 -94 66 -160t159 -66t159 66t67 159zM799 1103q0 -126 -90 -216t-217 -90t-218 90q-90 90 -90 217v4q0 125 90 214t218 89t217 -91q90 -91 90 -217z" />
    <glyph glyph-name="plusminus" unicode="&#xb1;" horiz-adv-x="1241" 
d="M1137 0h-1033v115h1033v-115zM563 682v350h115v-350h459v-115h-459v-344h-115v344h-459v115h459z" />
    <glyph glyph-name="two.superior" unicode="&#xb2;" horiz-adv-x="614" 
d="M160 657h266q84 0 152 19l8 -23l-23 -84q-180 4 -268 4t-268 -4v43q190 188 313 335t123 261q0 127 -133 127q-61 0 -102 -29q-40 -30 -78 -96l-37 21l80 147q74 54 175 54t163 -54t63 -147q0 -135 -119 -250l-315 -311v-13z" />
    <glyph glyph-name="three.superior" unicode="&#xb3;" horiz-adv-x="614" 
d="M371 1348q-84 0 -138 -70l-26 -35l-31 21l78 129q88 39 162 39t135 -41t61 -117q0 -131 -190 -217v-4q201 -35 201 -191q0 -129 -111 -216t-244 -87t-211 53l37 179l45 -7q-6 -25 -6 -53q0 -119 168 -119q76 0 135 76t60 162q0 156 -174 156q-35 0 -97 -21l-8 27l23 61
l61 -2q84 0 138 51t55 131q0 41 -40 68t-83 27z" />
    <glyph glyph-name="acute" unicode="&#xb4;" horiz-adv-x="681" 
d="M632 1407q28 0 52 -18t25 -41q0 -45 -58 -80l-332 -207h-69l313 309q41 37 69 37z" />
    <glyph glyph-name="mu" unicode="&#xb5;" horiz-adv-x="1032" 
d="M284 127q20 0 54 25q94 68 200 197q105 130 151 255t69 244l20 104l140 35l14 -18q-100 -383 -142 -587t-42 -233q0 -28 34 -28t117 55l53 35l21 -37q-173 -127 -231 -162t-95 -35q-63 0 -63 82q0 61 26 160l66 244l-8 2q-104 -176 -235 -312q-26 -28 -38 -41t-37 -38
t-41 -38t-43 -35t-57 -24q-82 0 -84 121q-25 -92 -47 -232t-23 -218q-121 -49 -159 -80l-27 22q203 556 281 916t88 446l143 35l14 -18l-127 -523q-35 -150 -34 -217l2 -43q0 -18 10 -38t30 -21z" />
    <glyph glyph-name="paragraph" unicode="&#xb6;" 
d="M293 1010q-1 -184 61 -292t156 -128l129 745q-70 10 -115 11q-113 0 -172 -76t-59 -260zM924 1346h-140l-301 -1733h140zM240 -397q59 1 86 27t43 126l129 756q-166 14 -298 170t-132 361t99 289t253 85h6l430 -6q110 0 229 3t166 3l-10 -61h-47q-74 0 -107 -25t-49 -119
l-256 -1493q-4 -29 -4 -50t16 -39t37 -23q20 -4 54 -4h88l-10 -62l-410 6q-23 0 -385 -6l10 62h62z" />
    <glyph glyph-name="periodcentered" unicode="&#xb7;" horiz-adv-x="512" 
d="M225 639q47 0 73 -29q26 -30 26 -76t-34 -90t-89 -45q-92 0 -92 99q0 53 34 97q35 44 82 44z" />
    <glyph glyph-name="cedilla" unicode="&#xb8;" horiz-adv-x="681" 
d="M242 -127q172 -1 172 -155q0 -82 -79 -121t-163 -39t-190 41l34 59q90 -29 140 -29t80 25t30 65t-28 60q-29 20 -55 20t-81 -12l-18 16l125 197h78l-90 -131q33 4 45 4z" />
    <glyph glyph-name="one.superior" unicode="&#xb9;" horiz-adv-x="614" 
d="M420 681q0 -30 15 -42t63 -14l86 -7l-9 -49q-151 4 -225 4t-225 -4l10 49l101 13q31 4 43 21t20 63l111 614q-16 -8 -60 -24t-65 -27l-111 -49l-10 6l14 88q141 31 219 59l142 50l20 -13q-25 -94 -33 -141l-96 -520q-10 -47 -10 -77z" />
    <glyph glyph-name="ordmasculine" unicode="&#xba;" horiz-adv-x="681" 
d="M434 1384q-57 0 -100 -38q-42 -38 -70 -124q-28 -85 -28 -190q0 -158 124 -158q72 0 120 71q79 117 79 278t-125 161zM309 827q-174 0 -174 197q0 154 94 281t254 127q90 0 133 -52t43 -132q-1 -81 -31 -165t-76 -137t-113 -86t-130 -33z" />
    <glyph glyph-name="guillemotright" unicode="&#xbb;" 
d="M760 696l147 -166v-32q-25 -24 -103 -90t-120 -105l-174 -160l-39 33l281 344l-195 350l41 31q158 -201 162 -205zM418 696l147 -166v-32q-25 -24 -103 -90t-120 -105l-174 -160l-39 33l281 344l-195 350l41 31q158 -201 162 -205z" />
    <glyph glyph-name="onequarter" unicode="&#xbc;" horiz-adv-x="1536" 
d="M430 0h-115l924 1432h115zM288 573q-74 0 -225 -4l11 49l100 13q31 4 43 21t21 63l110 614q-16 -8 -59 -24t-66 -27l-110 -49l-11 6l15 88q141 31 219 59l141 50l21 -13q-25 -94 -33 -141l-96 -520q-21 -99 5 -119q15 -12 62 -14l86 -7l-8 -49q-152 4 -226 4zM915 307
l281 -2l94 461h-14zM1372 231h-88l-14 -57q-8 -35 -8 -77t43 -46l110 -6l-8 -49q-147 4 -218 4t-222 -4l6 49l104 6q31 3 47 19t27 57l27 104h-338v52l448 565l92 18l19 -14l-96 -545h155l6 -16l-22 -66q-37 6 -70 6z" />
    <glyph glyph-name="onehalf" unicode="&#xbd;" horiz-adv-x="1536" 
d="M1042 84h267q84 0 151 18l8 -22l-22 -84q-180 4 -268 4t-269 -4v43q190 188 308 326q129 156 129 270q0 127 -134 127q-61 0 -101 -30t-79 -95l-37 20l80 148q74 53 175 53q102 0 164 -53t63 -148q0 -134 -119 -249l-316 -312v-12zM288 573q-74 0 -225 -4l11 49l100 13
q31 4 43 21t21 63l110 614q-16 -8 -59 -24t-66 -27l-110 -49l-11 6l15 88q141 31 219 59l141 50l21 -13q-25 -94 -33 -141l-96 -520q-21 -99 5 -119q15 -12 62 -14l86 -7l-8 -49q-152 4 -226 4zM381 0h-115l924 1432h115z" />
    <glyph glyph-name="threequarters" unicode="&#xbe;" horiz-adv-x="1536" 
d="M915 307l281 -2l94 461h-14zM1372 231h-88l-14 -57q-8 -35 -8 -77t43 -46l110 -6l-8 -49q-147 4 -218 4t-222 -4l6 49l104 6q31 3 47 19t27 57l27 104h-338v52l448 565l92 18l19 -14l-96 -545h155l6 -16l-22 -66q-37 6 -70 6zM430 0h-115l924 1432h115zM508 1253
q0 41 -40 68t-83 27q-84 0 -137 -70l-27 -35l-31 21l78 129q88 39 162 39t135 -41t62 -117q0 -131 -191 -217v-4q201 -35 201 -191q0 -129 -111 -216q-112 -87 -244 -87t-210 53l37 179l45 -7q-6 -25 -7 -53q0 -119 168 -119q76 0 136 76q59 76 59 162q0 156 -174 156
q-35 0 -96 -21l-9 27l23 61l61 -2q84 0 139 51q54 51 54 131z" />
    <glyph glyph-name="questiondown" unicode="&#xbf;" 
d="M660 956q46 0 72 -28t26 -76q0 -47 -34 -91t-89 -44q-92 0 -92 98q0 53 35 97t82 44zM431 -504q-126 0 -220 71t-94 215t151 286l213 204q103 96 103 152t-56 111l52 12q78 -45 78 -138t-113 -219l-144 -161q-117 -133 -116 -236q0 -76 55 -126t132 -50t117 22t81 85
l41 61l45 -12q-2 -8 -31 -76l-51 -125q-117 -76 -243 -76z" />
    <glyph glyph-name="Agrave" unicode="&#xc0;" horiz-adv-x="1478" 
d="M734 1837q28 0 69 -37l313 -309h-69l-332 207q-57 35 -58 80q0 23 25 41q24 18 52 18zM915 1225l-362 -584h442l-75 584h-5zM240 98q0 -34 63 -41l107 -6v-57l-222 6l-227 -6v61l41 11q29 8 46 15t55 45t79 103l764 1215h94l179 -1280q6 -52 19 -74t95 -33l53 -6v-57
l-249 6l-250 -6v57l90 6q88 6 88 56l-59 454h-504l-209 -358q-53 -95 -53 -111z" />
    <glyph glyph-name="Aacute" unicode="&#xc1;" horiz-adv-x="1478" 
d="M1187 1837q29 0 53 -18t24 -41q0 -45 -58 -80l-332 -207h-69l313 309q41 37 69 37zM915 1225l-362 -584h442l-75 584h-5zM240 98q0 -34 63 -41l107 -6v-57l-222 6l-227 -6v61l41 11q29 8 46 15t55 45t79 103l764 1215h94l179 -1280q6 -52 19 -74t95 -33l53 -6v-57l-249 6
l-250 -6v57l90 6q88 6 88 56l-59 454h-504l-209 -358q-53 -95 -53 -111z" />
    <glyph glyph-name="Acircumflex" unicode="&#xc2;" horiz-adv-x="1478" 
d="M1071 1821l180 -346h-73l-168 213l-281 -213h-80l322 346h100zM915 1225l-362 -584h442l-75 584h-5zM240 98q0 -34 63 -41l107 -6v-57l-222 6l-227 -6v61l41 11q29 8 46 15t55 45t79 103l764 1215h94l179 -1280q6 -52 19 -74t95 -33l53 -6v-57l-249 6l-250 -6v57l90 6
q88 6 88 56l-59 454h-504l-209 -358q-53 -95 -53 -111z" />
    <glyph glyph-name="Atilde" unicode="&#xc3;" horiz-adv-x="1478" 
d="M852 1737q57 0 129 -29l123 -49q27 -10 47 -10q21 0 33 2t31 20q19 19 25 29t24 37h57q-14 -88 -65 -150t-140 -61q-39 0 -125 33l-78 30q-71 27 -105 27t-56 -22t-41 -68h-60q51 211 201 211zM915 1225l-362 -584h442l-75 584h-5zM240 98q0 -34 63 -41l107 -6v-57
l-222 6l-227 -6v61l41 11q29 8 46 15t55 45t79 103l764 1215h94l179 -1280q6 -52 19 -74t95 -33l53 -6v-57l-249 6l-250 -6v57l90 6q88 6 88 56l-59 454h-504l-209 -358q-53 -95 -53 -111z" />
    <glyph glyph-name="Adieresis" unicode="&#xc4;" horiz-adv-x="1478" 
d="M1223 1735q82 -1 82 -93q0 -46 -31 -88t-80 -41q-82 0 -82 89q0 47 36 90t75 43zM813 1735q82 -1 82 -93q0 -46 -31 -88t-80 -41q-82 0 -82 89q0 47 36 90t75 43zM915 1225l-362 -584h442l-75 584h-5zM240 98q0 -34 63 -41l107 -6v-57l-222 6l-227 -6v61l41 11
q29 8 46 15t55 45t79 103l764 1215h94l179 -1280q6 -52 19 -74t95 -33l53 -6v-57l-249 6l-250 -6v57l90 6q88 6 88 56l-59 454h-504l-209 -358q-53 -95 -53 -111z" />
    <glyph glyph-name="Aring" unicode="&#xc5;" horiz-adv-x="1478" 
d="M1012 1880q84 0 144 -59t61 -142v-8q-1 -82 -61 -141q-60 -60 -144 -60t-144 60t-61 141v8q0 82 60 142q61 59 145 59zM1012 1806q-57 0 -92 -36t-35 -95t35 -95t92 -36t92 36t35 95t-35 95t-92 36zM915 1225l-362 -584h442l-75 584h-5zM240 98q0 -34 63 -41l107 -6v-57
l-222 6l-227 -6v61l41 11q29 8 46 15t55 45t79 103l764 1215h94l179 -1280q6 -52 19 -74t95 -33l53 -6v-57l-249 6l-250 -6v57l90 6q88 6 88 56l-59 454h-504l-209 -358q-53 -95 -53 -111z" />
    <glyph glyph-name="AE" unicode="&#xc6;" horiz-adv-x="1927" 
d="M1090 1341q-29 0 -76 -71l-420 -617h414l110 688h-28zM453 55v-61l-222 6l-239 -6v61l69 11q35 4 74 61l754 1116q53 80 1 103q-26 10 -50 10h-135v61q68 0 223 -4l264 -2q38 0 316 3t339 -3q-33 -117 -43 -311h-49l-16 182q-4 49 -219 49l-226 -8q-10 -20 -18 -66
l-86 -487h35q231 0 448 12l8 -14l-39 -92q-180 8 -270 8h-198l-89 -518q-4 -25 -4 -72q159 -14 235 -14t257 12q59 4 82 28t41 87l33 123h55q-37 -193 -43 -254t-8 -76q-203 -6 -205 -6l-455 6q-10 0 -287 -6l11 53q78 13 96 35t25 53l77 436h-454q-12 -20 -35 -56t-31 -50
l-156 -264q-41 -70 -40 -90q0 -55 124 -56h50z" />
    <glyph glyph-name="Ccedilla" unicode="&#xc7;" horiz-adv-x="1366" 
d="M698 -127q172 -1 172 -155q0 -82 -78 -121t-163 -39q-84 0 -191 41l35 59q90 -29 139 -29t80 25t31 65t-29 60t-54 20t-81 -12l-18 16l104 164q-266 14 -409 172t-144 436q0 477 363 723q217 147 477 148q193 0 401 -84q-41 -131 -55 -299h-55v172q-143 102 -357 102
t-348 -104q-244 -191 -246 -612q0 -250 123 -400t369 -149q133 0 233 36t232 117l20 -14l-20 -74q-233 -170 -510 -172l-66 -96q33 4 45 4z" />
    <glyph glyph-name="Egrave" unicode="&#xc8;" horiz-adv-x="1251" 
d="M518 1778q0 23 25 41t53 18t68 -37l313 -309h-70l-332 207q-57 35 -57 80zM545 770q229 0 448 12l8 -14l-38 -92q-180 8 -271 8h-239l-88 -518q-4 -25 -5 -72q158 -14 278 -14t217 8t120 32t41 87l33 123h55q-37 -193 -43 -254t-8 -76q-203 -6 -205 -6l-496 6
q-14 0 -291 -6l11 53q6 0 37 7q30 7 34 9q5 1 15 5t14 8t10 9t8 12t5 16l178 1032q12 74 18 151v7q0 51 -72 53l-110 4l6 57q45 0 143 -4l154 -2q38 0 316 3t339 -3q-33 -117 -43 -311h-49l-16 182q-4 49 -260 49l-226 -8q-10 -20 -18 -66l-86 -487h76z" />
    <glyph glyph-name="Eacute" unicode="&#xc9;" horiz-adv-x="1251" 
d="M1040 1837q28 0 52 -18q25 -18 24 -41q0 -45 -57 -80l-332 -207h-70l314 309q41 37 69 37zM545 770q229 0 448 12l8 -14l-38 -92q-180 8 -271 8h-239l-88 -518q-4 -25 -5 -72q158 -14 278 -14t217 8t120 32t41 87l33 123h55q-37 -193 -43 -254t-8 -76q-203 -6 -205 -6
l-496 6q-14 0 -291 -6l11 53q6 0 37 7q30 7 34 9q5 1 15 5t14 8t10 9t8 12t5 16l178 1032q12 74 18 151v7q0 51 -72 53l-110 4l6 57q45 0 143 -4l154 -2q38 0 316 3t339 -3q-33 -117 -43 -311h-49l-16 182q-4 49 -260 49l-226 -8q-10 -20 -18 -66l-86 -487h76z" />
    <glyph glyph-name="Ecircumflex" unicode="&#xca;" horiz-adv-x="1251" 
d="M903 1821l180 -346h-73l-168 213l-281 -213h-80l322 346h100zM545 770q229 0 448 12l8 -14l-38 -92q-180 8 -271 8h-239l-88 -518q-4 -25 -5 -72q158 -14 278 -14t217 8t120 32t41 87l33 123h55q-37 -193 -43 -254t-8 -76q-203 -6 -205 -6l-496 6q-14 0 -291 -6l11 53
q6 0 37 7q30 7 34 9q5 1 15 5t14 8t10 9t8 12t5 16l178 1032q12 74 18 151v7q0 51 -72 53l-110 4l6 57q45 0 143 -4l154 -2q38 0 316 3t339 -3q-33 -117 -43 -311h-49l-16 182q-4 49 -260 49l-226 -8q-10 -20 -18 -66l-86 -487h76z" />
    <glyph glyph-name="Edieresis" unicode="&#xcb;" horiz-adv-x="1251" 
d="M1067 1735q82 -1 82 -93q0 -46 -31 -88t-80 -41q-82 0 -82 89q0 47 36 90t75 43zM658 1735q82 -1 82 -93q0 -46 -31 -88q-31 -41 -80 -41q-82 0 -82 89q0 47 36 90t75 43zM545 770q229 0 448 12l8 -14l-38 -92q-180 8 -271 8h-239l-88 -518q-4 -25 -5 -72
q158 -14 278 -14t217 8t120 32t41 87l33 123h55q-37 -193 -43 -254t-8 -76q-203 -6 -205 -6l-496 6q-14 0 -291 -6l11 53q6 0 37 7q30 7 34 9q5 1 15 5t14 8t10 9t8 12t5 16l178 1032q12 74 18 151v7q0 51 -72 53l-110 4l6 57q45 0 143 -4l154 -2q38 0 316 3t339 -3
q-33 -117 -43 -311h-49l-16 182q-4 49 -260 49l-226 -8q-10 -20 -18 -66l-86 -487h76z" />
    <glyph glyph-name="Igrave" unicode="&#xcc;" horiz-adv-x="681" 
d="M310 1837q28 0 69 -37l313 -309h-69l-332 207q-57 35 -58 80q0 23 25 41q24 18 52 18zM272 0q-31 0 -258 -6l6 57l74 6q50 1 72 23t47 176l147 889q14 96 19 151v7q0 51 -72 53l-96 4l6 57l289 -6q72 0 219 6l-6 -57l-72 -6q-57 -4 -77 -22t-27 -77l-178 -1065
q-17 -95 2 -112q18 -18 63 -21l107 -6l-7 -57q-227 6 -258 6z" />
    <glyph glyph-name="Iacute" unicode="&#xcd;" horiz-adv-x="681" 
d="M755 1837q29 0 53 -18t23 -41q0 -45 -57 -80l-332 -207h-69l313 309q41 37 69 37zM272 0q-31 0 -258 -6l6 57l74 6q50 1 72 23t47 176l147 889q14 96 19 151v7q0 51 -72 53l-96 4l6 57l289 -6q72 0 219 6l-6 -57l-72 -6q-57 -4 -77 -22t-27 -77l-178 -1065
q-17 -95 2 -112q18 -18 63 -21l107 -6l-7 -57q-227 6 -258 6z" />
    <glyph glyph-name="Icircumflex" unicode="&#xce;" horiz-adv-x="681" 
d="M618 1821l181 -346h-74l-168 213l-281 -213h-79l321 346h100zM272 0q-31 0 -258 -6l6 57l74 6q50 1 72 23t47 176l147 889q14 96 19 151v7q0 51 -72 53l-96 4l6 57l289 -6q72 0 219 6l-6 -57l-72 -6q-57 -4 -77 -22t-27 -77l-178 -1065q-17 -95 2 -112q18 -18 63 -21
l107 -6l-7 -57q-227 6 -258 6z" />
    <glyph glyph-name="Idieresis" unicode="&#xcf;" horiz-adv-x="681" 
d="M783 1735q81 -1 81 -93q0 -46 -30 -88q-31 -41 -80 -41q-82 0 -82 89q0 47 36 90t75 43zM373 1735q82 -1 82 -93q0 -46 -31 -88t-80 -41q-82 0 -82 89q0 47 36 90t75 43zM272 0q-31 0 -258 -6l6 57l74 6q50 1 72 23t47 176l147 889q14 96 19 151v7q0 51 -72 53l-96 4
l6 57l289 -6q72 0 219 6l-6 -57l-72 -6q-57 -4 -77 -22t-27 -77l-178 -1065q-17 -95 2 -112q18 -18 63 -21l107 -6l-7 -57q-227 6 -258 6z" />
    <glyph glyph-name="Eth" unicode="&#xd0;" horiz-adv-x="1593" 
d="M682 84q309 0 478 225t169 547q0 262 -139 374t-412 111l-229 -10l-94 -557h383l-13 -65h-383l-90 -519q-8 -49 -8 -75q195 -31 338 -31zM373 1303q0 51 -72 53l-108 4l6 57q246 -6 252 -6l417 6h27q303 0 463 -123t160 -417q0 -240 -123 -444t-334 -331
q-103 -61 -195 -85t-217 -23h-20l-381 6l-191 -6l11 53q8 4 36 9t36 11q9 7 20 15t16 31l103 596h-240l12 65h240l63 371q12 74 19 151v7z" />
    <glyph glyph-name="Ntilde" unicode="&#xd1;" horiz-adv-x="1593" 
d="M868 1737q57 0 129 -29l123 -49q28 -10 48 -10t32 2t32 20q19 19 25 29t23 37h57q-14 -88 -65 -150t-139 -61q-39 0 -125 33l-78 30q-72 27 -106 27t-55 -22q-22 -22 -42 -68h-59q51 211 200 211zM1366 1307q0 47 -74 49l-96 4l10 57q172 -6 217 -6t224 6l-11 -57l-75 -4
q-55 -4 -66 -23q-29 -51 -57 -223l-193 -1133h-102l-688 1178h-4l-164 -946q-6 -33 -6 -65t8 -50q12 -31 92 -37l86 -6l-10 -57l-226 6l-227 -6l10 57l64 6q55 6 75 32t35 120l181 971q10 61 10 69t-27 38q-28 29 -56 47t-81 22l-72 4l11 57l165 -6l166 6l703 -1200h4
l164 995q10 72 10 95z" />
    <glyph glyph-name="Ograve" unicode="&#xd2;" horiz-adv-x="1593" 
d="M768 1837q28 0 68 -37l313 -309h-70l-331 207q-57 35 -58 80q0 23 25 41t53 18zM877 1360q-156 0 -274 -73q-209 -129 -282 -447q-32 -135 -32 -283q-1 -240 109 -374t345 -134q156 0 276 69q121 68 191 184q142 233 142 540q0 518 -475 518zM676 -37q-299 0 -433 157
t-134 460q0 362 239 614q240 252 598 252q274 0 430 -148t156 -407q0 -258 -106 -466t-304 -335t-446 -127z" />
    <glyph glyph-name="Oacute" unicode="&#xd3;" horiz-adv-x="1593" 
d="M1212 1837q28 0 52 -18q25 -18 24 -41q0 -45 -57 -80l-332 -207h-70l314 309q41 37 69 37zM877 1360q-156 0 -274 -73q-209 -129 -282 -447q-32 -135 -32 -283q-1 -240 109 -374t345 -134q156 0 276 69q121 68 191 184q142 233 142 540q0 518 -475 518zM676 -37
q-299 0 -433 157t-134 460q0 362 239 614q240 252 598 252q274 0 430 -148t156 -407q0 -258 -106 -466t-304 -335t-446 -127z" />
    <glyph glyph-name="Ocircumflex" unicode="&#xd4;" horiz-adv-x="1593" 
d="M1075 1821l180 -346h-73l-168 213l-281 -213h-80l322 346h100zM877 1360q-156 0 -274 -73q-209 -129 -282 -447q-32 -135 -32 -283q-1 -240 109 -374t345 -134q156 0 276 69q121 68 191 184q142 233 142 540q0 518 -475 518zM676 -37q-299 0 -433 157t-134 460
q0 362 239 614q240 252 598 252q274 0 430 -148t156 -407q0 -258 -106 -466t-304 -335t-446 -127z" />
    <glyph glyph-name="Otilde" unicode="&#xd5;" horiz-adv-x="1593" 
d="M868 1737q57 0 129 -29l123 -49q28 -10 48 -10t32 2t32 20q19 19 25 29t23 37h57q-14 -88 -65 -150t-139 -61q-39 0 -125 33l-78 30q-72 27 -106 27t-55 -22q-22 -22 -42 -68h-59q51 211 200 211zM877 1360q-156 0 -274 -73q-209 -129 -282 -447q-32 -135 -32 -283
q-1 -240 109 -374t345 -134q156 0 276 69q121 68 191 184q142 233 142 540q0 518 -475 518zM676 -37q-299 0 -433 157t-134 460q0 362 239 614q240 252 598 252q274 0 430 -148t156 -407q0 -258 -106 -466t-304 -335t-446 -127z" />
    <glyph glyph-name="Odieresis" unicode="&#xd6;" horiz-adv-x="1593" 
d="M1223 1735q82 -1 82 -93q0 -46 -31 -88t-80 -41q-82 0 -82 89q0 47 36 90t75 43zM813 1735q82 -1 82 -93q0 -46 -31 -88t-80 -41q-82 0 -82 89q0 47 36 90t75 43zM877 1360q-156 0 -274 -73q-209 -129 -282 -447q-32 -135 -32 -283q-1 -240 109 -374t345 -134
q156 0 276 69q121 68 191 184q142 233 142 540q0 518 -475 518zM676 -37q-299 0 -433 157t-134 460q0 362 239 614q240 252 598 252q274 0 430 -148t156 -407q0 -258 -106 -466t-304 -335t-446 -127z" />
    <glyph glyph-name="multiply" unicode="&#xd7;" horiz-adv-x="1241" 
d="M539 522l-369 369l84 80l367 -367l366 367l84 -80l-371 -369l371 -368l-84 -80l-366 366l-367 -366l-84 80z" />
    <glyph glyph-name="Oslash" unicode="&#xd8;" horiz-adv-x="1593" 
d="M877 1360q-156 0 -274 -73q-209 -129 -282 -447q-32 -135 -32 -295t55 -277l889 961q-131 131 -356 131zM743 49q156 0 276 69q121 68 191 184q142 233 142 540q0 198 -74 319l-891 -962q117 -150 356 -150zM1532 878q0 -245 -106 -453t-304 -335t-451 -127t-397 125
l-151 -168l-57 49l159 170q-117 152 -116 441q0 362 239 614q240 252 598 252q250 0 408 -129l147 160l60 -54l-152 -161q123 -139 123 -384z" />
    <glyph glyph-name="Ugrave" unicode="&#xd9;" horiz-adv-x="1593" 
d="M734 1837q28 0 69 -37l313 -309h-69l-332 207q-57 35 -58 80q0 23 25 41q24 18 52 18zM1264 100q0 -35 65 -41l123 -8l-10 -57l-182 6q-20 0 -175 -6l-10 10q35 145 53 250l-4 4q-92 -119 -248 -207t-314 -88q-156 0 -260 83q-103 83 -103 251q0 43 12 125l131 768
q14 82 14 114t-15 41t-54 11l-107 4l6 57l187 -6q49 0 105 3q55 3 75 3l-180 -977q-14 -72 -15 -125q0 -119 83 -177t213 -58t264 82t221 200l129 783q14 96 18 151v7q0 51 -72 53l-98 4l6 57l287 -6q59 0 225 6l-6 -57l-74 -6q-56 -4 -76 -23t-28 -76l-170 -1022
q-16 -98 -16 -133z" />
    <glyph glyph-name="Uacute" unicode="&#xda;" horiz-adv-x="1593" 
d="M1199 1837q29 0 53 -18t24 -41q0 -45 -57 -80l-332 -207h-70l313 309q41 37 69 37zM1264 100q0 -35 65 -41l123 -8l-10 -57l-182 6q-20 0 -175 -6l-10 10q35 145 53 250l-4 4q-92 -119 -248 -207t-314 -88q-156 0 -260 83q-103 83 -103 251q0 43 12 125l131 768
q14 82 14 114t-15 41t-54 11l-107 4l6 57l187 -6q49 0 105 3q55 3 75 3l-180 -977q-14 -72 -15 -125q0 -119 83 -177t213 -58t264 82t221 200l129 783q14 96 18 151v7q0 51 -72 53l-98 4l6 57l287 -6q59 0 225 6l-6 -57l-74 -6q-56 -4 -76 -23t-28 -76l-170 -1022
q-16 -98 -16 -133z" />
    <glyph glyph-name="Ucircumflex" unicode="&#xdb;" horiz-adv-x="1593" 
d="M1059 1821l180 -346h-74l-168 213l-280 -213h-80l321 346h101zM1264 100q0 -35 65 -41l123 -8l-10 -57l-182 6q-20 0 -175 -6l-10 10q35 145 53 250l-4 4q-92 -119 -248 -207t-314 -88q-156 0 -260 83q-103 83 -103 251q0 43 12 125l131 768q14 82 14 114t-15 41t-54 11
l-107 4l6 57l187 -6q49 0 105 3q55 3 75 3l-180 -977q-14 -72 -15 -125q0 -119 83 -177t213 -58t264 82t221 200l129 783q14 96 18 151v7q0 51 -72 53l-98 4l6 57l287 -6q59 0 225 6l-6 -57l-74 -6q-56 -4 -76 -23t-28 -76l-170 -1022q-16 -98 -16 -133z" />
    <glyph glyph-name="Udieresis" unicode="&#xdc;" horiz-adv-x="1593" 
d="M1182 1735q82 -1 82 -93q0 -46 -31 -88t-80 -41q-82 0 -82 89q0 47 36 90t75 43zM772 1735q82 -1 82 -93q0 -46 -31 -88t-80 -41q-82 0 -81 89q0 47 35 90q36 43 75 43zM1264 100q0 -35 65 -41l123 -8l-10 -57l-182 6q-20 0 -175 -6l-10 10q35 145 53 250l-4 4
q-92 -119 -248 -207t-314 -88q-156 0 -260 83q-103 83 -103 251q0 43 12 125l131 768q14 82 14 114t-15 41t-54 11l-107 4l6 57l187 -6q49 0 105 3q55 3 75 3l-180 -977q-14 -72 -15 -125q0 -119 83 -177t213 -58t264 82t221 200l129 783q14 96 18 151v7q0 51 -72 53l-98 4
l6 57l287 -6q59 0 225 6l-6 -57l-74 -6q-56 -4 -76 -23t-28 -76l-170 -1022q-16 -98 -16 -133z" />
    <glyph glyph-name="Yacute" unicode="&#xdd;" horiz-adv-x="1366" 
d="M1097 1837q29 0 53 -18t24 -41q0 -45 -58 -80l-332 -207h-69l313 309q41 37 69 37zM274 1444q107 0 178 -96q52 -72 94 -171q42 -100 95 -287t66 -249h4q80 209 260 457q96 131 193 216t218 113l-12 -145q-123 -16 -227 -122q-179 -183 -320 -448q-70 -132 -82 -208
l-49 -314q-8 -46 -8 -74t14 -42t60 -17l100 -6l-6 -57q-209 6 -257 6q-47 0 -153 -3t-127 -3l9 57l98 6q52 2 72 23t47 176l43 258v10q0 68 -75 300t-122 321q-84 156 -188 155q-27 0 -86 -24l-7 49q47 33 162 119h6z" />
    <glyph glyph-name="Thorn" unicode="&#xde;" horiz-adv-x="1251" 
d="M578 1110q57 0 208 4h15q170 0 268 -79t98 -261t-139 -320q-139 -140 -336 -141q-102 0 -186 43l-8 66q74 -37 159 -37q172 0 251 99t79 257t-79 229t-234 70q-45 0 -144 -16q-24 -97 -30 -139l-119 -695q-8 -46 -8 -74t14 -42t59 -17l134 -6l-7 -57l-284 6q-6 0 -271 -6
l9 57l84 6q51 2 71 23t47 176l152 889q12 74 18 151v7q0 51 -71 53l-97 4l7 57l288 -6q43 0 234 6l-6 -57l-86 -6q-58 -4 -76 -22t-29 -77l-26 -145h41z" />
    <glyph glyph-name="germandbls" unicode="&#xdf;" 
d="M797 1501q76 0 139 -55q63 -54 63 -150t-44 -177t-134 -189t-90 -166q0 -59 80 -201q6 -10 19 -33t22 -38t18 -34l16 -32l10 -20q15 -30 15 -72q0 -111 -98 -215q-143 -152 -260 -152q-80 0 -162 43q10 27 27 111q16 84 16 108h41v-114q47 -57 121 -57t128 44
q54 45 54 144q0 55 -28 110l-111 215q-35 70 -35 107t16 62q16 24 20 34q5 10 25 37q19 27 25 36t40 57t43 62t32 50q67 108 67 194q0 46 -11 80t-53 74q-42 39 -123 39t-135 -53q-54 -52 -76 -112t-103 -464l-148 -694q-74 -358 -229 -518q-123 -127 -242 -127q-53 0 -80 8
q25 70 45 170l23 4q49 -61 106 -61t105 48q47 48 67 115q47 152 70 281l139 784h-166l9 45l114 48q66 27 68 43l31 165q20 104 55 152q74 98 228 181t231 83z" />
    <glyph glyph-name="agrave" unicode="&#xe0;" horiz-adv-x="909" 
d="M344 1448q28 0 68 -37l313 -309h-70l-331 207q-57 35 -58 80q0 23 25 41t53 18zM633 168q0 -47 31 -47q41 0 87 41q9 8 33 28t33 27l14 -43q-227 -193 -294 -192q-53 0 -53 60t12 116l55 245l-6 3q-78 -115 -164 -210t-143 -139q-111 -80 -155 -80q-72 -1 -73 165
q-2 166 80 408t168 304q115 82 174 108q125 55 303 -14l68 37l20 -18l-188 -777q-2 -6 -2 -22zM466 887q-76 0 -117 -44q-42 -44 -83 -151q-111 -293 -110 -475q0 -53 8 -75t31 -21q49 0 125 74t143 165q133 176 190 488q-111 39 -187 39z" />
    <glyph glyph-name="aacute" unicode="&#xe1;" horiz-adv-x="909" 
d="M771 1448q29 0 53 -18t24 -41q0 -45 -57 -80l-332 -207h-70l313 309q41 37 69 37zM633 168q0 -47 31 -47q41 0 87 41q9 8 33 28t33 27l14 -43q-227 -193 -294 -192q-53 0 -53 60t12 116l55 245l-6 3q-78 -115 -164 -210t-143 -139q-111 -80 -155 -80q-72 -1 -73 165
q-2 166 80 408t168 304q115 82 174 108q125 55 303 -14l68 37l20 -18l-188 -777q-2 -6 -2 -22zM466 887q-76 0 -117 -44q-42 -44 -83 -151q-111 -293 -110 -475q0 -53 8 -75t31 -21q49 0 125 74t143 165q133 176 190 488q-111 39 -187 39z" />
    <glyph glyph-name="acircumflex" unicode="&#xe2;" horiz-adv-x="909" 
d="M651 1432l180 -347h-73l-168 213l-281 -213h-80l322 347h100zM633 168q0 -47 31 -47q41 0 87 41q9 8 33 28t33 27l14 -43q-227 -193 -294 -192q-53 0 -53 60t12 116l55 245l-6 3q-78 -115 -164 -210t-143 -139q-111 -80 -155 -80q-72 -1 -73 165q-2 166 80 408t168 304
q115 82 174 108q125 55 303 -14l68 37l20 -18l-188 -777q-2 -6 -2 -22zM466 887q-76 0 -117 -44q-42 -44 -83 -151q-111 -293 -110 -475q0 -53 8 -75t31 -21q49 0 125 74t143 165q133 176 190 488q-111 39 -187 39z" />
    <glyph glyph-name="atilde" unicode="&#xe3;" horiz-adv-x="909" 
d="M444 1348q57 0 129 -29l123 -49q28 -10 48 -10t32 2q32 5 80 86h57q-14 -88 -65 -150t-139 -61q-39 0 -125 32l-78 31q-72 27 -106 27q-34 1 -55 -21q-22 -22 -42 -69h-59q51 211 200 211zM633 168q0 -47 31 -47q41 0 87 41q9 8 33 28t33 27l14 -43q-227 -193 -294 -192
q-53 0 -53 60t12 116l55 245l-6 3q-78 -115 -164 -210t-143 -139q-111 -80 -155 -80q-72 -1 -73 165q-2 166 80 408t168 304q115 82 174 108q125 55 303 -14l68 37l20 -18l-188 -777q-2 -6 -2 -22zM466 887q-76 0 -117 -44q-42 -44 -83 -151q-111 -293 -110 -475
q0 -53 8 -75t31 -21q49 0 125 74t143 165q133 176 190 488q-111 39 -187 39z" />
    <glyph glyph-name="adieresis" unicode="&#xe4;" horiz-adv-x="909" 
d="M815 1346q83 0 83 -92q0 -46 -32 -88q-31 -42 -80 -42q-82 0 -81 88q0 47 35 91q36 43 75 43zM406 1346q82 0 82 -92q0 -46 -31 -89q-31 -41 -80 -41q-82 0 -82 88q0 46 36 90t75 44zM633 168q0 -47 31 -47q41 0 87 41q9 8 33 28t33 27l14 -43q-227 -193 -294 -192
q-53 0 -53 60t12 116l55 245l-6 3q-78 -115 -164 -210t-143 -139q-111 -80 -155 -80q-72 -1 -73 165q-2 166 80 408t168 304q115 82 174 108q125 55 303 -14l68 37l20 -18l-188 -777q-2 -6 -2 -22zM466 887q-76 0 -117 -44q-42 -44 -83 -151q-111 -293 -110 -475
q0 -53 8 -75t31 -21q49 0 125 74t143 165q133 176 190 488q-111 39 -187 39z" />
    <glyph glyph-name="aring" unicode="&#xe5;" horiz-adv-x="909" 
d="M604 1491q84 0 144 -59t61 -142v-8q0 -82 -60 -141q-61 -59 -145 -59t-144 58q-60 60 -61 142v8q1 82 61 142t144 59zM604 1417q-57 0 -92 -36t-35 -95t35 -95t92 -36t92 36t35 95t-35 95t-92 36zM633 168q0 -47 31 -47q41 0 87 41q9 8 33 28t33 27l14 -43
q-227 -193 -294 -192q-53 0 -53 60t12 116l55 245l-6 3q-78 -115 -164 -210t-143 -139q-111 -80 -155 -80q-72 -1 -73 165q-2 166 80 408t168 304q115 82 174 108q125 55 303 -14l68 37l20 -18l-188 -777q-2 -6 -2 -22zM466 887q-76 0 -117 -44q-42 -44 -83 -151
q-111 -293 -110 -475q0 -53 8 -75t31 -21q49 0 125 74t143 165q133 176 190 488q-111 39 -187 39z" />
    <glyph glyph-name="ae" unicode="&#xe6;" horiz-adv-x="1306" 
d="M442 516h140q12 37 12 96v29q0 113 -57 181t-168 67q-59 0 -109 -19q-14 -6 -22 -28l-41 -119l-37 10l-13 139q18 10 89 57t116 52q44 6 82 6q207 0 285 -192q227 193 375 192q82 0 132 -42t50 -123q0 -82 -62 -154t-145 -113q-154 -76 -354 -84q-27 -141 -27 -216
t46 -128t118 -53t133 32t108 63q46 32 52 36l41 26l14 -45q-86 -68 -128 -100t-126 -70q-84 -39 -155 -39q-195 0 -242 189q-188 -188 -344 -189q-203 0 -203 209q0 330 440 330zM1012 901q-121 0 -202 -124t-87 -255q211 9 332 120q70 65 69 157q0 49 -30 75t-82 27z
M500 467q-253 0 -321 -129q-28 -53 -27 -131q0 -133 143 -133q79 0 153 72q111 106 130 321h-78z" />
    <glyph glyph-name="ccedilla" unicode="&#xe7;" horiz-adv-x="833" 
d="M299 -127q172 -1 172 -155q0 -82 -79 -121q-78 -39 -162 -39t-191 41l35 59q90 -29 139 -29t80 25t31 65t-29 60t-55 20t-80 -12l-19 16l115 179q-205 27 -205 297q-1 169 61 331t163 228t143 90q105 59 184 59q129 0 195 -49q-25 -68 -49 -262h-48v123q0 35 -47 61
t-115 27q-68 0 -116 -23q-76 -35 -127 -136q-88 -174 -88 -410t182 -236q86 0 289 133l31 21l16 -41l-102 -84q-150 -121 -291 -129l-78 -113q33 4 45 4z" />
    <glyph glyph-name="egrave" unicode="&#xe8;" horiz-adv-x="796" 
d="M209 1389q0 23 24 41q25 18 53 18t68 -37l314 -309h-70l-332 207q-57 35 -57 80zM614 795q0 106 -104 106q-41 0 -94 -24q-122 -56 -185 -316l-18 -76q123 27 209 66t139 105t53 139zM361 74q93 0 262 119l49 34l16 -39q-254 -211 -407 -211q-250 0 -250 263
q0 125 57 314t160 267q217 166 340 166q76 0 127 -40t51 -116q0 -190 -254 -301q-82 -35 -141 -51l-168 -41q-16 -84 -17 -172q0 -192 175 -192z" />
    <glyph glyph-name="eacute" unicode="&#xe9;" horiz-adv-x="796" 
d="M730 1448q28 0 52 -18t25 -41q0 -45 -57 -80l-332 -207h-70l314 309q40 37 68 37zM614 795q0 106 -104 106q-41 0 -94 -24q-122 -56 -185 -316l-18 -76q123 27 209 66t139 105t53 139zM361 74q93 0 262 119l49 34l16 -39q-254 -211 -407 -211q-250 0 -250 263
q0 125 57 314t160 267q217 166 340 166q76 0 127 -40t51 -116q0 -190 -254 -301q-82 -35 -141 -51l-168 -41q-16 -84 -17 -172q0 -192 175 -192z" />
    <glyph glyph-name="ecircumflex" unicode="&#xea;" horiz-adv-x="796" 
d="M635 1432l180 -347h-74l-168 213l-280 -213h-80l322 347h100zM614 795q0 106 -104 106q-41 0 -94 -24q-122 -56 -185 -316l-18 -76q123 27 209 66t139 105t53 139zM361 74q93 0 262 119l49 34l16 -39q-254 -211 -407 -211q-250 0 -250 263q0 125 57 314t160 267
q217 166 340 166q76 0 127 -40t51 -116q0 -190 -254 -301q-82 -35 -141 -51l-168 -41q-16 -84 -17 -172q0 -192 175 -192z" />
    <glyph glyph-name="edieresis" unicode="&#xeb;" horiz-adv-x="796" 
d="M758 1346q82 0 82 -92q0 -46 -31 -88t-80 -42q-82 0 -82 88q0 46 36 90t75 44zM348 1346q82 0 82 -92q0 -46 -31 -88t-80 -42q-82 0 -81 88q0 47 35 91q36 43 75 43zM614 795q0 106 -104 106q-41 0 -94 -24q-122 -56 -185 -316l-18 -76q123 27 209 66t139 105t53 139z
M361 74q93 0 262 119l49 34l16 -39q-254 -211 -407 -211q-250 0 -250 263q0 125 57 314t160 267q217 166 340 166q76 0 127 -40t51 -116q0 -190 -254 -301q-82 -35 -141 -51l-168 -41q-16 -84 -17 -172q0 -192 175 -192z" />
    <glyph glyph-name="igrave" unicode="&#xec;" horiz-adv-x="569" 
d="M172 1448q28 0 68 -37l313 -309h-70l-331 207q-57 35 -58 80q0 23 25 41t53 18zM246 844q-18 0 -105 -53l-57 -37l-14 41l57 41q213 152 269 152t57 -54q-1 -29 -13 -74l-157 -622q-32 -123 12 -123q31 0 125 61l53 35l21 -37q-258 -194 -326 -192q-63 0 -64 81
q0 57 27 156l135 492q16 66 17 90q0 43 -37 43z" />
    <glyph glyph-name="iacute" unicode="&#xed;" horiz-adv-x="569" 
d="M599 1448q29 0 53 -18t24 -41q0 -45 -58 -80l-331 -207h-70l313 309q41 37 69 37zM246 844q-18 0 -105 -53l-57 -37l-14 41l57 41q213 152 269 152t57 -54q-1 -29 -13 -74l-157 -622q-32 -123 12 -123q31 0 125 61l53 35l21 -37q-258 -194 -326 -192q-63 0 -64 81
q0 57 27 156l135 492q16 66 17 90q0 43 -37 43z" />
    <glyph glyph-name="icircumflex" unicode="&#xee;" horiz-adv-x="569" 
d="M481 1432l181 -347h-74l-168 213l-281 -213h-80l322 347h100zM246 844q-18 0 -105 -53l-57 -37l-14 41l57 41q213 152 269 152t57 -54q-1 -29 -13 -74l-157 -622q-32 -123 12 -123q31 0 125 61l53 35l21 -37q-258 -194 -326 -192q-63 0 -64 81q0 57 27 156l135 492
q16 66 17 90q0 43 -37 43z" />
    <glyph glyph-name="idieresis" unicode="&#xef;" horiz-adv-x="569" 
d="M645 1346q83 0 83 -92q0 -46 -32 -88q-31 -42 -80 -42q-82 0 -81 88q0 47 35 91q36 43 75 43zM236 1346q82 0 82 -92q0 -46 -31 -89q-31 -41 -80 -41q-82 0 -82 88q0 46 36 90t75 44zM246 844q-18 0 -105 -53l-57 -37l-14 41l57 41q213 152 269 152t57 -54
q-1 -29 -13 -74l-157 -622q-32 -123 12 -123q31 0 125 61l53 35l21 -37q-258 -194 -326 -192q-63 0 -64 81q0 57 27 156l135 492q16 66 17 90q0 43 -37 43z" />
    <glyph glyph-name="eth" unicode="&#xf0;" horiz-adv-x="909" 
d="M834 725q0 -119 -35 -250q-81 -302 -265 -427q-103 -71 -231 -71q-268 0 -268 328q0 161 57 313t178 261t279 108q68 0 139 -41q0 123 -67 246l-277 -135l-25 59l265 133q-92 129 -215 160l41 92q178 -92 268 -211l276 135l25 -59l-266 -129q51 -97 86 -245t35 -267z
M688 682q0 228 -182 227q-246 0 -303 -423q-12 -89 -13 -169q0 -262 193 -262q84 0 147 67t96 168q62 196 62 392z" />
    <glyph glyph-name="ntilde" unicode="&#xf1;" horiz-adv-x="1138" 
d="M559 1348q57 0 129 -29l123 -49q27 -10 47 -10t32 2t33 20q19 18 25 28t23 38h57q-14 -88 -65 -150t-140 -61q-39 0 -125 32l-77 31q-72 27 -106 27q-33 1 -55 -21t-42 -69h-60q51 211 201 211zM664 63q0 39 26 156l107 434q52 195 -13 195q-51 0 -133 -56
q-81 -56 -159 -155q-78 -98 -125 -193q-76 -156 -115 -428q-59 -10 -143 -34l-15 22q60 203 114 464t54 333q0 47 -37 47q-12 0 -104 -57l-58 -37l-14 41l57 41q213 152 271 151q49 0 49 -67q0 -35 -12 -84l-74 -314h8q145 209 273 314q184 152 303 151q66 0 65 -72
q0 -55 -22 -153l-125 -524q-32 -123 12 -123q31 0 125 61l53 35l21 -37q-258 -194 -326 -192q-63 0 -63 81z" />
    <glyph glyph-name="ograve" unicode="&#xf2;" horiz-adv-x="909" 
d="M250 1389q0 23 24 41t52 18t69 -37l314 -309h-70l-332 207q-57 35 -57 80zM383 55q183 0 263 304q40 153 40 288q0 262 -190 262q-82 0 -125 -35q-84 -68 -132 -244t-49 -313q0 -262 193 -262zM303 -23q-268 0 -268 328q0 211 83 376t244 249q111 57 207 57
q137 0 205 -87t68 -222q0 -136 -47 -276q-89 -266 -292 -371q-102 -54 -200 -54z" />
    <glyph glyph-name="oacute" unicode="&#xf3;" horiz-adv-x="909" 
d="M771 1448q29 0 53 -18t24 -41q0 -45 -57 -80l-332 -207h-70l313 309q41 37 69 37zM383 55q183 0 263 304q40 153 40 288q0 262 -190 262q-82 0 -125 -35q-84 -68 -132 -244t-49 -313q0 -262 193 -262zM303 -23q-268 0 -268 328q0 211 83 376t244 249q111 57 207 57
q137 0 205 -87t68 -222q0 -136 -47 -276q-89 -266 -292 -371q-102 -54 -200 -54z" />
    <glyph glyph-name="ocircumflex" unicode="&#xf4;" horiz-adv-x="909" 
d="M651 1432l180 -347h-73l-168 213l-281 -213h-80l322 347h100zM383 55q183 0 263 304q40 153 40 288q0 262 -190 262q-82 0 -125 -35q-84 -68 -132 -244t-49 -313q0 -262 193 -262zM303 -23q-268 0 -268 328q0 211 83 376t244 249q111 57 207 57q137 0 205 -87t68 -222
q0 -136 -47 -276q-89 -266 -292 -371q-102 -54 -200 -54z" />
    <glyph glyph-name="otilde" unicode="&#xf5;" horiz-adv-x="909" 
d="M444 1348q57 0 129 -29l123 -49q28 -10 48 -10t32 2q32 5 80 86h57q-14 -88 -65 -150t-139 -61q-39 0 -125 32l-78 31q-72 27 -106 27q-34 1 -55 -21q-22 -22 -42 -69h-59q51 211 200 211zM383 55q183 0 263 304q40 153 40 288q0 262 -190 262q-82 0 -125 -35
q-84 -68 -132 -244t-49 -313q0 -262 193 -262zM303 -23q-268 0 -268 328q0 211 83 376t244 249q111 57 207 57q137 0 205 -87t68 -222q0 -136 -47 -276q-89 -266 -292 -371q-102 -54 -200 -54z" />
    <glyph glyph-name="odieresis" unicode="&#xf6;" horiz-adv-x="909" 
d="M815 1346q83 0 83 -92q0 -46 -32 -88q-31 -42 -80 -42q-82 0 -81 88q0 47 35 91q36 43 75 43zM406 1346q82 0 82 -92q0 -46 -31 -89q-31 -41 -80 -41q-82 0 -82 88q0 46 36 90t75 44zM383 55q183 0 263 304q40 153 40 288q0 262 -190 262q-82 0 -125 -35
q-84 -68 -132 -244t-49 -313q0 -262 193 -262zM303 -23q-268 0 -268 328q0 211 83 376t244 249q111 57 207 57q137 0 205 -87t68 -222q0 -136 -47 -276q-89 -266 -292 -371q-102 -54 -200 -54z" />
    <glyph glyph-name="divide" unicode="&#xf7;" horiz-adv-x="1241" 
d="M621 205q47 0 75 -29t27 -74q0 -46 -28 -74q-29 -28 -75 -28t-74 29t-28 73t28 74q28 29 75 29zM621 1032q47 0 75 -28t27 -74q0 -45 -28 -74q-29 -29 -75 -29t-74 29t-28 74q0 46 28 74t75 28zM104 459v114h1033v-114h-1033z" />
    <glyph glyph-name="oslash" unicode="&#xf8;" horiz-adv-x="909" 
d="M496 909q-90 1 -155 -65q-104 -105 -138 -358q-12 -89 -12 -140t4 -92l471 532q-43 123 -170 123zM383 55q84 0 147 67q104 111 142 358q14 92 14 138t-4 91l-471 -533q45 -121 172 -121zM842 660q0 -116 -47 -258q-89 -266 -292 -371q-101 -53 -216 -53t-181 81
l-94 -108l-49 41l109 123q-37 73 -37 191q0 244 134 455q65 101 169 163t233 63q129 0 199 -82l123 139l49 -40l-135 -154q35 -74 35 -190z" />
    <glyph glyph-name="ugrave" unicode="&#xf9;" horiz-adv-x="1138" 
d="M381 1389q0 23 25 41t52 18t68 -37l314 -309h-70l-332 207q-57 35 -57 80zM137 68q0 47 8 90l117 553q16 66 17 90q0 43 -37 43q-18 0 -105 -53l-57 -37l-14 41l57 41q213 152 270 151q47 0 47 -67q0 -29 -10 -84l-117 -555q-14 -63 -14 -111t27 -49q43 0 88 33
q96 68 200 196t146 243q42 114 74 255l20 104l139 35l15 -18q-100 -383 -142 -587t-42 -233q0 -28 33 -28q34 0 118 55l53 35l21 -37q-258 -194 -326 -192q-63 0 -64 81q0 39 27 156l66 244l-9 2q-63 -106 -213 -272q-199 -215 -323 -216q-23 0 -47 22t-23 69z" />
    <glyph glyph-name="uacute" unicode="&#xfa;" horiz-adv-x="1138" 
d="M988 1448q28 0 52 -18t25 -41q0 -45 -57 -80l-332 -207h-70l314 309q40 37 68 37zM137 68q0 47 8 90l117 553q16 66 17 90q0 43 -37 43q-18 0 -105 -53l-57 -37l-14 41l57 41q213 152 270 151q47 0 47 -67q0 -29 -10 -84l-117 -555q-14 -63 -14 -111t27 -49q43 0 88 33
q96 68 200 196t146 243q42 114 74 255l20 104l139 35l15 -18q-100 -383 -142 -587t-42 -233q0 -28 33 -28q34 0 118 55l53 35l21 -37q-258 -194 -326 -192q-63 0 -64 81q0 39 27 156l66 244l-9 2q-63 -106 -213 -272q-199 -215 -323 -216q-23 0 -47 22t-23 69z" />
    <glyph glyph-name="ucircumflex" unicode="&#xfb;" horiz-adv-x="1138" 
d="M766 1432l180 -347h-74l-167 213l-281 -213h-80l322 347h100zM137 68q0 47 8 90l117 553q16 66 17 90q0 43 -37 43q-18 0 -105 -53l-57 -37l-14 41l57 41q213 152 270 151q47 0 47 -67q0 -29 -10 -84l-117 -555q-14 -63 -14 -111t27 -49q43 0 88 33q96 68 200 196
t146 243q42 114 74 255l20 104l139 35l15 -18q-100 -383 -142 -587t-42 -233q0 -28 33 -28q34 0 118 55l53 35l21 -37q-258 -194 -326 -192q-63 0 -64 81q0 39 27 156l66 244l-9 2q-63 -106 -213 -272q-199 -215 -323 -216q-23 0 -47 22t-23 69z" />
    <glyph glyph-name="udieresis" unicode="&#xfc;" horiz-adv-x="1138" 
d="M930 1346q82 0 82 -92q0 -46 -31 -88t-80 -42q-82 0 -82 88q0 46 36 90t75 44zM520 1346q82 0 82 -92q0 -46 -30 -88t-80 -42q-82 0 -82 88q0 47 35 91q36 43 75 43zM137 68q0 47 8 90l117 553q16 66 17 90q0 43 -37 43q-18 0 -105 -53l-57 -37l-14 41l57 41
q213 152 270 151q47 0 47 -67q0 -29 -10 -84l-117 -555q-14 -63 -14 -111t27 -49q43 0 88 33q96 68 200 196t146 243q42 114 74 255l20 104l139 35l15 -18q-100 -383 -142 -587t-42 -233q0 -28 33 -28q34 0 118 55l53 35l21 -37q-258 -194 -326 -192q-63 0 -64 81
q0 39 27 156l66 244l-9 2q-63 -106 -213 -272q-199 -215 -323 -216q-23 0 -47 22t-23 69z" />
    <glyph glyph-name="yacute" unicode="&#xfd;" 
d="M931 1448q29 0 53 -18t24 -41q0 -45 -58 -80l-332 -207h-69l313 309q41 37 69 37zM100 -346q0 -59 36 -96t91 -37q137 0 238 203q57 119 113 309l96 332l-4 4q-76 -117 -174 -224q-145 -168 -215 -168q-43 0 -68 39q-25 38 -25 96t2 93l35 497v31q0 106 -43 107
q-10 0 -55 -27l-98 -59l-23 37l168 114q119 82 149 82t42 -30q12 -29 12 -111t-8 -187l-31 -397v-24q0 -100 41 -101q31 -1 94 55t121 140q113 162 164 346l71 270q66 6 152 39l23 -18l-289 -901q-82 -252 -207 -410q-176 -223 -354 -223q-70 0 -120 46t-50 120q0 20 2 30
l98 70l20 -8q-4 -29 -4 -39z" />
    <glyph glyph-name="thorn" unicode="&#xfe;" 
d="M270 1325q0 47 -69 47h-99l9 43q186 14 327 86l25 -22l-189 -873l5 -4q63 131 211 258t278 127q119 0 119 -252q0 -101 -47 -245t-107 -234q-92 -135 -297 -236q-86 -43 -127 -43t-139 29l-86 -536l-150 -35l-14 12q66 295 117 569l229 1258q4 20 4 51zM375 74
q115 0 174 90q80 120 135 278t55 292t-69 134q-63 0 -113 -28q-123 -72 -214 -214t-116 -288l-37 -217q70 -47 185 -47z" />
    <glyph glyph-name="ydieresis" unicode="&#xff;" 
d="M873 1346q81 0 81 -92q0 -46 -30 -89q-31 -41 -80 -41q-82 0 -82 88q0 46 36 90t75 44zM463 1346q82 0 82 -92q0 -46 -31 -88t-80 -42q-82 0 -82 88q0 46 36 90t75 44zM100 -346q0 -59 36 -96t91 -37q137 0 238 203q57 119 113 309l96 332l-4 4q-76 -117 -174 -224
q-145 -168 -215 -168q-43 0 -68 39q-25 38 -25 96t2 93l35 497v31q0 106 -43 107q-10 0 -55 -27l-98 -59l-23 37l168 114q119 82 149 82t42 -30q12 -29 12 -111t-8 -187l-31 -397v-24q0 -100 41 -101q31 -1 94 55t121 140q113 162 164 346l71 270q66 6 152 39l23 -18
l-289 -901q-82 -252 -207 -410q-176 -223 -354 -223q-70 0 -120 46t-50 120q0 20 2 30l98 70l20 -8q-4 -29 -4 -39z" />
    <glyph glyph-name="dotlessi" unicode="&#x131;" horiz-adv-x="569" 
d="M246 844q-18 0 -105 -53l-57 -37l-14 41l57 41q213 152 269 152t57 -54q-1 -29 -13 -74l-157 -622q-32 -123 12 -123q31 0 125 61l53 35l21 -37q-258 -194 -326 -192q-63 0 -64 81q0 57 27 156l135 492q16 66 17 90q0 43 -37 43z" />
    <glyph glyph-name="Lslash" unicode="&#x141;" horiz-adv-x="1138" 
d="M360 1303q0 51 -71 53l-96 4l6 57l288 -6q43 0 234 6l-6 -57l-86 -6q-57 -4 -75 -22t-30 -77l-80 -464l293 157l25 -59l-332 -176l-94 -547q-4 -25 -4 -72q158 -14 330 -14t247 18q37 8 64 113l35 127h63q-47 -221 -47 -338q-203 -6 -205 -6l-495 6q-14 0 -291 -6l10 53
q5 0 35 7t36 9q5 1 15 5t14 8t11 9t12 28l86 503l-260 -139l-25 60l299 159l76 449q12 74 18 151v7z" />
    <glyph glyph-name="lslash" unicode="&#x142;" horiz-adv-x="569" 
d="M252 1372h-98l8 43q187 14 327 86l25 -22l-125 -590l205 127l24 -60l-247 -153l-119 -565q-14 -72 -14 -82q0 -41 26 -41q31 0 125 61l53 35l21 -37q-145 -109 -217 -151t-109 -41q-63 0 -63 81q0 39 26 156l99 475l-195 -121l-24 60l237 147l100 494q4 20 5 51
q0 47 -70 47z" />
    <glyph glyph-name="OE" unicode="&#x152;" horiz-adv-x="2105" 
d="M1239 1018q0 166 -94 254t-260 88t-281 -74q-200 -128 -276 -446q-33 -133 -33 -271q0 -221 95 -371t283 -149q189 -1 325 153t171 351l60 346q10 53 10 119zM1657 1331q-10 0 -191 -8q-10 -20 -18 -66l-80 -487h35q231 0 448 12l9 -14l-39 -92q-180 8 -271 8h-198
l-88 -518q-4 -25 -4 -72q86 -14 198 -14t293 12q59 4 82 28t41 87l33 123h55q-37 -193 -43 -254t-8 -76q-203 -6 -205 -6l-455 6l-145 -6h-4q-25 0 -25 18q0 8 8 41l27 121l-4 4q-186 -215 -458 -215t-404 157q-131 157 -131 406q0 250 93 454t278 335t425 131
q129 0 223 -38t166 -132l15 100q4 41 28 41h5q20 0 61 -4l70 -2l397 6q88 0 149 -6q-33 -117 -43 -311h-49l-16 182q-4 49 -260 49z" />
    <glyph glyph-name="oe" unicode="&#x153;" horiz-adv-x="1370" 
d="M1094 901q-111 0 -195 -108q-63 -82 -104 -314q119 25 225 80q168 86 168 232q0 110 -94 110zM385 55q111 -1 170 93t92 246t33 270q0 246 -199 245q-67 0 -117 -44t-74 -92t-46 -120q-53 -168 -54 -352q0 -246 195 -246zM868 -23q-90 0 -153 42t-80 126
q-158 -168 -319 -168q-161 -1 -221 89t-60 247q0 301 176 498q68 76 162 126t188 50q182 0 258 -176q78 57 112 81q35 24 109 60t140 35q66 0 112 -45q47 -45 47 -116q0 -186 -257 -297q-118 -51 -296 -99q-18 -102 -18 -179t43 -127t137 -50t262 121l45 32l13 -47
q-246 -203 -400 -203z" />
    <glyph glyph-name="Scaron" unicode="&#x160;" horiz-adv-x="1138" 
d="M770 1475h-94l-197 346h76l184 -215l291 215h74zM924 1100v155q-76 93 -222 93t-239 -85q-94 -85 -94 -204t47 -178t149 -80l133 -29q139 -32 217 -96t78 -195q0 -223 -183 -370t-413 -148q-74 0 -163 22t-148 56q33 150 49 311h62v-202q115 -88 277 -88t259 92
q98 92 98 241q0 170 -165 211l-195 47q-135 33 -192 109t-58 215q0 197 171 333t372 136q152 0 272 -70q-39 -123 -51 -276h-61z" />
    <glyph glyph-name="scaron" unicode="&#x161;" horiz-adv-x="796" 
d="M463 1085h-94l-197 347h76l184 -215l291 215h74zM115 303v-172q77 -72 187 -72q110 1 178 59t67 165q0 63 -29 92t-94 41l-129 24q-199 39 -199 207q0 104 76 180q160 160 326 160q104 0 209 -55q-29 -139 -39 -232h-47v113q-19 43 -79 68t-130 25t-132 -54
q-62 -53 -62 -135t43 -106q44 -24 118 -40l88 -16q217 -39 217 -195q0 -150 -152 -266t-279 -117q-128 0 -235 56q33 127 45 270h52z" />
    <glyph glyph-name="Ydieresis" unicode="&#x178;" horiz-adv-x="1366" 
d="M1084 1735q82 -1 82 -93q0 -46 -31 -88q-31 -41 -80 -41q-82 0 -82 89q0 47 36 90t75 43zM674 1735q82 -1 82 -93q0 -46 -31 -88t-80 -41q-82 0 -82 89q0 47 36 90t75 43zM274 1444q107 0 178 -96q52 -72 94 -171q42 -100 95 -287t66 -249h4q80 209 260 457
q96 131 193 216t218 113l-12 -145q-123 -16 -227 -122q-179 -183 -320 -448q-70 -132 -82 -208l-49 -314q-8 -46 -8 -74t14 -42t60 -17l100 -6l-6 -57q-209 6 -257 6q-47 0 -153 -3t-127 -3l9 57l98 6q52 2 72 23t47 176l43 258v10q0 68 -75 300t-122 321q-84 156 -188 155
q-27 0 -86 -24l-7 49q47 33 162 119h6z" />
    <glyph glyph-name="Zcaron" unicode="&#x17d;" horiz-adv-x="1366" 
d="M870 1475h-94l-196 346h75l185 -215l290 215h74zM700 1335q-238 0 -368 -26q-45 -152 -56 -217h-53q23 203 23 325q725 -6 727 -6l332 6v-41l-1033 -1296h576q137 0 260 26q45 123 80 230h53q-41 -217 -47 -342q-338 6 -626 6t-527 -6v45l1028 1296h-369z" />
    <glyph glyph-name="zcaron" unicode="&#x17e;" horiz-adv-x="909" 
d="M582 1085h-95l-196 347h76l184 -215l291 215h73zM549 815q-87 -1 -161 15t-118 16t-77 -10l-62 -119h-43l66 250q68 20 117 20t188 -38t258 -38q39 0 69 29l48 47l18 -18l-12 -66l-686 -774l4 -4q84 39 169 39t185 -24t139 -23q63 0 82 51l45 123h45q-31 -123 -61 -293
q-72 -20 -122 -20q-65 -1 -302 58q-67 17 -156 17q-90 0 -166 -65l-18 55l713 809l-4 4q-72 -41 -158 -41z" />
    <glyph glyph-name="florin" unicode="&#x192;" 
d="M162 -434q29 0 69 47t72 209l172 936h-231l18 69h223q49 251 183 437t243 186q31 0 52 -10l-25 -162q-49 47 -115 47q-29 0 -57 -19t-39 -49q-33 -84 -70 -301l-22 -129h229l-16 -69h-223l-105 -506q-39 -184 -123 -423t-157 -300q-113 -94 -230 -94l25 164l22 8
q35 -41 105 -41z" />
    <glyph glyph-name="circumflex" unicode="&#x2c6;" horiz-adv-x="681" 
d="M537 1391l180 -347h-74l-168 213l-280 -213h-80l321 347h101z" />
    <glyph glyph-name="caron" unicode="&#x2c7;" horiz-adv-x="681" 
d="M504 1044h-94l-197 347h76l184 -215l291 215h74z" />
    <glyph glyph-name="uni02C9" unicode="&#x2c9;" horiz-adv-x="681" 
d="M791 1206l-23 -104h-616l22 104h617z" />
    <glyph glyph-name="breve" unicode="&#x2d8;" horiz-adv-x="681" 
d="M188 1386h60q4 -98 64 -151t161 -53q174 0 272 204h60q-31 -143 -118 -234t-224 -91q-274 0 -275 303v22z" />
    <glyph glyph-name="dotaccent" unicode="&#x2d9;" horiz-adv-x="681" 
d="M498 1458q82 0 82 -92q0 -47 -31 -88t-80 -41q-82 0 -82 88q0 47 36 90t75 43z" />
    <glyph glyph-name="ring" unicode="&#x2da;" horiz-adv-x="681" 
d="M530 1450q84 0 144 -59t61 -142v-8q0 -82 -60 -141q-61 -60 -145 -60t-144 60t-60 141v8q0 81 60 141t144 60zM530 1376q-57 0 -92 -36t-35 -95t35 -95t92 -36t93 36q35 36 34 95q0 59 -34 95q-36 36 -93 36z" />
    <glyph glyph-name="ogonek" unicode="&#x2db;" horiz-adv-x="681" 
d="M175 -463q-48 0 -80 41t-32 111q0 135 160 274h76q-2 -4 -31 -37t-53 -69t-24 -85q-1 -48 23 -78t52 -30q27 0 42 6t24 9t34 22q26 19 50 35l20 -45q-51 -47 -80 -72t-81 -53t-100 -29z" />
    <glyph glyph-name="tilde" unicode="&#x2dc;" horiz-adv-x="681" 
d="M330 1307q57 0 129 -29l123 -49q27 -10 47 -10t32 2q32 5 80 86h58q-13 -88 -65 -150t-140 -61q-39 0 -125 32l-78 31q-71 27 -105 27t-56 -22t-42 -68h-59q51 211 201 211z" />
    <glyph glyph-name="hungarumlaut" unicode="&#x2dd;" horiz-adv-x="681" 
d="M757 1407q29 0 53 -18t24 -41q0 -45 -58 -80l-332 -207h-69l313 309q41 37 69 37zM415 1407q29 0 53 -18t24 -41q0 -45 -58 -80l-332 -207h-69l313 309q41 37 69 37z" />
    <glyph glyph-name="uni03A9" unicode="&#x3a9;" horiz-adv-x="1339" 
d="M794 1366q-162 0 -290 -145q-129 -145 -185 -455q-14 -75 -14 -140t5 -112t8 -76q2 -29 16 -78t18 -69q4 -19 22 -71t21 -64q5 -12 23 -64t20 -59l-20 -33h-422l4 264l45 4q10 -96 34 -125t79 -28h200q-258 315 -196 663q51 291 236 467q184 176 416 176t351 -169
t68 -457q-57 -322 -436 -680h202q61 0 92 25q30 26 76 128l45 -4l-90 -264h-428l-6 33q8 12 76 108q264 373 311 654q47 279 -36 425t-245 146z" />
    <glyph glyph-name="uni03BC" unicode="&#x3bc;" horiz-adv-x="1032" 
d="M284 127q20 0 54 25q94 68 200 197q105 130 151 255t69 244l20 104l140 35l14 -18q-100 -383 -142 -587t-42 -233q0 -28 34 -28t117 55l53 35l21 -37q-173 -127 -231 -162t-95 -35q-63 0 -63 82q0 61 26 160l66 244l-8 2q-104 -176 -235 -312q-26 -28 -38 -41t-37 -38
t-41 -38t-43 -35t-57 -24q-82 0 -84 121q-25 -92 -47 -232t-23 -218q-121 -49 -159 -80l-27 22q203 556 281 916t88 446l143 35l14 -18l-127 -523q-35 -150 -34 -217l2 -43q0 -18 10 -38t30 -21z" />
    <glyph glyph-name="pi" unicode="&#x3c0;" horiz-adv-x="1052" 
d="M780 78q49 0 111 65l20 -34q-92 -133 -211 -134q-78 1 -110 57t-1 218q30 162 111 520q-225 4 -307 4l-6 -43q-37 -211 -111 -430t-143 -291q-63 -27 -115 -35l-6 31q119 123 200 343t116 427q-116 0 -188 -42q-24 -13 -77 -50l-18 39q82 82 101 92q20 10 57 34
q62 40 188 40l494 -6q47 0 71 12t56 53l41 -18q-37 -90 -95 -158q-33 -6 -135 -6q-14 -53 -96 -500q-33 -188 53 -188z" />
    <glyph glyph-name="endash" unicode="&#x2013;" 
d="M1024 467h-1044l20 102h1044z" />
    <glyph glyph-name="emdash" unicode="&#x2014;" horiz-adv-x="2048" 
d="M2048 467h-2068l20 102h2068z" />
    <glyph glyph-name="quoteleft" unicode="&#x2018;" horiz-adv-x="569" 
d="M178 999l-18 37q143 274 289 439l65 26l14 -18q-141 -213 -168 -432q-80 -15 -182 -52z" />
    <glyph glyph-name="quoteright" unicode="&#x2019;" horiz-adv-x="569" 
d="M510 1501l18 -37q-143 -274 -288 -438l-66 -27l-14 19q141 213 168 432q80 14 182 51z" />
    <glyph glyph-name="quotesinglbase" unicode="&#x201a;" horiz-adv-x="569" 
d="M229 195l181 51l22 -25q-129 -266 -293 -446l-65 -25l-19 14q123 167 174 431z" />
    <glyph glyph-name="quotedblleft" unicode="&#x201c;" 
d="M623 999l-19 37q143 274 289 439l65 26l15 -18q-141 -213 -168 -432q-80 -15 -182 -52zM219 999l-18 37q143 274 288 439l66 26l14 -18q-141 -213 -168 -432q-80 -15 -182 -52z" />
    <glyph glyph-name="quotedblright" unicode="&#x201d;" 
d="M954 1501l19 -37q-143 -274 -289 -438l-66 -27l-14 19q141 213 168 432q80 14 182 51zM551 1501l18 -37q-143 -274 -288 -438l-66 -27l-14 19q141 213 168 432q80 14 182 51z" />
    <glyph glyph-name="quotedblbase" unicode="&#x201e;" 
d="M666 195l180 51l22 -25q-129 -266 -293 -446l-65 -25l-18 14q123 167 174 431zM262 195l180 51l23 -25q-129 -266 -293 -446l-66 -25l-18 14q123 167 174 431z" />
    <glyph glyph-name="dagger" unicode="&#x2020;" 
d="M616 1413q29 0 82 4l7 -6q-27 -92 -70 -313l-29 -144l346 11l9 -9l-17 -116l-10 -9l-348 13l-21 -139q-76 -528 -94 -695l-10 -10q-57 4 -86 4t-86 -4l-6 6q100 395 143 668l27 170l-347 -10l-8 8l17 116l10 9l348 -13l23 144q14 79 20 179q6 99 10 134l4 6q57 -4 86 -4z
" />
    <glyph glyph-name="daggerdbl" unicode="&#x2021;" 
d="M680 1413q27 0 76 4l2 -10q-25 -94 -74 -334l-16 -78l327 13l17 -17l-13 -102l-18 -10l-332 14l-18 -115q-25 -168 -25 -211v-24q-31 -63 -59 -207l-29 -143l328 12l16 -17l-12 -102l-19 -10l-331 14l-25 -139q0 -2 -24 -262l-17 -21q-49 4 -76 4t-79 -4l-5 21
q39 156 66 266l31 135l-332 -14l-19 10l21 102l22 13l326 -13l27 154q23 125 22 209q27 45 66 244l18 98l-332 -14l-18 10l21 102l22 13l326 -13l12 82q23 154 37 334l10 10q53 -4 80 -4z" />
    <glyph glyph-name="bullet" unicode="&#x2022;" 
d="M176 725q0 143 104 247t248 105q144 0 248 -104q104 -103 104 -247t-104 -248t-248 -105q-144 1 -248 105t-104 247z" />
    <glyph glyph-name="ellipsis" unicode="&#x2026;" horiz-adv-x="2048" 
d="M1690 229q46 -1 72 -29t26 -75t-34 -91t-89 -44q-92 0 -92 98q0 53 35 97t82 44zM1008 229q46 -1 72 -29t26 -75t-34 -91t-89 -44q-92 0 -92 98q0 53 35 97t82 44zM326 229q46 -1 72 -29t26 -75t-34 -91t-89 -44q-92 0 -92 98q0 53 35 97t82 44z" />
    <glyph glyph-name="perthousand" unicode="&#x2030;" horiz-adv-x="2048" 
d="M193 -12l933 1480h84l-925 -1480h-92zM1659 569q-63 0 -110 -71q-77 -120 -79 -324q0 -127 113 -127q63 0 110 72q77 120 79 323q0 127 -113 127zM1654 616q120 0 184 -72t65 -199q-1 -129 -95 -237t-224 -108t-187 79t-57 205t96 229q98 103 218 103zM997 569
q-63 1 -109 -71q-79 -123 -79 -324q0 -127 113 -127q63 0 109 72q79 124 79 323q0 127 -113 127zM992 616q120 0 185 -72t65 -199q0 -129 -95 -237t-225 -108t-187 79t-57 205t97 229t217 103zM467 1384q-63 0 -110 -71q-78 -122 -78 -324q0 -127 112 -127q63 0 110 72
q76 120 79 323q0 127 -113 127zM462 1432q120 0 184 -72t65 -200q-1 -128 -95 -236q-94 -109 -224 -109t-187 79t-57 205q0 125 96 229q98 104 218 104z" />
    <glyph glyph-name="guilsinglleft" unicode="&#x2039;" horiz-adv-x="681" 
d="M264 348l-147 166v33q25 23 103 89t120 105l174 160l39 -33l-281 -344l195 -350l-41 -31q-158 201 -162 205z" />
    <glyph glyph-name="guilsinglright" unicode="&#x203a;" horiz-adv-x="681" 
d="M418 696l147 -166v-32q-25 -24 -103 -90t-120 -105l-174 -160l-39 33l281 344l-195 350l41 31q158 -201 162 -205z" />
    <glyph glyph-name="fraction" unicode="&#x2044;" horiz-adv-x="342" 
d="M-233 0h-115l923 1432h115z" />
    <glyph glyph-name="Euro" unicode="&#x20ac;" 
d="M952 1053v184q-100 111 -236 111t-242 -142t-150 -352h540l-24 -80h-531q-10 -70 -10 -166v-33h477l-22 -79h-451q18 -201 101 -313t235 -111q92 0 162 32t155 109l21 -14l-21 -74q-162 -162 -364 -162t-319 136q-118 136 -130 397h-102l22 79h80q0 94 19 199h-107l25 80
h98q66 266 242 432q158 145 352 146q135 0 289 -84q-41 -127 -55 -295h-54z" />
    <glyph glyph-name="afii61289" unicode="&#x2113;" horiz-adv-x="757" 
d="M373 975l-47 -264q104 109 182 250t98 251q41 222 -53 224q-53 0 -94 -104t-86 -357zM576 1493q82 0 110 -74t8 -188q-53 -301 -383 -604l-37 -209q-29 -201 -1 -271t114 -69q114 0 229 139l31 -31q-141 -205 -336 -204q-123 0 -172 77q-47 86 -10 291l33 182l-127 -90
l-17 43l154 115l45 254q47 262 85 371t112 180q80 88 162 88z" />
    <glyph glyph-name="trademark" unicode="&#x2122;" horiz-adv-x="2048" 
d="M1942 1411v-37h-44q-55 0 -55 -41v-614q1 -55 15 -75t67 -19h23v-41h-324v41h23q53 0 67 19t15 75v610h-5l-307 -745h-16l-311 745h-3v-637q-1 -39 19 -51t80 -16v-41h-248v41q59 4 79 16q19 12 19 51v606q0 48 -12 62t-41 14h-29v37h224l264 -631l270 631h230zM799 1411
v-197h-47q0 88 -33 118t-125 30h-84v-666q0 -49 24 -60t105 -11v-41h-373v41q82 0 106 11t23 60v666h-84q-92 0 -125 -30t-32 -118h-48v197h693z" />
    <glyph glyph-name="Omega" unicode="&#x2126;" horiz-adv-x="1339" 
d="M794 1366q-162 0 -290 -145q-129 -145 -185 -455q-14 -75 -14 -140t5 -112t8 -76q2 -29 16 -78t18 -69q4 -19 22 -71t21 -64q5 -12 23 -64t20 -59l-20 -33h-422l4 264l45 4q10 -96 34 -125t79 -28h200q-258 315 -196 663q51 291 236 467q184 176 416 176t351 -169
t68 -457q-57 -322 -436 -680h202q61 0 92 25q30 26 76 128l45 -4l-90 -264h-428l-6 33q8 12 76 108q264 373 311 654q47 279 -36 425t-245 146z" />
    <glyph glyph-name="estimated" unicode="&#x212e;" horiz-adv-x="1892" 
d="M1526 735v398q0 29 -19 47q-209 204 -491 204t-490 -210q-20 -20 -20 -50v-389q0 -14 12 -14h1000q8 0 8 14zM1823 684h-1305q-12 0 -12 -10v-395q0 -25 18 -46q209 -215 506 -215t508 242h115q-109 -129 -277 -205t-360 -75q-334 0 -570 212t-236 511q0 300 236 512
t571 212t571 -212t235 -513v-18z" />
    <glyph glyph-name="partialdiff" unicode="&#x2202;" horiz-adv-x="976" 
d="M553 795h-2q-127 0 -234 -121q-109 -141 -149 -365q-18 -111 20 -191t125 -81q135 0 262 215q84 137 162 391q-14 53 -63 103t-121 49zM532 866h3q71 0 135 -36t96 -107q47 197 51 215q37 168 6 324q-16 82 -74 146t-147 65q-125 0 -266 -103q-14 -2 -27 16q-27 40 -4 91
q133 82 270 82q240 0 326 -287q57 -184 5 -479t-175 -502q-184 -309 -426 -309q-151 0 -223 108t-41 295q33 188 168 330q63 67 150 109t173 42z" />
    <glyph glyph-name="Delta" unicode="&#x2206;" horiz-adv-x="1173" 
d="M836 82l-195 1104l-578 -1104h773zM995 0h-1038l8 41l721 1362l64 18l251 -1380z" />
    <glyph glyph-name="product" unicode="&#x220f;" horiz-adv-x="1396" 
d="M1343 1401v-47q-119 -8 -145 -28t-24 -99v-1213q0 -90 26 -114t139 -31v-47h-460v47q111 8 135 30t24 115v1264q0 41 -12 52t-55 11h-410q-41 0 -52 -9t-11 -46v-1272q0 -92 19 -114t124 -31v-47h-446v47q113 10 139 32t24 113v1213q0 80 -25 99q-26 19 -145 28v47h1155z
" />
    <glyph glyph-name="summation" unicode="&#x2211;" horiz-adv-x="1159" 
d="M760 1341h-381l366 -667l-426 -729h490q123 0 164 35t96 198l47 -14l-78 -344h-845v41l428 719l-418 778v43h837l21 -305l-47 -9q-32 216 -114 242q-38 12 -140 12z" />
    <glyph glyph-name="minus" unicode="&#x2212;" horiz-adv-x="1241" 
d="M1137 459h-1033v114h1033v-114z" />
    <glyph glyph-name="uni2215" unicode="&#x2215;" horiz-adv-x="342" 
d="M-233 0h-115l923 1432h115z" />
    <glyph glyph-name="uni2219" unicode="&#x2219;" horiz-adv-x="512" 
d="M225 639q47 0 73 -29q26 -30 26 -76t-34 -90t-89 -45q-92 0 -92 99q0 53 34 97q35 44 82 44z" />
    <glyph glyph-name="radical" unicode="&#x221a;" horiz-adv-x="1173" 
d="M1137 1804l-308 -2095l-34 -18l-412 1110l-164 -78l-18 59l278 129l326 -907h4l260 1817z" />
    <glyph glyph-name="infinity" unicode="&#x221e;" horiz-adv-x="1480" 
d="M1108 782h-2q-75 0 -137 -52t-102 -98t-46 -52q101 -115 161 -160t137 -45t126 60t49 148q0 87 -51 143t-135 56zM428 375h2q53 0 87 20q34 21 48 29t43 36t36 35t38 41t33 35q-57 72 -87 105q-30 34 -89 70t-133 36t-123 -60t-49 -146t54 -144q56 -57 140 -57zM1391 584
v-2q0 -131 -85 -215q-84 -84 -184 -84t-178 51t-178 168q-61 -70 -103 -110t-109 -75t-138 -34q-115 0 -198 84q-83 85 -83 211t83 210q82 84 194 84t193 -58t167 -163q68 78 100 111q33 33 103 72t143 38q121 0 197 -80t76 -208z" />
    <glyph glyph-name="integral" unicode="&#x222b;" horiz-adv-x="841" 
d="M689 1704q46 0 79 -23t33 -59t-22 -56q-21 -20 -53 -20t-54 39t-46 39t-44 -25t-36 -107t-9 -210l34 -782q24 -534 -66 -719q-79 -162 -201 -162q-58 0 -89 26q-31 27 -32 61t26 56t59 23q32 0 55 -41q24 -41 44 -41q45 0 68 92q24 92 16 246l-37 844q-22 554 104 728
q69 91 171 91z" />
    <glyph glyph-name="approxequal" unicode="&#x2248;" horiz-adv-x="1052" 
d="M735 297q-74 0 -209 76q-109 66 -166 65q-96 0 -178 -141l-65 51q92 182 254 182q81 0 203 -75q90 -56 120 -61q29 -5 47 -5q53 -1 91 33t79 108l62 -51q-86 -182 -238 -182zM371 846q57 0 98 -19t76 -39l28 -16q10 -5 27 -15q18 -11 32 -19t18 -9q4 -2 16 -7
q35 -15 75 -15q90 0 170 141l62 -53q-86 -180 -238 -181q-80 0 -209 76q-100 63 -166 64q-96 0 -178 -140l-65 50q90 182 254 182z" />
    <glyph glyph-name="notequal" unicode="&#x2260;" horiz-adv-x="1081" 
d="M989 799v-97h-315l-119 -268h434v-94h-471l-96 -213l-76 33l82 180h-266v94h303l119 268h-422v97h459l96 211l76 -33l-80 -178h276z" />
    <glyph glyph-name="lessequal" unicode="&#x2264;" horiz-adv-x="1105" 
d="M1016 35h-828v98h828v-98zM1012 211l-813 426v100l813 424v-114l-713 -357v-4l713 -358v-117z" />
    <glyph glyph-name="greaterequal" unicode="&#x2265;" horiz-adv-x="1107" 
d="M1016 35h-826v98h826v-98zM201 1161l813 -424v-100l-813 -426v117l710 356v4l-710 359v114z" />
    <glyph glyph-name="lozenge" unicode="&#x25ca;" horiz-adv-x="1187" 
d="M985 680l-315 706h-6l-318 -704l318 -709h6zM1094 680l-373 -811h-113l-370 811l372 815h113z" />
    <glyph glyph-name="zero.taboldstyle" unicode="&#xf643;" 
d="M213 362q0 -309 236 -309q89 -1 161 55t110 142q73 165 74 326q1 162 -66 242t-171 79q-145 0 -245 -136q-99 -137 -99 -399zM934 604q0 -264 -165 -448t-384 -185q-155 -1 -233 103t-78 280q0 224 137 418q66 92 170 150t227 57q166 1 246 -99t80 -276z" />
    <glyph glyph-name="one.taboldstyle" unicode="&#xf644;" 
d="M557 119q0 -57 72 -60l186 -8l-4 -67q-233 16 -348 16t-340 -16l8 67l184 10q51 1 71 49t72 366t58 366l-323 -101l-25 17l20 84l607 145l12 -49l-37 -16q-50 -18 -66 -36t-40 -114t-65 -346q-42 -250 -42 -307z" />
    <glyph glyph-name="two.taboldstyle" unicode="&#xf645;" 
d="M338 0q-196 0 -264 -20l-21 12l13 84q220 131 287 185q168 133 221 203q83 109 82 197q-1 89 -58 141t-160 52q-168 0 -217 -109l-28 17l49 141q137 76 252 76t211 -54q49 -28 79 -80q30 -51 31 -109q0 -58 -13 -103t-42 -87q-30 -42 -56 -79t-75 -77t-80 -66
q-39 -34 -155 -108q-115 -74 -165 -101v-2h164q127 0 373 8l61 139l45 4l-73 -280q-265 16 -461 16z" />
    <glyph glyph-name="three.taboldstyle" unicode="&#xf646;" 
d="M631 134q0 88 -54 144q-55 56 -137 56t-194 -33l-17 8l50 99q176 6 276 87t100 171t-46 140t-130 50t-142 -34t-124 -113l-45 32l106 168q140 70 270 70q130 1 196 -63t67 -146q0 -201 -262 -350q182 -36 227 -127q23 -47 23 -129q1 -82 -55 -194q-124 -251 -375 -368
q-137 -65 -285 -65q-19 0 -68 4v103l13 12q82 -20 133 -21q121 0 216 51q158 82 229 282q28 78 28 166z" />
    <glyph glyph-name="four.taboldstyle" unicode="&#xf647;" 
d="M164 133h377l118 696l-4 5q-133 -134 -275 -344t-216 -357zM522 23l-219 2q-98 0 -291 -17v37q295 551 664 905l131 29l20 -16q-20 -39 -34 -123l-121 -707q90 0 274 4l-33 -125q-168 8 -260 8l-67 -442q-63 -10 -140 -41l-28 12z" />
    <glyph glyph-name="five.taboldstyle" unicode="&#xf648;" 
d="M147 -356q117 0 210 51t144 127q103 157 101 274q0 84 -38 127t-152 89q-200 81 -199 128q0 16 16 92l99 447q96 -29 308 -29t245 29l24 -12l-74 -136q-99 -12 -209 -12t-257 8l-33 -149q-2 -14 -10 -42l-14 -49q-5 -22 -5 -35t9 -25t71 -38q62 -25 173 -75
q112 -50 150 -100t40 -141t-52 -201q-53 -110 -138 -206t-203 -162q-118 -67 -228 -67q-31 0 -67 1t-46 1l17 113q78 -8 118 -8z" />
    <glyph glyph-name="six.taboldstyle" unicode="&#xf649;" 
d="M752 473q0 105 -52 169t-151 64q-100 0 -191 -78q-106 -95 -106 -329q0 -123 61 -184t140 -62q133 0 216 119t83 301zM641 815q117 0 194 -82t76 -223q0 -209 -143 -374t-350 -165q-164 0 -241 111t-77 288t76 359q144 345 481 547q158 94 324 125v-58
q-246 -61 -425 -244t-251 -435l4 -5q164 156 332 156z" />
    <glyph glyph-name="seven.taboldstyle" unicode="&#xf64a;" 
d="M630 950q238 0 369 29v-78q-440 -616 -778 -1364h-143l-21 29q92 150 352 561t420 684q-147 8 -291 8t-264 -16l-69 -189l-49 4l49 349l16 12q171 -29 409 -29z" />
    <glyph glyph-name="eight.taboldstyle" unicode="&#xf64b;" 
d="M700 371q0 123 -56 179q-57 57 -152 114q-148 -66 -218 -167t-70 -207t60 -171q59 -66 175 -66q117 -1 189 97t72 221zM387 -29q-149 0 -235 81t-86 219t103 247t253 178q-139 75 -177 167q-19 46 -20 104q0 157 133 283t312 126q124 0 194 -66t70 -188q0 -193 -299 -377
q72 -41 114 -73q43 -32 77 -94q34 -63 34 -146q0 -160 -144 -310t-329 -151zM598 1294q-94 0 -164 -76t-69 -178q0 -168 204 -266q225 127 226 320q1 90 -51 145t-146 55z" />
    <glyph glyph-name="nine.taboldstyle" unicode="&#xf64c;" 
d="M532 885q-134 -1 -208 -117t-74 -258t66 -209q66 -68 157 -68q121 0 201 110t80 256t-64 216t-158 70zM395 127q-135 0 -220 86t-85 262t154 340t362 164q139 0 223 -99t84 -278q1 -364 -233 -664t-631 -413l-24 53q537 166 675 705l-4 4q-127 -160 -301 -160z" />
    <glyph glyph-name="dollar.taboldstyle" unicode="&#xf653;" 
d="M479 772l82 514q-121 2 -199 -90t-77 -215q-1 -162 194 -209zM737 378q0 114 -51 164q-51 49 -164 74l-88 -550q127 0 215 99t88 213zM825 1053v147q-29 34 -87 58t-107 28l-84 -526q164 -24 253 -90t89 -215q-1 -179 -149 -321t-320 -157l-29 -208h-84l41 206
q-248 29 -317 86q25 100 45 297h53v-184q66 -78 236 -108l90 559q-145 29 -227 93q-81 65 -81 200q0 178 122 296t304 160l19 127h76l-21 -123q170 0 275 -69l4 -21q-33 -117 -52 -235h-49z" />
    <glyph glyph-name="cent.taboldstyle" unicode="&#xf654;" 
d="M322 131l286 754q-108 17 -188 -63q-20 -18 -29 -32q-8 -14 -12 -20t-10 -21t-13 -31t-25 -64q-17 -48 -41 -162t-24 -210t56 -151zM766 676v131q0 35 -90 67l-299 -782q27 -10 53 -10q152 0 346 154l15 -41l-123 -101q-141 -117 -334 -117l-70 -174h-65l71 193
q-59 12 -96 63q-59 81 -59 224q0 199 98 401q43 88 109 140t160 102t165 57l55 145h68l-55 -145q76 0 141 -45q-39 -166 -43 -262h-47z" />
    </font>
</defs>
</svg>
